<svg fill="none" height="674" viewBox="0 0 599 674" width="599" xmlns="http://www.w3.org/2000/svg" xmlns:xlink="http://www.w3.org/1999/xlink"><filter id="a" color-interpolation-filters="sRGB" filterUnits="userSpaceOnUse" height="321.066" width="430.009" x="-8.16761" y="282.345"><feFlood flood-opacity="0" result="BackgroundImageFix"/><feColorMatrix in="SourceAlpha" type="matrix" values="0 0 0 0 0 0 0 0 0 0 0 0 0 0 0 0 0 0 127 0"/><feOffset dy="24.6576"/><feGaussianBlur stdDeviation="31.8494"/><feColorMatrix type="matrix" values="0 0 0 0 0.996078 0 0 0 0 0.423529 0 0 0 0 0.4 0 0 0 0.5 0"/><feBlend in2="BackgroundImageFix" mode="normal" result="effect1_dropShadow"/><feBlend in="SourceGraphic" in2="effect1_dropShadow" mode="normal" result="shape"/></filter><filter id="b" color-interpolation-filters="sRGB" filterUnits="userSpaceOnUse" height="170.696" width="203.37" x="213.865" y="171.141"><feFlood flood-opacity="0" result="BackgroundImageFix"/><feColorMatrix in="SourceAlpha" type="matrix" values="0 0 0 0 0 0 0 0 0 0 0 0 0 0 0 0 0 0 127 0"/><feOffset dy="21.3074"/><feGaussianBlur stdDeviation="22.9896"/><feColorMatrix type="matrix" values="0 0 0 0 0.172549 0 0 0 0 0.756863 0 0 0 0 1 0 0 0 0.5 0"/><feBlend in2="BackgroundImageFix" mode="normal" result="effect1_dropShadow"/><feBlend in="SourceGraphic" in2="effect1_dropShadow" mode="normal" result="shape"/></filter><filter id="c" color-interpolation-filters="sRGB" filterUnits="userSpaceOnUse" height="170.696" width="203.37" x="590.564" y="332.242"><feFlood flood-opacity="0" result="BackgroundImageFix"/><feColorMatrix in="SourceAlpha" type="matrix" values="0 0 0 0 0 0 0 0 0 0 0 0 0 0 0 0 0 0 127 0"/><feOffset dy="21.3074"/><feGaussianBlur stdDeviation="22.9896"/><feColorMatrix type="matrix" values="0 0 0 0 0.996078 0 0 0 0 0.423529 0 0 0 0 0.4 0 0 0 0.5 0"/><feBlend in2="BackgroundImageFix" mode="normal" result="effect1_dropShadow"/><feBlend in="SourceGraphic" in2="effect1_dropShadow" mode="normal" result="shape"/></filter><clipPath id="d"><rect height="573.057" rx="28.2294" transform="matrix(.902585 -.430511 .707107 .707107 -12 375.934)" width="264.651"/></clipPath><clipPath id="e"><path d="m0 0h264.651v67.7506h-264.651z" transform="matrix(.902585 -.430511 .707107 .707107 -12 375.934)"/></clipPath><clipPath id="f"><path d="m0 0h16.9376v16.9376h-16.9376z" transform="matrix(.902585 -.430511 .707107 .707107 27.2422 392.594)"/></clipPath><clipPath id="g"><path d="m0 0h16.9376v16.9376h-16.9376z" transform="matrix(.902585 -.430511 .707107 .707107 194.77 312.688)"/></clipPath><clipPath id="h"><path d="m0 0h16.9376v16.9376h-16.9376z" transform="matrix(.902585 -.430511 .707107 .707107 220.25 300.535)"/></clipPath><clipPath id="i"><path d="m0 0h16.9376v16.9376h-16.9376z" transform="matrix(.902585 -.430511 .707107 .707107 356.484 436.77)"/></clipPath><clipPath id="j"><path d="m0 0h36.6982v8.46882h-36.6982z" transform="matrix(.902585 -.430511 .707107 .707107 224.703 460.223)"/></clipPath><clipPath id="k"><rect height="573.481" rx="28.2503" transform="matrix(.902585 -.430511 .707107 .707107 150.652 139.02)" width="264.846"/></clipPath><clipPath id="l"><path d="m0 0h264.846v64.9757h-264.846z" transform="matrix(.902585 -.430511 .707107 .707107 150.652 139.02)"/></clipPath><clipPath id="m"><path d="m0 0h22.6002v22.6002h-22.6002z" transform="matrix(.902585 -.430511 .707107 .707107 239.184 182.355)"/></clipPath><mask id="n" height="674" maskUnits="userSpaceOnUse" width="599" x="0" y="0"><path d="m0 0h599v674h-599z" fill="#e6f1fa"/></mask><g mask="url(#n)"><g clip-path="url(#d)"><rect fill="#fff" height="573.057" rx="28.2294" transform="matrix(.902585 -.430511 .707107 .707107 -12 375.934)" width="264.651"/><rect fill="#f3f5f8" height="84.6882" rx="11.2918" transform="matrix(.902585 -.430511 .707107 .707107 189.426 554.781)" width="110.8"/><g fill="#94a2ab"><path clip-rule="evenodd" d="m258.287 554.491c-1.466.699-1.723 2.197-.575 3.345 1.149 1.148 3.268 1.513 4.734.813 1.465-.699 1.723-2.196.574-3.345-1.148-1.148-3.267-1.512-4.733-.813zm-1.636 3.852c-1.608-1.608-1.248-3.705.804-4.684s5.019-.469 6.627 1.139 1.247 3.704-.805 4.683-5.019.469-6.626-1.138zm15.456-1.95c-.429-.144-.881.041-.895.365l-.345 7.695c-.006.134-.09.254-.232.33-.141.077-.328.103-.514.072l-6.408-1.039c-.42-.068-.777.15-.745.455l.799 7.534c.041.389.664.639 1.088.436l21.551-10.279c.42-.2.31-.685-.194-.854zm-2.243.22c.043-.974 1.398-1.527 2.687-1.096l14.104 4.716c1.512.505 1.843 1.96.583 2.561l-21.551 10.279c-1.272.607-3.141-.142-3.265-1.308l-.799-7.534c-.096-.914.976-1.568 2.235-1.364l5.684.922z" fill-rule="evenodd"/><path d="m268.482 617.529 4.324 7.305-1.606.765-6.612-4.089 3.196 5.719-1.606.766-8.359-5.38 1.433-.683 6.555 4.489-3.379-6.004 1.445-.689 6.933 4.308-3.757-5.823zm5.034-.437c.573-.274 1.173-.396 1.8-.368.627.029 1.207.185 1.74.47l-1.15-1.149 1.307-.624 4.95 4.949-1.307.624-1.15-1.15c.197.446.204.876.02 1.291-.183.414-.562.759-1.135 1.032-.55.263-1.145.396-1.784.4-.632.001-1.262-.132-1.89-.399s-1.202-.66-1.723-1.181c-.515-.515-.842-1.023-.98-1.523-.139-.5-.096-.953.128-1.361.232-.412.624-.749 1.174-1.011zm1.299.707c-.58.277-.9.646-.958 1.107-.057.452.17.932.679 1.441s1.082.828 1.719.957c.639.12 1.249.041 1.83-.236.367-.175.63-.397.789-.668.152-.276.19-.577.113-.903-.078-.325-.281-.653-.61-.982-.324-.324-.692-.568-1.106-.733-.42-.172-.841-.254-1.263-.247-.428.001-.826.089-1.193.264zm11.203-.581.889.889-.802.383c-.673.321-1.311.44-1.914.356-.601-.094-1.199-.437-1.791-1.03l-2.426-2.425-.905.432-.872-.871.906-.432-1.231-1.231 1.319-.629 1.231 1.231 1.525-.727.871.871-1.525.727 2.443 2.443c.282.282.541.446.779.491.245.043.536-.017.873-.177zm5.272-5.207c.167.167.299.321.394.462l-4.862 2.318c.532.499 1.089.79 1.671.875s1.121.009 1.618-.228c.436-.207.716-.469.84-.785.132-.32.089-.639-.13-.96l1.399-.667c.264.387.396.78.398 1.177s-.133.775-.406 1.135c-.278.354-.681.657-1.208.908-.612.292-1.256.449-1.934.472-.67.018-1.33-.1-1.981-.356-.651-.255-1.236-.644-1.757-1.165-.515-.515-.831-1.028-.946-1.538-.116-.511-.043-.98.22-1.406.27-.429.711-.79 1.323-1.082.619-.295 1.26-.45 1.922-.465.664-.025 1.295.081 1.892.317.6.227 1.115.556 1.547.988zm-1.346.602c-.308-.331-.65-.566-1.026-.705-.375-.149-.75-.208-1.127-.179-.376.02-.724.107-1.045.26-.512.244-.817.571-.916.981-.098.409.077.861.525 1.354zm2.648-3.094c-.109-.426-.058-.826.154-1.201.206-.382.569-.696 1.088-.944l1.114 1.114-.39.186c-.573.273-.925.605-1.055.994-.128.379.059.821.562 1.324l2.506 2.506-1.307.623-4.949-4.949 1.307-.623zm3.369-5.163c-.174-.173-.241-.354-.202-.54.039-.187.185-.341.437-.461.253-.12.512-.16.779-.119.274.037.498.143.672.316.173.174.234.353.181.537-.045.181-.194.332-.446.452s-.509.163-.769.128c-.261-.035-.478-.139-.652-.313zm2.928.726 4.949 4.95-1.307.623-4.949-4.949zm3.594-1.807c.742-.353 1.484-.486 2.226-.398.745.078 1.415.342 2.012.792l-1.239.59c-.323-.244-.687-.388-1.094-.433-.404-.055-.805.013-1.203.202-.328.157-.522.342-.579.555-.056.204.02.411.23.62.156.156.346.251.572.284.226.034.461.033.706-.005.253-.041.592-.114 1.017-.219.558-.143 1.027-.238 1.407-.287.388-.052.784-.029 1.188.071.406.089.776.301 1.111.637.414.413.546.845.399 1.296-.14.447-.55.833-1.231 1.157-.787.376-1.569.536-2.346.482-.769-.058-1.46-.32-2.075-.788l1.273-.607c.308.251.679.397 1.114.437.436.04.871-.044 1.307-.251.313-.15.495-.33.545-.539.052-.219-.021-.428-.219-.625-.174-.174-.38-.279-.619-.315-.24-.036-.49-.032-.75.012-.266.039-.609.114-1.028.225-.543.135-1.001.23-1.375.285-.367.051-.746.033-1.138-.054-.391-.097-.748-.307-1.071-.631-.419-.419-.559-.852-.419-1.299.142-.457.568-.855 1.279-1.194zm10.293-4.909c.55-.263 1.141-.394 1.773-.395.639-.004 1.273.127 1.901.394.627.266 1.199.657 1.714 1.172.521.521.851 1.032.989 1.532.139.499.092.955-.14 1.367-.224.407-.612.742-1.162 1.005-.573.273-1.173.396-1.8.368-.627-.029-1.203-.187-1.729-.476l1.15 1.15-1.307.623-6.647-6.647 1.307-.623 2.847 2.847c-.204-.442-.215-.87-.031-1.285.183-.415.562-.759 1.135-1.032zm.497 1.09c-.367.175-.627.4-.78.676-.158.271-.196.572-.113.903.078.326.278.651.601.974.33.329.701.577 1.115.742s.835.248 1.263.247c.422-.007.817-.098 1.183-.273.581-.277.904-.643.968-1.098.058-.461-.167-.946-.676-1.455-.503-.503-1.077-.818-1.722-.944-.645-.125-1.258-.05-1.839.228zm3.289-5.311 6.647 6.647-1.307.624-6.647-6.647zm6.106-.497c.611-.292 1.264-.453 1.956-.483.693-.029 1.369.082 2.027.334.659.252 1.245.635 1.76 1.15.521.521.836 1.039.944 1.554.108.514.019.99-.266 1.427-.286.437-.734.801-1.346 1.093-.611.291-1.264.452-1.956.482-.686.026-1.361-.085-2.027-.334-.665-.258-1.254-.644-1.769-1.159s-.827-1.03-.935-1.544c-.1-.519-.012-.994.266-1.428.286-.436.734-.801 1.346-1.092zm.889.889c-.336.16-.586.368-.749.622-.163.255-.207.55-.131.885.078.326.296.669.655 1.028.365.365.755.631 1.169.796.421.162.833.235 1.235.22.403-.015.773-.103 1.109-.264.336-.16.586-.368.749-.622.163-.255.206-.545.128-.871-.069-.329-.287-.677-.652-1.042-.359-.359-.75-.62-1.171-.781-.42-.172-.831-.25-1.233-.235-.403.016-.772.103-1.109.264zm6.467-4.398c.612-.292 1.264-.453 1.957-.482.693-.03 1.368.081 2.027.333.658.252 1.245.635 1.76 1.15.521.521.835 1.039.944 1.554.108.514.019.99-.267 1.427-.285.437-.734.801-1.345 1.093-.612.292-1.264.452-1.957.482-.685.026-1.361-.085-2.027-.333-.664-.258-1.254-.645-1.769-1.16s-.826-1.03-.935-1.544c-.1-.518-.011-.994.267-1.427.285-.437.734-.802 1.345-1.093zm.89.889c-.337.16-.586.368-.749.623-.163.254-.207.549-.131.885.077.325.295.668.655 1.027.365.365.754.631 1.168.796.421.162.833.235 1.236.22s.772-.103 1.108-.263c.337-.161.586-.368.749-.623s.206-.545.129-.871c-.07-.329-.287-.676-.653-1.042-.359-.359-.749-.619-1.171-.781-.419-.171-.83-.249-1.233-.234s-.772.103-1.108.263z"/><rect height="8.46882" rx="4.23441" transform="matrix(.902585 -.430511 .707107 .707107 270.27 635.625)" width="101.626"/></g><rect fill="#f3f5f8" height="8.46882" rx="4.23441" transform="matrix(.902585 -.430511 .707107 .707107 280.254 645.605)" width="71.985"/><rect fill="#f3f5f8" height="84.6882" rx="11.2918" transform="matrix(.902585 -.430511 .707107 .707107 304.199 669.551)" width="110.8"/><path clip-rule="evenodd" d="m373.06 669.26c-1.465.7-1.723 2.197-.574 3.346 1.148 1.148 3.267 1.512 4.733.813s1.723-2.197.575-3.345c-1.149-1.149-3.268-1.513-4.734-.814zm-1.636 3.852c-1.608-1.608-1.247-3.704.805-4.683s5.019-.469 6.626 1.138c1.608 1.608 1.248 3.705-.804 4.684s-5.019.469-6.627-1.139zm15.457-1.949c-.43-.144-.881.04-.896.365l-.345 7.695c-.006.134-.089.254-.231.33s-.328.102-.515.072l-6.408-1.039c-.419-.069-.777.15-.744.454l.798 7.535c.042.389.665.638 1.089.436l21.551-10.28c.42-.2.309-.685-.195-.853zm-2.244.22c.044-.975 1.398-1.527 2.687-1.096l14.105 4.715c1.511.505 1.842 1.96.582 2.561l-21.551 10.28c-1.272.606-3.141-.142-3.264-1.308l-.799-7.535c-.097-.913.976-1.568 2.234-1.364l5.685.923z" fill="#94a2ab" fill-rule="evenodd"/><rect fill="#f3f5f8" height="84.6882" rx="11.2918" transform="matrix(.902585 -.430511 .707107 .707107 297.715 503.129)" width="110.8"/><path clip-rule="evenodd" d="m366.576 502.839c-1.466.699-1.723 2.196-.575 3.345 1.149 1.148 3.268 1.512 4.734.813 1.465-.699 1.723-2.197.574-3.345-1.148-1.148-3.267-1.513-4.733-.813zm-1.636 3.851c-1.608-1.608-1.248-3.704.804-4.683 2.053-.979 5.019-.469 6.627 1.139 1.608 1.607 1.248 3.704-.805 4.683-2.052.979-5.019.469-6.626-1.139zm15.456-1.949c-.429-.144-.881.04-.895.365l-.345 7.695c-.006.134-.09.254-.231.33-.142.076-.329.102-.515.072l-6.408-1.039c-.419-.068-.777.15-.745.454l.799 7.535c.041.389.664.638 1.088.436l21.551-10.279c.42-.201.31-.686-.194-.854zm-2.243.22c.043-.975 1.398-1.527 2.687-1.096l14.104 4.715c1.512.505 1.843 1.96.583 2.561l-21.551 10.28c-1.272.606-3.141-.142-3.265-1.308l-.798-7.535c-.097-.913.975-1.568 2.234-1.364l5.684.923z" fill="#94a2ab" fill-rule="evenodd"/><path d="m376.494 572.882c.311.311.506.647.584 1.008.073.354-.005.705-.233 1.053s-.625.656-1.191.926c-.55.263-1.118.423-1.704.481-.591.052-1.154.003-1.69-.149-.535-.151-1.001-.398-1.399-.739l1.399-.667c.314.257.699.423 1.157.496.465.07.919 0 1.362-.212.398-.189.62-.419.666-.689.054-.273-.051-.542-.314-.805-.228-.228-.494-.375-.798-.442-.31-.073-.626-.095-.946-.066-.321.029-.742.088-1.262.177-.631.115-1.169.186-1.616.214-.439.023-.889-.032-1.351-.166-.461-.133-.886-.395-1.275-.784-.342-.341-.534-.692-.577-1.052-.044-.359.064-.703.324-1.03.254-.333.641-.624 1.16-.872.826-.393 1.635-.549 2.428-.468.801.078 1.487.352 2.059.823l-1.411.672c-.293-.214-.641-.348-1.046-.403-.403-.064-.807 0-1.212.194-.367.175-.587.39-.659.645-.078.25.021.512.297.788.215.215.471.359.768.429.291.065.592.085.906.059.314-.035.728-.095 1.241-.181.638-.118 1.183-.188 1.636-.21.455-.031.915.024 1.383.164.474.136.913.404 1.314.806zm6.574-.642-4.471-1.118 2.201 2.201-1.307.623-6.647-6.647 1.307-.623 3.809 3.808.136-3.183 1.571-.749-.291 3.774 5.309 1.143zm-1.735-6.483 5.53 2.736-1.884-4.475 1.457-.694 3.484 9.124-1.456.694-1.106-3.121-7.492-3.564zm7.029-5.475c-.174-.173-.241-.354-.202-.54.039-.187.185-.34.437-.461.252-.12.512-.16.778-.119.274.037.498.143.672.316.174.174.234.353.182.537-.046.181-.194.332-.446.452-.253.12-.509.163-.77.128s-.478-.139-.651-.313zm2.927.727 4.95 4.949-1.307.623-4.95-4.949zm3.595-1.808c.741-.353 1.483-.486 2.226-.398.744.078 1.415.342 2.011.792l-1.238.59c-.323-.244-.688-.388-1.094-.433-.405-.055-.806.013-1.203.202-.329.157-.522.342-.58.555-.056.204.021.411.23.62.156.156.347.251.573.285.225.033.461.032.706-.006.252-.041.591-.114 1.016-.219.558-.142 1.027-.238 1.408-.287.387-.052.783-.029 1.187.071.406.089.777.302 1.112.637.413.413.546.845.398 1.296-.14.447-.55.833-1.23 1.157-.787.376-1.569.536-2.346.482-.769-.057-1.461-.32-2.075-.788l1.273-.607c.307.252.679.397 1.114.437s.871-.044 1.306-.251c.314-.15.495-.329.545-.539.052-.219-.021-.428-.218-.625-.174-.174-.381-.279-.62-.315s-.489-.032-.749.012c-.267.039-.609.114-1.029.226-.542.134-1 .229-1.375.284-.366.051-.746.033-1.138-.054-.39-.097-.747-.307-1.07-.631-.42-.419-.559-.852-.419-1.299.141-.457.568-.855 1.279-1.194zm10.292-4.909c.551-.263 1.142-.394 1.773-.395.64-.004 1.273.127 1.901.394s1.199.657 1.714 1.172c.521.521.851 1.032.99 1.532.138.5.092.955-.14 1.367-.225.407-.612.743-1.163 1.005-.573.274-1.173.396-1.8.368-.626-.029-1.202-.187-1.728-.476l1.149 1.15-1.307.623-6.647-6.647 1.307-.623 2.848 2.847c-.205-.442-.216-.87-.032-1.285.184-.414.562-.759 1.135-1.032zm.497 1.09c-.367.175-.626.4-.779.677-.159.27-.197.571-.113.903.077.325.277.65.601.973.329.33.701.577 1.114.742.414.166.835.248 1.263.247.422-.007.817-.098 1.184-.273.581-.277.903-.643.968-1.098.058-.461-.168-.946-.677-1.455-.503-.503-1.077-.818-1.722-.943-.645-.126-1.258-.05-1.839.227zm3.29-5.311 6.647 6.648-1.307.623-6.648-6.647zm6.105-.497c.612-.292 1.264-.453 1.957-.482.693-.03 1.368.081 2.027.333.658.252 1.245.635 1.76 1.15.521.521.835 1.039.944 1.554.108.514.019.99-.267 1.427-.285.437-.734.801-1.345 1.093-.612.291-1.264.452-1.957.482-.685.026-1.361-.085-2.027-.333-.664-.258-1.254-.645-1.769-1.16s-.826-1.03-.934-1.544c-.101-.518-.012-.994.266-1.427.285-.437.734-.802 1.345-1.093zm.89.889c-.337.16-.586.368-.749.623-.163.254-.207.549-.131.885.077.325.295.668.655 1.027.365.365.754.631 1.168.796.421.162.833.235 1.236.22s.772-.103 1.108-.263c.337-.161.586-.368.749-.623s.206-.545.129-.871c-.07-.329-.287-.676-.653-1.042-.359-.359-.749-.619-1.17-.781-.42-.171-.831-.25-1.234-.234-.402.015-.772.103-1.108.263zm6.467-4.398c.611-.292 1.264-.453 1.956-.482.693-.03 1.369.081 2.027.333.659.252 1.245.636 1.76 1.151.521.521.836 1.038.944 1.553.108.514.019.99-.266 1.427-.286.437-.734.801-1.346 1.093-.611.292-1.264.452-1.956.482-.686.026-1.361-.085-2.027-.333-.665-.258-1.254-.645-1.769-1.16s-.827-1.03-.935-1.544c-.1-.518-.012-.994.266-1.427.286-.437.734-.802 1.346-1.093zm.889.889c-.336.161-.586.368-.749.623-.163.254-.207.549-.131.885.077.326.296.668.655 1.027.365.366.755.631 1.169.796.421.162.833.235 1.235.22.403-.015.772-.103 1.109-.263.336-.161.586-.368.749-.623s.206-.545.128-.871c-.069-.329-.287-.676-.652-1.042-.359-.359-.75-.619-1.171-.781-.42-.171-.831-.249-1.233-.234-.403.015-.772.103-1.109.263z" fill="#94a2ab"/><rect fill="#94a2ab" height="8.46882" rx="4.23441" transform="matrix(.902585 -.430511 .707107 .707107 378.559 583.973)" width="101.626"/><rect fill="#f3f5f8" height="8.46882" rx="4.23441" transform="matrix(.902585 -.430511 .707107 .707107 388.543 593.953)" width="71.985"/><rect fill="#f3f5f8" height="84.6882" rx="11.2918" transform="matrix(.902585 -.430511 .707107 .707107 412.488 617.906)" width="110.8"/><path clip-rule="evenodd" d="m481.35 617.616c-1.466.699-1.724 2.197-.575 3.345 1.148 1.148 3.267 1.513 4.733.813 1.466-.699 1.723-2.196.575-3.345-1.148-1.148-3.268-1.512-4.733-.813zm-1.637 3.852c-1.608-1.608-1.247-3.705.805-4.684s5.019-.469 6.627 1.139c1.607 1.608 1.247 3.704-.805 4.683s-5.019.469-6.627-1.138zm15.457-1.95c-.43-.144-.881.041-.896.365l-.344 7.695c-.006.134-.09.254-.232.33-.142.077-.328.103-.515.072l-6.408-1.039c-.419-.068-.777.15-.744.455l.798 7.534c.042.389.665.639 1.089.436l21.551-10.279c.42-.2.309-.685-.194-.854zm-2.244.22c.044-.974 1.398-1.527 2.687-1.096l14.105 4.716c1.511.505 1.842 1.96.582 2.561l-21.551 10.279c-1.272.607-3.141-.142-3.264-1.308l-.799-7.534c-.097-.914.976-1.568 2.234-1.364l5.685.922z" fill="#94a2ab" fill-rule="evenodd"/><path d="m491.538 682.714 3.195 5.786-1.445.689-5.385-3.083 2.244 4.582-1.433.683-6.704-4.112 1.318-.629 5.211 3.432-2.424-4.761 1.376-.657 5.611 3.241-2.802-4.58zm4.34-2.19c.734-.35 1.508-.445 2.323-.285s1.566.584 2.255 1.273l2.883 2.883-1.307.623-2.775-2.775c-.443-.443-.93-.715-1.46-.816-.536-.107-1.056-.04-1.561.2-.52.248-.804.579-.854.992-.056.406.167.861.67 1.365l2.632 2.631-1.307.624-6.647-6.647 1.307-.624 2.785 2.785c-.203-.452-.208-.874-.014-1.267s.551-.714 1.07-.962zm6.512-3.079c.573-.273 1.173-.396 1.8-.368.626.029 1.206.185 1.74.471l-1.15-1.15 1.307-.624 4.95 4.95-1.308.623-1.149-1.15c.197.446.204.876.02 1.291-.183.415-.562.759-1.135 1.032-.551.263-1.145.396-1.785.4-.631.001-1.261-.132-1.889-.399-.628-.266-1.202-.66-1.723-1.181-.515-.515-.842-1.023-.981-1.523-.138-.499-.095-.953.129-1.361.232-.411.623-.748 1.174-1.011zm1.299.707c-.581.277-.9.646-.958 1.107-.057.452.169.932.678 1.441s1.082.828 1.72.958c.639.119 1.249.041 1.83-.236.367-.175.63-.398.788-.668.153-.277.191-.578.113-.903-.077-.326-.28-.654-.61-.983-.323-.323-.692-.568-1.105-.733-.42-.171-.841-.254-1.263-.247-.428.001-.826.089-1.193.264zm11.203-.581.889.89-.802.382c-.673.321-1.311.44-1.914.356-.602-.093-1.199-.437-1.792-1.029l-2.425-2.426-.906.432-.871-.871.906-.432-1.231-1.231 1.319-.629 1.23 1.231 1.525-.727.872.871-1.525.727 2.443 2.444c.281.281.541.445.779.491.245.042.536-.017.872-.178zm7.959-6.489c.167.168.299.322.394.462l-4.862 2.319c.532.498 1.089.79 1.671.875s1.121.009 1.618-.228c.436-.208.716-.47.84-.786.132-.319.089-.639-.129-.959l1.398-.668c.264.388.396.78.398 1.177s-.133.776-.405 1.136c-.279.354-.682.656-1.209.908-.612.292-1.256.449-1.934.471-.67.019-1.33-.1-1.981-.355-.65-.256-1.236-.644-1.757-1.165-.515-.515-.831-1.028-.946-1.539-.116-.511-.043-.979.22-1.405.27-.43.711-.791 1.323-1.082.619-.296 1.26-.451 1.922-.466.664-.025 1.295.081 1.893.318.599.227 1.114.556 1.546.987zm-1.346.602c-.308-.331-.65-.565-1.026-.705-.375-.148-.75-.208-1.127-.178-.376.02-.724.106-1.045.259-.512.244-.817.571-.916.981-.098.409.077.861.525 1.355zm-.02-5.762 6.647 6.647-1.307.624-6.647-6.647zm5.292-.109c.742-.354 1.484-.487 2.227-.399.744.079 1.414.343 2.011.792l-1.239.591c-.322-.244-.687-.389-1.093-.434-.405-.054-.806.013-1.204.203-.328.157-.521.342-.579.555-.056.203.021.41.23.62.156.155.347.25.572.284.226.034.461.032.706-.005.253-.041.592-.114 1.017-.22.558-.142 1.027-.237 1.407-.286.388-.053.784-.029 1.188.07.406.09.776.302 1.112.637.413.414.546.846.398 1.296-.14.447-.55.833-1.23 1.158-.788.375-1.57.536-2.346.482-.769-.058-1.461-.321-2.075-.788l1.272-.607c.308.251.679.397 1.115.437.435.04.87-.044 1.306-.252.313-.149.495-.329.545-.539.052-.219-.021-.427-.219-.625-.173-.174-.38-.278-.619-.315-.24-.036-.49-.032-.75.013-.266.038-.609.113-1.028.225-.542.135-1.001.23-1.375.284-.367.051-.746.033-1.138-.054-.39-.097-.747-.307-1.071-.63-.419-.419-.559-.852-.419-1.3.142-.456.568-.854 1.279-1.193zm12.153-2.4c.167.167.299.321.394.462l-4.862 2.319c.532.498 1.089.789 1.671.874s1.121.01 1.618-.227c.436-.208.716-.47.84-.786.132-.319.089-.639-.13-.96l1.399-.667c.264.388.396.78.398 1.177s-.133.776-.406 1.135c-.278.354-.681.657-1.208.909-.612.291-1.256.448-1.934.471-.67.019-1.33-.1-1.981-.356-.651-.255-1.236-.643-1.757-1.164-.515-.515-.831-1.028-.947-1.539-.115-.511-.042-.98.221-1.406.27-.429.711-.79 1.323-1.082.619-.295 1.259-.45 1.922-.465.664-.025 1.295.081 1.892.318.6.227 1.115.556 1.547.987zm-1.346.602c-.308-.331-.65-.566-1.026-.705-.375-.148-.75-.208-1.127-.179-.376.02-.724.107-1.045.26-.512.244-.817.571-.916.981-.098.409.077.861.525 1.355zm6.618-6.514c.551-.262 1.142-.394 1.774-.394.639-.004 1.272.127 1.9.393.628.267 1.2.658 1.715 1.173.521.521.85 1.031.989 1.531s.092.956-.14 1.367c-.225.408-.612.743-1.162 1.005-.574.274-1.174.396-1.8.368-.627-.028-1.203-.187-1.729-.475l1.15 1.149-1.307.624-6.648-6.647 1.308-.624 2.847 2.848c-.205-.442-.215-.87-.032-1.285.184-.415.562-.759 1.135-1.033zm.497 1.09c-.366.175-.626.401-.779.677-.159.27-.196.571-.113.903.077.326.278.65.601.974.329.329.701.576 1.115.742.413.165.834.247 1.262.246.423-.006.817-.097 1.184-.272.581-.277.904-.644.968-1.099.058-.461-.167-.946-.676-1.455-.504-.503-1.078-.817-1.723-.943s-1.258-.05-1.839.227zm3.29-5.31 6.647 6.647-1.307.623-6.647-6.647zm6.106-.498c.611-.292 1.263-.452 1.956-.482s1.369.081 2.027.333 1.245.636 1.76 1.151c.521.521.836 1.039.944 1.553.108.515.019.99-.267 1.427-.285.437-.734.801-1.345 1.093-.612.292-1.264.453-1.957.482-.685.026-1.36-.085-2.027-.333-.664-.258-1.254-.645-1.769-1.16s-.826-1.029-.934-1.544c-.101-.518-.012-.994.266-1.427.286-.437.734-.801 1.346-1.093zm.889.889c-.336.161-.586.368-.749.623s-.207.55-.131.885c.077.326.296.668.655 1.028.365.365.755.63 1.168.795.422.162.834.235 1.236.22.403-.015.772-.103 1.109-.263.336-.161.586-.368.749-.623.163-.254.206-.545.128-.87-.07-.33-.287-.677-.652-1.042-.36-.36-.75-.62-1.171-.782-.42-.171-.831-.249-1.234-.234-.402.015-.772.103-1.108.263zm6.467-4.398c.612-.291 1.264-.452 1.957-.482.692-.03 1.368.081 2.026.333.659.252 1.246.636 1.761 1.151.521.521.835 1.039.943 1.553.108.515.02.99-.266 1.427s-.734.802-1.346 1.093c-.611.292-1.263.453-1.956.482-.685.027-1.361-.085-2.027-.333-.665-.258-1.254-.644-1.769-1.159s-.827-1.03-.935-1.545c-.1-.518-.012-.994.266-1.427.286-.437.735-.801 1.346-1.093zm.889.889c-.336.161-.586.368-.749.623s-.206.55-.131.885c.078.326.296.668.655 1.028.366.365.755.63 1.169.796.421.161.833.235 1.236.219.402-.015.772-.103 1.108-.263s.586-.368.749-.623c.163-.254.206-.544.129-.87-.07-.33-.288-.677-.653-1.042-.359-.359-.75-.62-1.171-.782-.42-.171-.831-.249-1.233-.234-.403.015-.772.103-1.109.263zm4.11-5.688c.765-.365 1.538-.495 2.32-.39s1.46.444 2.035 1.019c.623.623.845 1.212.665 1.766-.178.545-.685 1.026-1.521 1.442l.988.988-1.238.591-1.671-1.671.55-.262c.665-.318 1.105-.651 1.32-1.001.208-.356.082-.765-.379-1.226-.312-.311-.669-.499-1.072-.563-.409-.07-.808-.013-1.198.173-.413.197-.653.449-.719.755-.067.306.05.608.349.908l-1.25.596c-.367-.356-.581-.723-.642-1.1-.068-.384.023-.75.273-1.099.243-.355.64-.663 1.19-.926zm5.424 5.559 1.132 1.132-1.491.711-1.132-1.132z" fill="#94a2ab"/><rect fill="#94a2ab" height="8.46882" rx="4.23441" transform="matrix(.902585 -.430511 .707107 .707107 493.336 698.754)" width="101.626"/><g clip-path="url(#e)"><path d="m0 0h264.651v67.7506h-264.651z" fill="#fff" transform="matrix(.902585 -.430511 .707107 .707107 -12 375.934)"/><g clip-path="url(#f)"><path d="m32.2852 393.875 10.1917-4.861m-6.6985 8.354 10.1917-4.861m-6.6985 8.354 10.1918-4.861" stroke="#94a2ab" stroke-linecap="round" stroke-linejoin="round" stroke-width="2.11721"/></g><rect fill="#94a2ab" height="8.46882" rx="4.23441" transform="matrix(.902585 -.430511 .707107 .707107 55.7148 383.434)" width="70.5735"/><g clip-path="url(#g)"><circle r="7.41022" stroke="#94a2ab" stroke-width="2.11721" transform="matrix(.902585 -.430511 .707107 .707107 208.397 315.03)"/></g><g clip-path="url(#h)"><circle r="7.41022" stroke="#94a2ab" stroke-width="2.11721" transform="matrix(.902585 -.430511 .707107 .707107 233.885 302.874)"/></g></g><path d="m0 0h264.651v33.8753h-264.651z" fill="#fff" transform="matrix(.902585 -.430511 .707107 .707107 142.203 530.133)"/><rect fill="#94a2ab" height="12.7032" rx="6.35162" transform="matrix(.902585 -.430511 .707107 .707107 164.977 530.328)" width="116.446"/><g clip-path="url(#i)"><path d="m372.474 443.729 1.073-6.245-8.836-1.518" stroke="#94a2ab" stroke-linecap="round" stroke-linejoin="round" stroke-width="2.11721"/></g><g filter="url(#a)"><rect fill="#fe6c66" height="133.384" rx="16.9376" transform="matrix(.902585 -.430511 .707107 .707107 55.5312 420.738)" width="230.775"/><path clip-rule="evenodd" d="m184.668 405.454c-2.932 1.399-3.447 4.394-1.15 6.691s6.535 3.025 9.467 1.627c2.932-1.399 3.446-4.394 1.15-6.691-2.297-2.297-6.536-3.025-9.467-1.627zm-3.273 7.704c-3.216-3.216-2.495-7.409 1.609-9.367 4.105-1.958 10.038-.938 13.254 2.277 3.215 3.216 2.495 7.409-1.61 9.367-4.104 1.958-10.038.938-13.253-2.277zm30.913-3.899c-.859-.287-1.762.081-1.791.73l-.689 15.391c-.012.268-.18.507-.463.659-.284.153-.657.205-1.03.145l-12.815-2.079c-.839-.136-1.554.3-1.49.909l1.598 15.07c.082.777 1.328 1.276 2.176.871l43.102-20.558c.84-.401.62-1.371-.388-1.708zm-4.487.44c.087-1.949 2.796-3.053 5.374-2.192l28.209 9.431c3.024 1.01 3.686 3.92 1.166 5.122l-43.103 20.559c-2.543 1.213-6.282-.284-6.529-2.616l-1.597-15.069c-.194-1.826 1.952-3.136 4.468-2.728l11.369 1.845z" fill="#ffaeab" fill-rule="evenodd"/></g><g clip-path="url(#j)"><circle fill="#ffaeab" r="4.23441" transform="matrix(.902585 -.430511 .707107 .707107 231.519 461.394)"/><g stroke="#ffaeab" stroke-width="1.41147"><circle r="3.52868" transform="matrix(.902585 -.430511 .707107 .707107 244.258 455.32)"/><circle r="3.52868" transform="matrix(.902585 -.430511 .707107 .707107 256.996 449.242)"/></g></g></g><g clip-path="url(#k)"><rect fill="#fff" height="573.481" rx="28.2503" transform="matrix(.902585 -.430511 .707107 .707107 150.652 139.02)" width="264.846"/><g clip-path="url(#l)"><path d="m0 0h264.846v64.9757h-264.846z" fill="#fff" transform="matrix(.902585 -.430511 .707107 .707107 150.652 139.02)"/><rect fill="#dfe6ec" height="8.47509" rx="4.23754" transform="matrix(.902585 -.430511 .707107 .707107 189.922 155.695)" width="25.4253"/><rect fill="#94a2ab" height="8.47509" rx="4.23754" transform="matrix(.902585 -.430511 .707107 .707107 261.957 121.336)" width="71.332"/><rect fill="#dfe6ec" height="8.47509" rx="4.23754" transform="matrix(.902585 -.430511 .707107 .707107 375.422 67.2148)" width="25.4253"/></g><path d="m0 0h264.846v103.114h-264.846z" fill="#fff" transform="matrix(.902585 -.430511 .707107 .707107 386.371 374.738)"/><rect fill="#f3f5f8" height="69.2132" rx="11.3001" transform="matrix(.902585 -.430511 .707107 .707107 413.656 379.426)" width="69.2132"/><path clip-rule="evenodd" d="m458.263 382.609c-1.467.7-1.724 2.199-.575 3.348s3.27 1.514 4.737.814 1.724-2.198.575-3.348c-1.149-1.149-3.27-1.513-4.737-.814zm-1.638 3.855c-1.608-1.609-1.248-3.707.806-4.687 2.053-.98 5.023-.469 6.631 1.14 1.609 1.608 1.249 3.707-.805 4.686-2.054.98-5.023.47-6.632-1.139zm15.469-1.951c-.43-.144-.882.04-.897.365l-.345 7.701c-.006.134-.09.254-.231.33-.142.077-.329.103-.515.073l-6.413-1.041c-.42-.068-.778.151-.745.455l.799 7.541c.041.389.665.638 1.089.436l21.567-10.287c.42-.201.31-.686-.194-.854zm-2.246.22c.044-.975 1.399-1.528 2.689-1.096l14.115 4.718c1.513.506 1.844 1.962.584 2.563l-21.568 10.287c-1.272.607-3.143-.142-3.267-1.308l-.799-7.541c-.097-.914.977-1.569 2.236-1.364l5.689.922z" fill="#94a2ab" fill-rule="evenodd"/><circle fill="#dfe6ec" r="5.65006" transform="matrix(.902585 -.430511 .707107 .707107 495.368 350.039)"/><rect fill="#dfe6ec" height="5.65006" rx="2.82503" transform="matrix(.902585 -.430511 .707107 .707107 503.562 343.176)" width="31.7816"/><rect fill="#94a2ab" height="8.47509" rx="4.23754" transform="matrix(.902585 -.430511 .707107 .707107 500.258 362.461)" width="101.701"/><rect fill="#f3f5f8" height="8.47509" rx="4.23754" transform="matrix(.902585 -.430511 .707107 .707107 512.242 374.445)" width="72.0382"/><rect fill="#f3f5f8" height="8.47509" rx="4.23754" transform="matrix(.902585 -.430511 .707107 .707107 524.227 386.43)" width="115.12"/><path d="m0 0h264.846v103.114h-264.846z" fill="#fff" transform="matrix(.902585 -.430511 .707107 .707107 309.465 297.828)"/><circle fill="#dfe6ec" r="5.65006" transform="matrix(.902585 -.430511 .707107 .707107 348.341 306.574)"/><rect fill="#dfe6ec" height="5.65006" rx="2.82503" transform="matrix(.902585 -.430511 .707107 .707107 356.543 299.711)" width="31.7816"/><rect fill="#94a2ab" height="8.47509" rx="4.23754" transform="matrix(.902585 -.430511 .707107 .707107 353.23 318.996)" width="101.701"/><g fill="#f3f5f8"><rect height="8.47509" rx="4.23754" transform="matrix(.902585 -.430511 .707107 .707107 365.215 330.98)" width="72.0382"/><rect height="8.47509" rx="4.23754" transform="matrix(.902585 -.430511 .707107 .707107 377.199 342.965)" width="115.12"/><rect height="69.2132" rx="11.3001" transform="matrix(.902585 -.430511 .707107 .707107 482.727 232.891)" width="69.2132"/></g><path clip-rule="evenodd" d="m527.333 236.078c-1.466.7-1.724 2.199-.575 3.348s3.27 1.513 4.737.814c1.467-.7 1.725-2.199.575-3.348-1.149-1.149-3.27-1.514-4.737-.814zm-1.637 3.855c-1.609-1.609-1.249-3.708.805-4.687 2.054-.98 5.023-.47 6.632 1.139s1.248 3.708-.806 4.687c-2.053.98-5.022.469-6.631-1.139zm15.468-1.951c-.43-.144-.882.04-.896.365l-.345 7.701c-.006.134-.09.254-.232.33s-.328.103-.515.072l-6.413-1.04c-.419-.068-.777.15-.745.455l.799 7.54c.042.389.665.639 1.089.437l21.568-10.287c.42-.201.309-.686-.195-.855zm-2.245.22c.043-.975 1.399-1.528 2.689-1.097l14.115 4.719c1.512.506 1.844 1.962.583 2.563l-21.567 10.287c-1.273.607-3.144-.142-3.267-1.309l-.8-7.54c-.096-.914.977-1.569 2.236-1.365l5.689.923z" fill="#94a2ab" fill-rule="evenodd"/><path d="m0 0h264.846v103.114h-264.846z" fill="#fff" transform="matrix(.902585 -.430511 .707107 .707107 540.184 528.551)"/><rect fill="#f3f5f8" height="69.2132" rx="11.3001" transform="matrix(.902585 -.430511 .707107 .707107 567.469 533.238)" width="69.2132"/><g clip-path="url(#m)"><path d="m273.146 189.072c.666.114 1.272-.174 1.353-.645s-.394-.945-1.06-1.059zm-11.349-7.17c2.896 2.896 2.247 6.673-1.45 8.436l1.498 1.498c4.753-2.267 5.587-7.123 1.864-10.847zm-1.45 8.436c-3.697 1.763-9.041.845-11.937-2.051l-1.912.912c3.723 3.723 10.594 4.904 15.347 2.637zm-11.937-2.051c-2.896-2.896-2.247-6.673 1.45-8.437l-1.499-1.498c-4.752 2.267-5.587 7.123-1.863 10.847zm1.45-8.437c3.696-1.763 9.041-.844 11.937 2.052l1.912-.913c-3.724-3.723-10.595-4.904-15.348-2.637zm14.743 7.754 8.543 1.468.293-1.704-8.543-1.468z" fill="#94a2ab"/></g><rect fill="#94a2ab" height="8.47509" rx="4.23754" transform="matrix(.902585 -.430511 .707107 .707107 274.777 172.754)" width="91.8134"/><rect height="43.7879" rx="10.5939" stroke="#94a2ab" stroke-opacity=".3" stroke-width="1.41251" transform="matrix(.902585 -.430511 .707107 .707107 215.867 182.211)" width="229.534" x="1.13686" y=".195348"/><path d="m0 0h264.846v103.114h-264.846z" fill="#fff" transform="matrix(.902585 -.430511 .707107 .707107 232.559 220.922)"/><g filter="url(#b)"><rect fill="#2cc1ff" height="69.2132" rx="11.3001" transform="matrix(.902585 -.430511 .707107 .707107 259.844 225.609)" width="69.2132"/><path clip-rule="evenodd" d="m304.458 228.797c-1.466.7-1.724 2.198-.575 3.348 1.149 1.149 3.27 1.513 4.737.814 1.467-.7 1.725-2.199.575-3.348-1.149-1.149-3.27-1.514-4.737-.814zm-1.637 3.854c-1.609-1.609-1.249-3.707.805-4.686 2.054-.98 5.023-.47 6.632 1.139s1.248 3.707-.806 4.687c-2.053.979-5.022.469-6.631-1.14zm15.468-1.951c-.43-.143-.882.041-.896.366l-.345 7.701c-.006.134-.09.254-.232.33s-.328.102-.515.072l-6.413-1.04c-.419-.068-.777.15-.745.455l.799 7.54c.042.389.665.639 1.089.436l21.568-10.287c.42-.2.309-.685-.195-.854zm-2.245.221c.043-.975 1.399-1.528 2.689-1.097l14.115 4.719c1.512.505 1.844 1.961.583 2.563l-21.567 10.287c-1.273.607-3.144-.142-3.267-1.309l-.8-7.54c-.096-.914.977-1.569 2.236-1.365l5.689.923z" fill="#cbf0ff" fill-rule="evenodd"/></g><circle fill="#dfe6ec" r="5.65006" transform="matrix(.902585 -.430511 .707107 .707107 341.556 196.223)"/><rect fill="#dfe6ec" height="5.65006" rx="2.82503" transform="matrix(.902585 -.430511 .707107 .707107 349.758 189.359)" width="31.7816"/><rect fill="#94a2ab" height="8.47509" rx="4.23754" transform="matrix(.902585 -.430511 .707107 .707107 346.445 208.645)" width="101.701"/><rect fill="#f3f5f8" height="8.47509" rx="4.23754" transform="matrix(.902585 -.430511 .707107 .707107 358.43 220.629)" width="72.0382"/><rect fill="#f3f5f8" height="8.47509" rx="4.23754" transform="matrix(.902585 -.430511 .707107 .707107 370.414 232.617)" width="115.12"/><path d="m0 0h264.846v103.114h-264.846z" fill="#fff" transform="matrix(.902585 -.430511 .707107 .707107 463.281 451.648)"/><circle fill="#dfe6ec" r="5.65006" transform="matrix(.902585 -.430511 .707107 .707107 502.157 460.395)"/><rect fill="#dfe6ec" height="5.65006" rx="2.82503" transform="matrix(.902585 -.430511 .707107 .707107 510.359 453.531)" width="31.7816"/><rect fill="#94a2ab" height="8.47509" rx="4.23754" transform="matrix(.902585 -.430511 .707107 .707107 507.047 472.816)" width="101.701"/><rect fill="#f3f5f8" height="8.47509" rx="4.23754" transform="matrix(.902585 -.430511 .707107 .707107 519.031 484.801)" width="72.0382"/><rect fill="#f3f5f8" height="8.47509" rx="4.23754" transform="matrix(.902585 -.430511 .707107 .707107 531.016 496.785)" width="115.12"/><g filter="url(#c)"><rect fill="#fe6c66" height="69.2132" rx="11.3001" transform="matrix(.902585 -.430511 .707107 .707107 636.543 386.711)" width="69.2132"/></g></g></g></svg>