<svg fill="none" height="454" viewBox="0 0 740 454" width="740" xmlns="http://www.w3.org/2000/svg" xmlns:xlink="http://www.w3.org/1999/xlink"><filter id="a" color-interpolation-filters="sRGB" filterUnits="userSpaceOnUse" height="189.018" width="227.816" x="63.7693" y="132.193"><feFlood flood-opacity="0" result="BackgroundImageFix"/><feColorMatrix in="SourceAlpha" type="matrix" values="0 0 0 0 0 0 0 0 0 0 0 0 0 0 0 0 0 0 127 0"/><feOffset dy="21.4819"/><feGaussianBlur stdDeviation="23.1779"/><feColorMatrix type="matrix" values="0 0 0 0 0.172549 0 0 0 0 0.756863 0 0 0 0 1 0 0 0 0.5 0"/><feBlend in2="BackgroundImageFix" mode="normal" result="effect1_dropShadow"/><feBlend in="SourceGraphic" in2="effect1_dropShadow" mode="normal" result="shape"/></filter><filter id="b" color-interpolation-filters="sRGB" filterUnits="userSpaceOnUse" height="196.601" width="257.613" x="372.254" y="76.4035"><feFlood flood-opacity="0" result="BackgroundImageFix"/><feColorMatrix in="SourceAlpha" type="matrix" values="0 0 0 0 0 0 0 0 0 0 0 0 0 0 0 0 0 0 127 0"/><feOffset dy="21.4819"/><feGaussianBlur stdDeviation="23.1779"/><feColorMatrix type="matrix" values="0 0 0 0 0.996078 0 0 0 0 0.423529 0 0 0 0 0.4 0 0 0 0.5 0"/><feBlend in2="BackgroundImageFix" mode="normal" result="effect1_dropShadow"/><feBlend in="SourceGraphic" in2="effect1_dropShadow" mode="normal" result="shape"/></filter><clipPath id="c"><path d="m0 0h740v454h-740z"/></clipPath><clipPath id="d"><rect height="538.179" rx="26.5113" transform="matrix(.902585 -.430511 .707107 .707107 -55 172.227)" width="248.543"/></clipPath><clipPath id="e"><path d="m0 0h39.7669v39.7669h-39.7669z" transform="matrix(.902585 -.430511 .707107 .707107 106.824 307.547)"/></clipPath><clipPath id="f"><path d="m0 0h248.543v90.1383h-248.543z" transform="matrix(.902585 -.430511 .707107 .707107 -55 172.227)"/></clipPath><clipPath id="g"><path d="m0 0h39.7669v39.7669h-39.7669z" transform="matrix(.902585 -.430511 .707107 .707107 155.566 356.289)"/></clipPath><clipPath id="h"><path d="m0 0h39.7669v39.7669h-39.7669z" transform="matrix(.902585 -.430511 .707107 .707107 204.305 405.027)"/></clipPath><clipPath id="i"><path d="m0 0h39.7669v39.7669h-39.7669z" transform="matrix(.902585 -.430511 .707107 .707107 253.043 453.766)"/></clipPath><clipPath id="j"><path d="m0 0h248.543v71.5804h-248.543z" transform="matrix(.902585 -.430511 .707107 .707107 274.934 502.16)"/></clipPath><clipPath id="k"><path d="m0 0h15.9068v15.9068h-15.9068z" transform="matrix(.902585 -.430511 .707107 .707107 418.484 450.297)"/></clipPath><clipPath id="l"><path d="m0 0h15.9068v15.9068h-15.9068z" transform="matrix(.902585 -.430511 .707107 .707107 473.121 424.238)"/></clipPath><clipPath id="m"><rect height="538.179" rx="26.5113" transform="matrix(.902585 -.430511 .707107 .707107 269.812 124.754)" width="248.543"/></clipPath><clipPath id="n"><path d="m0 0h248.543v223.357h-248.543z" transform="matrix(.902585 -.430511 .707107 .707107 356.047 210.984)"/></clipPath><clipPath id="o"><path d="m0 0h248.543v63.627h-248.543z" transform="matrix(.902585 -.430511 .707107 .707107 269.812 124.754)"/></clipPath><clipPath id="p"><path d="m0 0h15.9068v15.9068h-15.9068z" transform="matrix(.902585 -.430511 .707107 .707107 306.664 140.402)"/></clipPath><clipPath id="q"><path d="m0 0h15.9068v15.9068h-15.9068z" transform="matrix(.902585 -.430511 .707107 .707107 487.926 53.9453)"/></clipPath><clipPath id="r"><path d="m0 0h14.8238v14.8238h-14.8238z" transform="matrix(.707107 .707107 -.902585 .430511 378.164 48.2188)"/></clipPath><mask id="s" height="454" maskUnits="userSpaceOnUse" width="740" x="0" y="0"><path d="m0 0h740v454h-740z" fill="#fff"/></mask><g clip-path="url(#c)"><g mask="url(#s)"><g clip-path="url(#d)"><rect fill="#fff" height="538.179" rx="26.5113" transform="matrix(.902585 -.430511 .707107 .707107 -55 172.227)" width="248.543"/><path d="m0 0h248.543v68.9293h-248.543z" fill="#fff" transform="matrix(.902585 -.430511 .707107 .707107 78.5664 305.793)"/><rect fill="#f3f5f8" height="47.7203" rx="23.8601" transform="matrix(.902585 -.430511 .707107 .707107 100.422 306.445)" width="47.7203"/><g clip-path="url(#e)" fill="#94a2ab"><path clip-rule="evenodd" d="m125.039 308.092c-.826.394-.971 1.238-.324 1.885l13.279 13.279c.647.647 1.841.852 2.667.458l11.965-5.707c.826-.394.971-1.237.323-1.885l-8.201-8.201-5.484 2.616c-1.376.656-3.367.314-4.445-.764l-4.296-4.296zm7.033-2.539 11.19 1.923-4.779 2.279c-.826.394-2.02.189-2.667-.458zm-8.354 4.9c-1.078-1.079-.836-2.485.54-3.142l5.982-2.853c.133-.063.301-.083.467-.054l14.225 2.444c.167.029.319.103.422.207l8.592 8.592c1.079 1.078.837 2.485-.539 3.142l-11.965 5.706c-1.376.657-3.367.315-4.445-.764z" fill-rule="evenodd"/><path d="m137.08 317.924c-.216-.216-.168-.497.108-.629l4.985-2.377c.275-.132.673-.063.889.152.215.216.167.497-.108.629l-4.985 2.377c-.276.132-.674.063-.889-.152z"/><path d="m139.423 320.267c-.216-.216-.167-.497.108-.628l7.976-3.805c.275-.131.673-.063.889.153s.168.497-.108.628l-7.976 3.805c-.275.131-.673.063-.889-.153z"/></g><rect fill="#94a2ab" height="11.9301" rx="5.96503" transform="matrix(.902585 -.430511 .707107 .707107 164.879 286.082)" width="109.359"/><rect fill="#f3f5f8" height="7.95338" rx="3.97669" transform="matrix(.902585 -.430511 .707107 .707107 178.938 300.141)" width="70.2549"/><g clip-path="url(#f)"><path d="m0 0h248.543v90.1383h-248.543z" fill="#fff" transform="matrix(.902585 -.430511 .707107 .707107 -55 172.227)"/><rect fill="#94a2ab" height="11.9301" rx="5.96503" transform="matrix(.902585 -.430511 .707107 .707107 -12.5234 193.496)" width="79.5338"/><rect fill="#dfe6ec" height="11.9301" rx="5.96503" transform="matrix(.902585 -.430511 .707107 .707107 3.41016 209.434)" width="160.393"/></g><path d="m0 0h248.543v68.9293h-248.543z" fill="#fff" transform="matrix(.902585 -.430511 .707107 .707107 127.309 354.535)"/><rect fill="#f3f5f8" height="47.7203" rx="23.8601" transform="matrix(.902585 -.430511 .707107 .707107 149.164 355.188)" width="47.7203"/><g clip-path="url(#g)" fill="#94a2ab"><path clip-rule="evenodd" d="m173.781 356.83c-.825.394-.971 1.238-.323 1.885l13.278 13.279c.647.647 1.841.852 2.667.458l11.965-5.706c.826-.394.971-1.238.324-1.885l-8.202-8.202-5.484 2.616c-1.376.656-3.366.314-4.445-.764l-4.296-4.296zm7.033-2.538 11.19 1.922-4.779 2.28c-.826.394-2.02.188-2.667-.459zm-8.353 4.899c-1.079-1.078-.837-2.485.539-3.142l5.983-2.853c.132-.063.3-.082.466-.054l14.225 2.445c.167.028.319.103.423.206l8.592 8.592c1.078 1.079.836 2.485-.54 3.142l-11.965 5.706c-1.376.657-3.366.315-4.445-.763z" fill-rule="evenodd"/><path d="m185.822 366.662c-.216-.216-.168-.497.108-.628l4.985-2.378c.275-.132.673-.063.889.153.216.215.167.497-.108.628l-4.985 2.378c-.275.131-.673.063-.889-.153z"/><path d="m188.165 369.005c-.216-.215-.167-.497.108-.628l7.976-3.805c.276-.131.674-.062.889.153.216.216.168.497-.108.629l-7.976 3.804c-.275.131-.673.063-.889-.153z"/></g><rect fill="#94a2ab" height="11.9301" rx="5.96503" transform="matrix(.902585 -.430511 .707107 .707107 213.625 334.824)" width="109.359"/><rect fill="#f3f5f8" height="7.95338" rx="3.97669" transform="matrix(.902585 -.430511 .707107 .707107 227.68 348.883)" width="70.2549"/><path d="m0 0h248.543v68.9293h-248.543z" fill="#fff" transform="matrix(.902585 -.430511 .707107 .707107 176.047 403.273)"/><rect fill="#f3f5f8" height="47.7203" rx="23.8601" transform="matrix(.902585 -.430511 .707107 .707107 197.902 403.926)" width="47.7203"/><g clip-path="url(#h)" fill="#94a2ab"><path clip-rule="evenodd" d="m222.52 405.573c-.826.394-.971 1.238-.324 1.885l13.278 13.278c.648.647 1.842.853 2.668.459l11.964-5.707c.826-.394.971-1.238.324-1.885l-8.202-8.202-5.483 2.616c-1.377.657-3.367.315-4.446-.764l-4.296-4.296zm7.033-2.539 11.189 1.923-4.778 2.279c-.826.394-2.02.189-2.668-.458zm-8.354 4.899c-1.079-1.078-.837-2.485.54-3.141l5.982-2.854c.132-.063.3-.082.467-.054l14.225 2.445c.166.028.318.103.422.206l8.592 8.592c1.078 1.079.837 2.485-.54 3.142l-11.964 5.707c-1.377.656-3.367.314-4.446-.764z" fill-rule="evenodd"/><path d="m234.56 415.404c-.216-.216-.167-.497.108-.628l4.985-2.378c.276-.131.674-.063.889.153.216.215.168.497-.108.628l-4.985 2.378c-.275.131-.673.063-.889-.153z"/><path d="m236.903 417.747c-.215-.215-.167-.497.108-.628l7.977-3.804c.275-.132.673-.063.889.152.215.216.167.497-.108.629l-7.977 3.804c-.275.132-.673.063-.889-.153z"/></g><rect fill="#94a2ab" height="11.9301" rx="5.96503" transform="matrix(.902585 -.430511 .707107 .707107 262.359 383.562)" width="109.359"/><rect fill="#f3f5f8" height="7.95338" rx="3.97669" transform="matrix(.902585 -.430511 .707107 .707107 276.418 397.621)" width="70.2549"/><path d="m0 0h248.543v68.9293h-248.543z" fill="#fff" transform="matrix(.902585 -.430511 .707107 .707107 224.785 452.012)"/><rect fill="#f3f5f8" height="47.7203" rx="23.8601" transform="matrix(.902585 -.430511 .707107 .707107 246.641 452.664)" width="47.7203"/><g clip-path="url(#i)" fill="#94a2ab"><path clip-rule="evenodd" d="m271.258 454.307c-.826.394-.971 1.238-.324 1.885l13.279 13.279c.647.647 1.841.852 2.667.458l11.964-5.707c.826-.394.971-1.238.324-1.885l-8.201-8.201-5.484 2.615c-1.377.657-3.367.315-4.445-.763l-4.296-4.297zm7.033-2.539 11.19 1.923-4.779 2.279c-.826.394-2.02.189-2.667-.458zm-8.354 4.9c-1.078-1.079-.837-2.485.54-3.142l5.982-2.853c.132-.063.3-.083.467-.054l14.225 2.444c.167.029.319.103.422.207l8.592 8.592c1.079 1.078.837 2.485-.54 3.141l-11.964 5.707c-1.377.657-3.367.315-4.445-.764z" fill-rule="evenodd"/><path d="m283.298 464.138c-.215-.215-.167-.497.108-.628l4.985-2.378c.276-.131.674-.063.89.153.215.216.167.497-.108.628l-4.986 2.378c-.275.132-.673.063-.889-.153z"/><path d="m285.642 466.482c-.216-.216-.168-.497.108-.629l7.976-3.804c.275-.131.673-.063.889.153.216.215.167.497-.108.628l-7.976 3.805c-.276.131-.674.062-.889-.153z"/></g><rect fill="#94a2ab" height="11.9301" rx="5.96503" transform="matrix(.902585 -.430511 .707107 .707107 311.102 432.301)" width="109.359"/><rect fill="#f3f5f8" height="7.95338" rx="3.97669" transform="matrix(.902585 -.430511 .707107 .707107 325.156 446.359)" width="70.2549"/><g clip-path="url(#j)"><path d="m0 0h248.543v71.5804h-248.543z" fill="#fff" transform="matrix(.902585 -.430511 .707107 .707107 274.934 502.16)"/><g clip-path="url(#k)"><circle fill="#94a2ab" r="6.95921" stroke="#94a2ab" stroke-width="1.98834" transform="matrix(.902585 -.430511 .707107 .707107 431.284 452.499)"/></g><g clip-path="url(#l)"><circle r="6.95921" stroke="#94a2ab" stroke-width="1.98834" transform="matrix(.902585 -.430511 .707107 .707107 485.925 426.437)"/></g><rect fill="#dfe6ec" height="5.30225" rx="2.65113" transform="matrix(.902585 -.430511 .707107 .707107 488.199 441.969)" width="19.8834"/></g><rect fill="#f3f5f8" height="86.1616" rx="7.95338" transform="matrix(.902585 -.430511 .707107 .707107 26.375 232.395)" width="82.1849"/><g fill="#94a2ab"><path clip-rule="evenodd" d="m81.7602 244.053c-1.0784-1.078-.8367-2.485.5399-3.141l3.4183-1.631c.5723-.273 1.3503-.266 2.0039.018l1.9519.847c.2178.095.4772.097.6679.006l6.0052-2.864c1.3766-.657 3.3669-.315 4.4457.764l4.165 4.166c1.079 1.078.837 2.485-.539 3.141l-.499.238.391.391c1.078 1.078.836 2.485-.54 3.141l-11.9645 5.707c-1.3766.657-3.3668.315-4.4453-.764l-6.2488-6.249c-1.0784-1.078-.8367-2.485.5399-3.141l.4985-.238zm.6732 1.41c-.826.394-.971 1.238-.3239 1.885l6.2487 6.249c.6471.647 1.8412.852 2.6672.458l11.9646-5.707c.826-.394.971-1.238.324-1.885l-4.1662-4.166c-.6471-.647-1.8412-.852-2.6672-.458l-6.0052 2.864c-.5723.273-1.3503.267-2.0039-.017l-1.9519-.848c-.2178-.094-.4772-.097-.6679-.006zm20.7056-.647-2.994-2.994c-1.0786-1.079-3.0689-1.421-4.4455-.764l-6.0052 2.864c-.1907.091-.4501.089-.6679-.006l-1.9519-.847c-.6536-.284-1.4316-.291-2.0039-.018l-1.9228.917-.3905-.39c-.6471-.647-.5021-1.491.3239-1.885l3.4183-1.631c.1907-.091.4501-.088.6679.006l1.9519.848c.6536.284 1.4316.29 2.0039.017l6.0052-2.864c.826-.394 2.0201-.189 2.6672.458l4.1654 4.166c.648.647.503 1.491-.323 1.885z" fill-rule="evenodd"/><path d="m100.04 246.871c.431.431.335.994-.2159 1.257-.5507.262-1.3468.126-1.7782-.306-.4314-.431-.3347-.994.216-1.257.5506-.262 1.3467-.125 1.7781.306z"/><path d="m97.0489 248.298c.4314.431.3347.994-.2159 1.256-.5507.263-1.3468.126-1.7782-.305-.4313-.432-.3347-.994.216-1.257.5506-.263 1.3467-.126 1.7781.306z"/></g><rect fill="#f3f5f8" height="86.1616" rx="7.95338" transform="matrix(.902585 -.430511 .707107 .707107 193.879 152.5)" width="82.1849"/><path clip-rule="evenodd" d="m249.268 164.155c-1.078-1.078-.837-2.485.54-3.142l3.418-1.63c.572-.273 1.351-.266 2.004.018l1.952.847c.218.095.477.097.668.006l6.005-2.864c1.377-.657 3.367-.315 4.445.763l4.166 4.166c1.079 1.079.837 2.485-.54 3.142l-.498.238.39.39c1.079 1.079.837 2.485-.539 3.142l-11.965 5.707c-1.376.656-3.367.314-4.445-.764l-6.249-6.249c-1.078-1.079-.837-2.485.54-3.142l.499-.237zm.673 1.409c-.826.394-.971 1.238-.324 1.885l6.249 6.249c.647.647 1.841.852 2.667.458l11.965-5.706c.826-.394.971-1.238.323-1.885l-4.165-4.166c-.647-.647-1.842-.852-2.668-.458l-6.005 2.864c-.572.273-1.35.266-2.004-.018l-1.952-.847c-.217-.095-.477-.097-.668-.006zm20.706-.646-2.994-2.995c-1.079-1.078-3.069-1.42-4.446-.763l-6.005 2.864c-.191.091-.45.089-.668-.006l-1.952-.848c-.653-.283-1.431-.29-2.004-.017l-1.922.917-.391-.391c-.647-.647-.502-1.491.324-1.885l3.418-1.63c.191-.091.45-.089.668.006l1.952.847c.654.284 1.432.291 2.004.018l6.005-2.864c.826-.394 2.02-.189 2.667.458l4.166 4.166c.647.647.502 1.491-.324 1.885z" fill="#94a2ab" fill-rule="evenodd"/><path d="m267.548 166.973c.431.431.335.994-.216 1.256-.551.263-1.347.126-1.778-.305-.432-.432-.335-.994.216-1.257.55-.263 1.346-.126 1.778.306z" fill="#94a2ab"/><path d="m264.557 168.399c.431.432.334.994-.216 1.257-.551.263-1.347.126-1.778-.306-.432-.431-.335-.994.216-1.256.55-.263 1.346-.126 1.778.305z" fill="#94a2ab"/><g filter="url(#a)"><rect fill="#2cc1ff" height="86.1616" rx="7.95338" transform="matrix(.902585 -.430511 .707107 .707107 110.125 192.449)" width="82.1849"/><g fill="#fff"><path clip-rule="evenodd" d="m165.514 204.104c-1.078-1.078-.837-2.485.54-3.141l3.418-1.631c.573-.273 1.351-.266 2.004.018l1.952.847c.218.095.477.097.668.006l6.005-2.864c1.377-.657 3.367-.315 4.446.764l4.165 4.165c1.079 1.079.837 2.485-.539 3.142l-.499.238.391.39c1.078 1.079.836 2.485-.54 3.142l-11.965 5.707c-1.376.656-3.366.314-4.445-.764l-6.249-6.249c-1.078-1.078-.836-2.485.54-3.141l.499-.238zm.673 1.41c-.826.394-.971 1.238-.324 1.885l6.249 6.248c.647.647 1.841.853 2.667.459l11.965-5.707c.826-.394.971-1.238.324-1.885l-4.166-4.166c-.647-.647-1.842-.852-2.667-.458l-6.006 2.864c-.572.273-1.35.266-2.004-.017l-1.951-.848c-.218-.095-.478-.097-.668-.006zm20.706-.647-2.994-2.994c-1.079-1.079-3.069-1.421-4.446-.764l-6.005 2.864c-.191.091-.45.089-.668-.006l-1.952-.847c-.653-.284-1.431-.291-2.004-.018l-1.922.917-.391-.39c-.647-.647-.502-1.491.324-1.885l3.418-1.631c.191-.091.45-.089.668.006l1.952.848c.654.283 1.432.29 2.004.017l6.005-2.864c.826-.394 2.02-.189 2.668.458l4.165 4.166c.647.647.502 1.491-.324 1.885z" fill-rule="evenodd"/><path d="m183.794 206.922c.431.431.335.994-.216 1.256-.551.263-1.347.126-1.778-.305-.432-.431-.335-.994.216-1.257.55-.262 1.347-.126 1.778.306z"/><path d="m180.803 208.348c.431.432.335.994-.216 1.257s-1.347.126-1.778-.305c-.432-.432-.335-.994.216-1.257.55-.263 1.346-.126 1.778.305z"/></g></g></g><rect height="536.853" rx="25.8485" stroke="#94a2ab" stroke-opacity=".3" stroke-width="1.32556" transform="matrix(.902585 -.430511 .707107 .707107 -55.0257 172.74)" width="247.218" x="1.06687" y=".183323"/><g clip-path="url(#m)"><rect fill="#fff" height="538.179" rx="26.5113" transform="matrix(.902585 -.430511 .707107 .707107 269.812 124.754)" width="248.543"/><g clip-path="url(#n)"><path d="m0 0h248.543v223.357h-248.543z" fill="#fff" transform="matrix(.902585 -.430511 .707107 .707107 356.047 210.984)"/><path d="m388.687 243.628c2.086-9.279 17.963-24.86 42.772-20.401 31.013 5.574 120.431 53.723 152.617 38.371s1.356-79.71 48.015-106.781" stroke="#dfe6ec" stroke-linecap="round" stroke-linejoin="round" stroke-width="2.65113"/><path d="m426.781 281.723c.407-16.76 21.524-55.335 50.525-63.105 47.887-12.831 124.188 26.371 157.798 10.339 19.968-9.524 19.089-31.221 21.047-50.08" stroke="#f3f5f8" stroke-linecap="round" stroke-linejoin="round" stroke-width="2.65113"/><path d="m475.625 330.567c11.218.862 44.298 8.211 42.357-30.559-1.942-38.77-15.069-106.033 17.112-121.382 26.851-12.808 60.411-.855 85.777-35.029" stroke="#94a2ab" stroke-linecap="round" stroke-linejoin="round" stroke-width="2.65113"/><g fill="#94a2ab"><circle r="5.30225" stroke="#94a2ab" stroke-width="1.32556" transform="matrix(.902585 -.430511 .707107 .707107 533.18 180.482)"/><path d="m525.631 342.05c.293.292.476.608.549.947.068.333-.005.662-.219.989-.215.326-.587.616-1.118.87-.517.246-1.051.397-1.6.451-.556.049-1.085.003-1.588-.14-.502-.142-.941-.373-1.314-.694l1.314-.626c.294.241.657.397 1.086.466.437.066.864-.001 1.28-.199.373-.178.582-.394.625-.647.051-.257-.047-.509-.295-.757-.214-.213-.463-.352-.749-.415-.291-.069-.588-.089-.889-.062-.301.028-.696.083-1.185.167-.592.108-1.098.174-1.517.2-.413.022-.836-.029-1.269-.155s-.832-.371-1.198-.737c-.32-.32-.501-.649-.542-.987s.061-.66.305-.968c.238-.313.601-.586 1.089-.819.776-.369 1.536-.516 2.28-.439.752.073 1.397.331 1.934.772l-1.325.632c-.275-.201-.602-.327-.982-.379-.379-.06-.758.001-1.139.182-.344.164-.551.367-.618.606-.073.235.019.481.278.74.203.202.443.337.722.403.273.061.556.08.85.056.296-.033.685-.09 1.166-.17.599-.112 1.111-.177 1.537-.197.426-.029.859.022 1.298.153.446.128.857.38 1.234.757z"/><path d="m552.956 322.701 5.863 5.863-1.238.591-4.395-4.395 2.231 5.427-1.077.514-6.57-3.358 4.395 4.395-1.228.586-5.863-5.863 1.486-.709 7.159 3.501-2.249-5.843z"/><path d="m581.576 308.914.776.776-2.122 1.012 5.18 5.18-1.238.59-5.18-5.179-2.11 1.007-.777-.777z"/><path d="m614.432 293.243 4.061 6.86-1.508.719-6.21-3.841 3.001 5.371-1.507.719-7.851-5.051 1.346-.642 6.156 4.215-3.173-5.638 1.356-.647 6.512 4.046-3.529-5.469z"/><path d="m642.595 279.809.776.776-2.121 1.012 5.18 5.179-1.239.591-5.179-5.18-2.111 1.007-.776-.776z"/><path d="m670.311 266.589.776.776-3.263 1.556 1.847 1.848 2.692-1.285.743.743-2.692 1.284 2.59 2.59-1.228.585-5.956-5.956z"/><path d="m702.705 257.589c.293.292.476.608.549.947.068.333-.005.662-.219.989-.214.326-.587.616-1.118.87-.517.246-1.05.397-1.6.451-.556.049-1.085.003-1.587-.14-.503-.142-.941-.373-1.315-.694l1.314-.626c.295.241.657.397 1.086.466.437.066.864-.001 1.28-.199.374-.178.582-.394.625-.647.051-.257-.047-.509-.295-.757-.213-.213-.463-.352-.749-.415-.291-.069-.587-.089-.889-.062-.301.028-.696.083-1.185.167-.592.108-1.098.175-1.517.2-.413.023-.835-.029-1.269-.155-.433-.126-.832-.371-1.198-.737-.32-.32-.501-.649-.542-.987-.04-.338.061-.66.305-.968.238-.313.602-.586 1.09-.818.775-.37 1.535-.517 2.28-.44.752.073 1.396.331 1.933.772l-1.324.632c-.276-.201-.603-.327-.983-.378-.379-.061-.758 0-1.139.181-.344.165-.55.367-.618.607-.073.234.02.48.278.739.203.202.443.337.722.403.273.061.556.08.85.056.296-.033.685-.09 1.166-.17.599-.111 1.112-.177 1.537-.197.427-.029.859.022 1.298.153.446.128.857.38 1.234.757z"/></g></g><g filter="url(#b)"><rect fill="#fe6c66" height="68.2344" rx="15.9068" transform="matrix(.902585 -.430511 .707107 .707107 418.609 156.918)" width="129.242"/><g fill="#fff"><path d="m447.974 166.689 3.435-1.639c.793-.378 1.211-.829 1.255-1.352.045-.528-.204-1.064-.747-1.606-.292-.293-.652-.518-1.08-.675-.427-.162-.881-.215-1.361-.161.12-.219.144-.459.074-.72-.07-.262-.243-.53-.519-.806-.267-.267-.61-.493-1.03-.68-.419-.186-.885-.283-1.398-.292-.515-.012-1.049.114-1.602.378l-3.101 1.479zm-2.218-4.412-1.299-1.3 1.594-.76c.28-.133.557-.172.83-.116.274.057.504.178.689.363.223.223.303.425.242.608-.06.178-.214.326-.462.444zm2.624 2.623-1.552-1.552 1.798-.858c.341-.162.668-.212.98-.149.313.058.577.195.794.412.244.245.343.486.295.725-.047.234-.219.422-.517.564z"/><path d="m456.572 162.775c.448-.214.772-.448.97-.7.199-.257.308-.567.328-.929l.556.557 1.282-.611-2.784-2.784c-.208-.208-.407-.391-.598-.55-.19-.158-.427-.294-.71-.408-.509-.206-1.024-.276-1.546-.21s-1.04.222-1.553.467c-.7.333-1.135.715-1.304 1.145s-.139.868.09 1.315l1.654-.303c-.115-.252-.096-.475.055-.668.152-.193.336-.341.551-.443.345-.165.652-.237.922-.216.267.018.522.127.764.327-.484.322-.904.612-1.261.87-.361.255-.641.488-.843.7-.331.358-.475.699-.432 1.023.04.321.219.641.537.959.253.253.559.45.917.59.358.136.745.199 1.158.189.415-.015.83-.122 1.247-.32zm-.591-1.052c-.251.12-.494.171-.728.154-.237-.02-.433-.107-.588-.261-.115-.116-.167-.236-.155-.362.009-.129.087-.279.235-.449.117-.127.277-.267.478-.421.202-.159.516-.387.943-.687.106.112.216.238.331.378.111.138.185.271.223.399.025.083.03.199.014.348-.012.147-.073.303-.184.468-.11.16-.3.305-.569.433z"/><path d="m461.215 160.373 1.465-.699-6.201-6.2-1.464.698z"/><path d="m466.036 158.26c.448-.214.772-.447.97-.699.199-.257.308-.567.328-.929l.556.557 1.282-.611-2.784-2.784c-.208-.208-.407-.391-.598-.55-.19-.158-.427-.295-.71-.408-.509-.207-1.024-.276-1.546-.21s-1.04.222-1.553.467c-.7.333-1.135.715-1.304 1.145-.169.429-.139.868.09 1.315l1.654-.303c-.115-.253-.096-.475.055-.668.152-.193.336-.341.551-.443.345-.165.652-.237.922-.216.267.018.522.127.764.327-.484.322-.904.612-1.261.87-.361.255-.641.488-.843.7-.331.358-.475.699-.432 1.023.04.321.219.641.537.958.253.254.559.45.917.591.358.136.745.199 1.158.189.415-.015.83-.122 1.247-.321zm-.591-1.051c-.251.12-.494.171-.728.154-.237-.02-.433-.107-.588-.261-.115-.116-.167-.236-.155-.363.009-.128.087-.278.235-.448.117-.127.277-.267.478-.421.202-.159.516-.388.943-.687.106.112.216.238.331.378.111.138.185.271.223.398.025.084.03.2.014.349-.012.147-.073.303-.184.468-.11.16-.3.304-.569.433z"/><path d="m470.561 155.915 1.486-.709-2.312-2.311c-.284-.284-.472-.531-.564-.74-.089-.211-.115-.39-.076-.537.035-.15.11-.274.222-.374.113-.099.232-.179.358-.239.312-.149.607-.209.886-.179.282.027.542.104.78.231.239.128.447.269.624.426.175.153.314.282.418.386l2.151 2.151 1.486-.709-2.556-2.556c-.076-.076-.204-.193-.384-.352s-.404-.323-.672-.49c-.271-.17-.58-.309-.927-.417-.343-.111-.719-.158-1.127-.142s-.84.133-1.296.351c-.42.2-.731.429-.934.688s-.318.53-.347.813l-.469-.468-1.302.622z"/><path d="m480.001 151.599c.675-.322 1.112-.723 1.309-1.204.198-.48.138-1.002-.18-1.564l-1.742.469c.133.26.173.491.119.691-.055.2-.247.379-.577.537-.441.21-.898.247-1.368.11-.47-.141-.904-.41-1.3-.806-.38-.38-.59-.747-.631-1.101-.041-.358.17-.648.633-.869.27-.128.576-.177.92-.146.348.03.682.142 1.005.337l1.161-1.002c-.599-.408-1.267-.636-2.003-.683-.736-.052-1.447.085-2.132.412-.593.283-1.002.632-1.228 1.047s-.278.862-.156 1.339c.126.476.419.944.88 1.405.456.456.98.81 1.572 1.063.593.254 1.21.383 1.851.388.642.006 1.264-.135 1.867-.423z"/><path d="m486.261 148.613c.56-.267.96-.628 1.2-1.083.243-.456.266-.945.069-1.465l-1.794.369c.16.489-.051.872-.632 1.149-.398.19-.8.253-1.204.188-.4-.067-.79-.25-1.171-.551l4.082-1.946c-.491-.58-1.042-1.026-1.654-1.336s-1.245-.476-1.897-.497-1.283.114-1.893.405c-.574.274-.98.619-1.216 1.035-.239.413-.3.863-.183 1.351.117.489.425.982.922 1.479.456.456.988.8 1.598 1.033.609.228 1.242.335 1.896.322.656-.018 1.282-.169 1.877-.453zm-3.834-3.802c.352-.168.69-.228 1.014-.179.328.047.674.212 1.037.496l-2.563 1.222c-.43-.658-.26-1.171.512-1.539z"/><path d="m473.127 185.678 2.604-1.241-1.357-1.358c1.034-.737 1.615-1.575 1.741-2.513.121-.944-.256-1.854-1.131-2.728-.775-.775-1.668-1.268-2.68-1.479-1.006-.215-2.256-.169-3.75.138l-2.971.619c-.747.158-1.354.211-1.82.16-.471-.056-.836-.214-1.096-.474-.355-.355-.433-.754-.234-1.196.206-.445.632-.81 1.278-1.097.679-.301 1.401-.413 2.167-.335.767.07 1.457.312 2.071.728l2.305-1.653c-1.092-.697-2.228-1.145-3.407-1.343-1.177-.206-2.345-.159-3.504.143l-1.395-1.395-2.603 1.242 1.35 1.35c-.991.687-1.534 1.463-1.63 2.328s.278 1.72 1.123 2.565c1.405 1.405 3.327 1.876 5.767 1.414l4.233-.801c1.075-.188 1.862-.032 2.362.468.39.39.478.832.264 1.325-.207.49-.671.907-1.392 1.251-.766.365-1.601.505-2.506.42-.899-.088-1.729-.386-2.492-.894l-2.269 1.548c1.082.828 2.29 1.366 3.624 1.616 1.34.247 2.665.187 3.976-.18z"/><path d="m482.685 178.905 2.661-1.27-10.798-10.797-2.661 1.269-1.369 2.447 2.249 2.25 1.34-2.478z"/><path d="m490.052 178.381c.99-.31 1.514-.752 1.572-1.326.058-.573-.274-1.22-.993-1.94l-2.04-2.04-2.603 1.242 2.039 2.04 1.34-.64c.43.327.656.651.676.974.028.319-.204.573-.693.762z"/><path d="m499.305 171.309c.868-.413 1.506-.954 1.913-1.621.403-.672.552-1.385.447-2.14-.109-.76-.504-1.48-1.184-2.16s-1.473-1.195-2.379-1.545c-.9-.353-1.835-.524-2.803-.513-.962.009-1.877.22-2.745.634-.951.454-1.577 1.081-1.879 1.882l-.922-.922c-.33-.33-.541-.687-.633-1.072-.091-.392-.045-.765.139-1.118.185-.362.527-.661 1.024-.899.664-.316 1.428-.4 2.293-.252l.402-2.34c-.874-.13-1.691-.127-2.452.007-.762.134-1.477.361-2.147.681-1.034.493-1.766 1.089-2.197 1.789-.436.696-.554 1.454-.355 2.274.193.816.715 1.649 1.565 2.499l3.134 3.134c.785.785 1.688 1.377 2.709 1.776 1.016.394 2.052.586 3.108.577 1.062-.012 2.05-.235 2.962-.671zm-1.949-1.949c-.396.189-.834.283-1.314.283-.481.001-.944-.081-1.39-.245-.447-.163-.82-.395-1.12-.695-.31-.31-.497-.638-.56-.984-.062-.355-.006-.685.17-.99.177-.313.463-.564.859-.753.395-.188.833-.283 1.314-.283.475-.005.938.076 1.39.245.446.164.824.4 1.134.71s.494.64.551.989c.063.347.004.674-.178.982-.175.305-.461.552-.856.741z"/><path d="m511.214 165.63c.867-.414 1.505-.955 1.913-1.622.402-.672.551-1.385.446-2.14-.109-.76-.504-1.48-1.184-2.16-.68-.679-1.473-1.195-2.379-1.545-.9-.353-1.834-.524-2.803-.513-.962.009-1.877.22-2.745.634-.951.454-1.577 1.081-1.879 1.882l-.922-.922c-.33-.33-.541-.687-.633-1.072-.091-.392-.044-.765.139-1.118.186-.362.527-.661 1.025-.899.663-.316 1.428-.4 2.292-.252l.403-2.34c-.874-.129-1.692-.127-2.453.007s-1.477.361-2.147.681c-1.034.493-1.766 1.089-2.197 1.789-.435.696-.554 1.454-.355 2.274.194.816.715 1.649 1.565 2.499l3.135 3.134c.784.785 1.687 1.377 2.708 1.776 1.016.394 2.052.586 3.108.577 1.063-.012 2.05-.235 2.963-.67zm-1.95-1.95c-.396.189-.834.283-1.314.283-.48.001-.944-.081-1.39-.245-.447-.163-.82-.395-1.12-.695-.31-.31-.496-.638-.56-.984-.062-.355-.005-.684.17-.99.177-.313.463-.564.859-.753.395-.188.833-.283 1.314-.283.475-.005.939.076 1.39.245.446.164.825.401 1.134.71.31.31.494.64.551.989.064.347.004.674-.177.982-.176.305-.461.552-.857.741z"/><path d="m522.414 160.287c.867-.414 1.511-.957 1.932-1.63.415-.678.577-1.397.485-2.158-.097-.766-.485-1.489-1.165-2.169s-1.471-1.193-2.372-1.538c-.9-.353-1.832-.522-2.795-.505-.963.008-1.878.22-2.745.634-.3.143-.589.325-.868.546-.278.221-.505.47-.681.746l-2.163-2.446 5.216-2.488-1.905-1.904-7.523 3.588 5.323 5.945 2.726-.526c.038-.188.148-.417.329-.688.177-.276.507-.53.992-.761.396-.189.831-.286 1.307-.291.482-.008.946.069 1.392.233.453.16.834.396 1.144.706s.494.639.551.989c.063.346.004.673-.178.981-.175.305-.461.552-.856.741-.447.213-.984.303-1.611.27s-1.194-.209-1.702-.529l-1.982 1.722c.721.438 1.502.752 2.342.942s1.676.253 2.507.189c.838-.067 1.604-.267 2.3-.599z"/><path d="m529.786 156.439 2.603-1.242-2.039-2.04-2.604 1.242z"/><path d="m528.911 140.598c-.868.414-1.503.957-1.906 1.629-.407.667-.556 1.38-.447 2.14.105.755.497 1.472 1.177 2.152s1.47 1.197 2.37 1.55c.906.35 1.84.521 2.803.513.968-.012 1.886-.225 2.754-.639.951-.453 1.577-1.08 1.879-1.881l.922.922c.33.33.54.691.631 1.083.092.385.046.757-.139 1.119-.184.353-.525.649-1.023.886-.663.317-1.427.401-2.292.252l-.402 2.34c.874.13 1.691.128 2.452-.007.761-.134 1.477-.361 2.147-.68 1.034-.493 1.769-1.087 2.204-1.783.431-.7.55-1.458.356-2.273-.199-.821-.723-1.656-1.573-2.506l-3.134-3.135c-.785-.785-1.686-1.374-2.702-1.768-1.021-.399-2.062-.592-3.125-.58-1.056.009-2.04.231-2.952.666zm1.949 1.95c.396-.189.834-.284 1.314-.284.481 0 .944.082 1.39.245.447.164.82.396 1.12.696.31.31.496.642.558.996.064.346.007.676-.17.989-.175.305-.461.552-.857.741-.395.189-.831.286-1.306.291-.481 0-.944-.082-1.39-.245-.452-.169-.832-.408-1.142-.718s-.497-.638-.56-.984c-.058-.35.002-.677.177-.982.182-.308.471-.557.866-.745z"/><path d="m540.819 134.918c-.868.414-1.503.957-1.906 1.629-.407.667-.556 1.38-.446 2.14.104.755.496 1.472 1.176 2.152s1.47 1.197 2.37 1.55c.906.35 1.841.521 2.803.513.968-.012 1.887-.225 2.754-.639.951-.453 1.577-1.08 1.879-1.881l.922.922c.33.33.541.691.631 1.083.093.385.046.757-.139 1.119-.184.353-.525.649-1.022.886-.664.317-1.428.401-2.293.252l-.402 2.34c.874.13 1.691.128 2.453-.007.761-.134 1.476-.361 2.146-.68 1.034-.493 1.769-1.087 2.205-1.782.43-.701.549-1.459.355-2.274-.199-.821-.723-1.656-1.573-2.506l-3.134-3.135c-.785-.784-1.685-1.374-2.701-1.768-1.021-.399-2.063-.592-3.125-.58-1.056.009-2.041.231-2.953.666zm1.949 1.95c.396-.189.834-.284 1.314-.284.481 0 .944.082 1.391.245.446.164.819.396 1.119.696.31.31.496.642.558.996.064.346.007.676-.17.989-.175.305-.461.552-.856.741-.396.189-.831.286-1.307.291-.48 0-.944-.081-1.39-.245-.451-.169-.832-.408-1.142-.718s-.497-.638-.56-.984c-.057-.35.002-.677.177-.982.182-.308.471-.557.866-.745z"/></g></g><path d="m0 0h248.543v47.7203h-248.543z" fill="#fff" transform="matrix(.902585 -.430511 .707107 .707107 525.23 380.168)"/><rect fill="#f3f5f8" height="31.8135" rx="15.9068" transform="matrix(.902585 -.430511 .707107 .707107 545.211 378.945)" width="31.8135"/><path clip-rule="evenodd" d="m571.89 391.294c-.184.087-.449.042-.593-.102l-2.864-2.864c-1.294-1.294-1.004-2.982.648-3.77l3.988-1.902c1.652-.788 4.04-.378 5.335.916l2.864 2.864c.143.144.111.332-.072.419-.184.088-.449.042-.593-.102l-2.864-2.864c-1.007-1.006-2.864-1.326-4.149-.713l-3.988 1.903c-1.285.612-1.511 1.925-.504 2.932l2.864 2.864c.144.144.112.331-.072.419zm-.876-12.657c1.438 1.438 1.115 3.313-.72 4.189-1.835.875-4.489.419-5.927-1.019s-1.116-3.313.72-4.189c1.835-.875 4.489-.419 5.927 1.019zm-1.241 3.668c1.469-.701 1.726-2.201.576-3.351-1.15-1.151-3.273-1.515-4.742-.815-1.468.7-1.726 2.201-.575 3.351 1.15 1.15 3.273 1.515 4.741.815z" fill="#94a2ab" fill-rule="evenodd"/><rect fill="#94a2ab" height="7.95338" rx="3.97669" transform="matrix(.902585 -.430511 .707107 .707107 587.246 364.434)" width="125.929"/><rect fill="#dfe6ec" height="7.95338" rx="3.97669" transform="matrix(.902585 -.430511 .707107 .707107 596.621 373.809)" width="80.8594"/><path d="m0 0h248.543v47.7203h-248.543z" fill="#fff" transform="matrix(.902585 -.430511 .707107 .707107 562.727 417.664)"/><rect fill="#f3f5f8" height="31.8135" rx="15.9068" transform="matrix(.902585 -.430511 .707107 .707107 582.707 416.441)" width="31.8135"/><path clip-rule="evenodd" d="m609.386 428.79c-.183.087-.449.042-.593-.102l-2.864-2.864c-1.294-1.294-1.004-2.982.648-3.77l3.988-1.902c1.652-.788 4.04-.378 5.335.916l2.864 2.864c.143.144.111.332-.072.419-.184.088-.449.042-.593-.102l-2.864-2.864c-1.007-1.006-2.864-1.325-4.149-.713l-3.988 1.903c-1.285.613-1.511 1.925-.504 2.932l2.864 2.864c.144.144.112.331-.072.419zm-.876-12.657c1.438 1.438 1.116 3.313-.72 4.189-1.835.875-4.489.419-5.927-1.019s-1.116-3.313.72-4.189c1.835-.875 4.489-.419 5.927 1.019zm-1.241 3.668c1.469-.7 1.727-2.201.576-3.351-1.15-1.15-3.273-1.515-4.741-.815-1.469.701-1.727 2.201-.576 3.351 1.15 1.151 3.273 1.515 4.741.815z" fill="#94a2ab" fill-rule="evenodd"/><rect fill="#94a2ab" height="7.95338" rx="3.97669" transform="matrix(.902585 -.430511 .707107 .707107 624.742 401.93)" width="125.929"/><rect fill="#dfe6ec" height="7.95338" rx="3.97669" transform="matrix(.902585 -.430511 .707107 .707107 634.117 411.305)" width="80.8594"/><path d="m0 0h248.543v47.7203h-248.543z" fill="#fff" transform="matrix(.902585 -.430511 .707107 .707107 600.219 455.156)"/><rect fill="#f3f5f8" height="31.8135" rx="15.9068" transform="matrix(.902585 -.430511 .707107 .707107 620.199 453.934)" width="31.8135"/><path clip-rule="evenodd" d="m646.874 466.282c-.183.087-.449.042-.592-.102l-2.864-2.864c-1.295-1.294-1.004-2.982.647-3.77l3.989-1.902c1.651-.788 4.04-.378 5.334.916l2.864 2.864c.144.144.111.332-.072.419-.184.088-.449.042-.593-.101l-2.864-2.864c-1.006-1.007-2.864-1.326-4.149-.713l-3.988 1.902c-1.285.613-1.51 1.925-.504 2.932l2.864 2.864c.144.144.112.331-.072.419zm-.876-12.657c1.438 1.438 1.116 3.313-.72 4.189-1.835.875-4.489.419-5.927-1.019s-1.115-3.313.72-4.188c1.836-.876 4.489-.42 5.927 1.018zm-1.24 3.668c1.468-.7 1.726-2.201.575-3.351-1.15-1.15-3.273-1.515-4.741-.815-1.469.701-1.726 2.201-.576 3.351 1.15 1.151 3.273 1.516 4.742.815z" fill="#94a2ab" fill-rule="evenodd"/><rect fill="#94a2ab" height="7.95338" rx="3.97669" transform="matrix(.902585 -.430511 .707107 .707107 662.234 439.422)" width="125.929"/><rect fill="#dfe6ec" height="7.95338" rx="3.97669" transform="matrix(.902585 -.430511 .707107 .707107 671.609 448.797)" width="80.8594"/><g clip-path="url(#o)"><path d="m0 0h248.543v63.627h-248.543z" fill="#fe6c66" transform="matrix(.902585 -.430511 .707107 .707107 269.812 124.754)"/><g clip-path="url(#p)"><path d="m311.402 141.605 9.572-4.565m-6.291 7.846 9.571-4.565m-6.29 7.846 9.571-4.566" stroke="#ffb0ad" stroke-linecap="round" stroke-linejoin="round" stroke-width="1.98834"/></g><rect fill="#ffb0ad" height="7.95338" rx="3.97669" transform="matrix(.902585 -.430511 .707107 .707107 369.301 114.68)" width="84.1733"/><g clip-path="url(#q)"><circle r="6.95921" stroke="#ffb0ad" stroke-width="1.98834" transform="matrix(.902585 -.430511 .707107 .707107 500.73 56.1436)"/></g></g></g><rect height="536.853" rx="25.8485" stroke="#94a2ab" stroke-opacity=".3" stroke-width="1.32556" transform="matrix(.902585 -.430511 .707107 .707107 269.787 125.267)" width="247.218" x="1.06687" y=".183323"/><path d="m198.25 93.0469 129.42-61.73c8.867-4.2295 21.687-2.0266 28.634 4.9202l19.366 19.366" stroke="#fff" stroke-linecap="round" stroke-linejoin="round" stroke-width="2.96476"/><g clip-path="url(#r)"><path d="m369.006 55.6857 9.139-4.359c.513-.2451 1.27.0361 1.365.507l1.695 8.4443c.095.4746-.553.7837-1.162.5541l-10.834-4.0852c-.604-.2278-.717-.8162-.203-1.0612z" fill="#dfe6ec" stroke="#94a2ab" stroke-width="2.96476"/></g><path clip-rule="evenodd" d="m204.942 89.8573c-3.473-3.4734-9.883-4.5748-14.317-2.4601-4.433 2.1148-5.212 6.6449-1.738 10.1183 3.473 3.4735 9.883 4.5745 14.317 2.4601 4.433-2.1147 5.212-6.6448 1.738-10.1183z" fill="#dfe6ec" fill-rule="evenodd" opacity=".4"/><g stroke-width="2.96476"><path d="m193.764 90.5396c2.217-1.0574 5.422-.5067 7.159 1.23s1.348 4.0018-.869 5.0592c-2.217 1.0573-5.422.5066-7.159-1.2301s-1.347-4.0018.869-5.0591z" fill="#dfe6ec" stroke="#94a2ab"/><path d="m624.816 480.59-129.419 61.73c-8.868 4.229-21.687 2.026-28.634-4.92l-19.366-19.366" stroke="#fff" stroke-linecap="round" stroke-linejoin="round"/></g></g></g></svg>