<svg fill="none" height="415" viewBox="0 0 585 415" width="585" xmlns="http://www.w3.org/2000/svg" xmlns:xlink="http://www.w3.org/1999/xlink"><filter id="a" color-interpolation-filters="sRGB" filterUnits="userSpaceOnUse" height="119.556" width="150.722" x="87.7266" y="316.234"><feFlood flood-opacity="0" result="BackgroundImageFix"/><feColorMatrix in="SourceAlpha" type="matrix" values="0 0 0 0 0 0 0 0 0 0 0 0 0 0 0 0 0 0 127 0"/><feOffset dy="19"/><feGaussianBlur stdDeviation="20.5"/><feColorMatrix type="matrix" values="0 0 0 0 0.172549 0 0 0 0 0.756863 0 0 0 0 1 0 0 0 0.5 0"/><feBlend in2="BackgroundImageFix" mode="normal" result="effect1_dropShadow"/><feBlend in="SourceGraphic" in2="effect1_dropShadow" mode="normal" result="shape"/></filter><filter id="b" color-interpolation-filters="sRGB" filterUnits="userSpaceOnUse" height="130.981" width="151.307" x="178.371" y="276.141"><feFlood flood-opacity="0" result="BackgroundImageFix"/><feColorMatrix in="SourceAlpha" type="matrix" values="0 0 0 0 0 0 0 0 0 0 0 0 0 0 0 0 0 0 127 0"/><feOffset dy="19"/><feGaussianBlur stdDeviation="20.5"/><feColorMatrix type="matrix" values="0 0 0 0 0.172549 0 0 0 0 0.756863 0 0 0 0 1 0 0 0 0.5 0"/><feBlend in2="BackgroundImageFix" mode="normal" result="effect1_dropShadow"/><feBlend in="SourceGraphic" in2="effect1_dropShadow" mode="normal" result="shape"/></filter><filter id="c" color-interpolation-filters="sRGB" filterUnits="userSpaceOnUse" height="118.983" width="152.859" x="205.854" y="20.5859"><feFlood flood-opacity="0" result="BackgroundImageFix"/><feColorMatrix in="SourceAlpha" type="matrix" values="0 0 0 0 0 0 0 0 0 0 0 0 0 0 0 0 0 0 127 0"/><feOffset dy="19"/><feGaussianBlur stdDeviation="20.5"/><feColorMatrix type="matrix" values="0 0 0 0 0.992157 0 0 0 0 0.423529 0 0 0 0 0.4 0 0 0 0.5 0"/><feBlend in2="BackgroundImageFix" mode="normal" result="effect1_dropShadow"/><feBlend in="SourceGraphic" in2="effect1_dropShadow" mode="normal" result="shape"/></filter><clipPath id="d"><rect height="582.691" rx="28.704" transform="matrix(.902585 -.430511 .707107 .707107 20 303.852)" width="269.1"/></clipPath><clipPath id="e"><path d="m0 0h20.0928v20.0928h-20.0928z" transform="matrix(.902585 -.430511 .707107 .707107 237.854 319.852)"/></clipPath><clipPath id="f"><path d="m0 0h20.0928v20.0928h-20.0928z" transform="matrix(.902585 -.430511 .707107 .707107 284.488 297.609)"/></clipPath><clipPath id="g"><path d="m0 0h20.0928v20.0928h-20.0928z" transform="matrix(.902585 -.430511 .707107 .707107 308.893 390.891)"/></clipPath><clipPath id="h"><path d="m0 0h20.0928v20.0928h-20.0928z" transform="matrix(.902585 -.430511 .707107 .707107 355.527 368.648)"/></clipPath><clipPath id="i"><path d="m0 0h269.1v68.8896h-269.1z" transform="matrix(.902585 -.430511 .707107 .707107 20.002 303.852)"/></clipPath><clipPath id="j"><path d="m0 0h17.2224v17.2224h-17.2224z" transform="matrix(.902585 -.430511 .707107 .707107 59.9023 320.793)"/></clipPath><clipPath id="k"><path d="m0 0h17.2224v17.2224h-17.2224z" transform="matrix(.902585 -.430511 .707107 .707107 230.246 239.543)"/></clipPath><clipPath id="l"><path d="m0 0h17.2224v17.2224h-17.2224z" transform="matrix(.902585 -.430511 .707107 .707107 256.154 227.188)"/></clipPath><clipPath id="m"><rect height="582.691" rx="28.704" transform="matrix(.902585 -.430511 .707107 .707107 178 65.8516)" width="269.1"/></clipPath><clipPath id="n"><path d="m0 0h17.2224v17.2224h-17.2224z" transform="matrix(.902585 -.430511 .707107 .707107 217.9 82.793)"/></clipPath><clipPath id="o"><path d="m0 0h17.2224v17.2224h-17.2224z" transform="matrix(.902585 -.430511 .707107 .707107 388.244 1.54297)"/></clipPath><clipPath id="p"><path d="m0 0h17.2224v17.2224h-17.2224z" transform="matrix(.902585 -.430511 .707107 .707107 414.152 -10.8125)"/></clipPath><mask id="q" height="415" maskUnits="userSpaceOnUse" width="585" x="0" y="0"><path d="m0 0h585v415h-585z" fill="#e6f1fa"/></mask><g mask="url(#q)"><g clip-path="url(#d)"><rect fill="#fff" height="582.691" rx="28.704" transform="matrix(.902585 -.430511 .707107 .707107 20 303.852)" width="269.1"/><rect fill="#f3f5f8" height="77.5008" rx="11.4816" transform="matrix(.902585 -.430511 .707107 .707107 96.4375 357.324)" width="234.655"/><g filter="url(#a)"><rect fill="#2cc1ff" height="12.9168" rx="6.4584" transform="matrix(.902585 -.430511 .707107 .707107 128.727 366.656)" width="66.0192"/></g><path clip-rule="evenodd" d="m214.936 339.025c1.073-.512 1.261-1.608.421-2.449-.841-.841-2.393-1.107-3.466-.596-1.073.512-1.261 1.609-.421 2.449.841.841 2.393 1.108 3.466.596zm-12.533 3.731c.841.84.653 1.937-.42 2.449-1.073.511-2.625.245-3.466-.596-.84-.841-.652-1.937.421-2.449s2.625-.245 3.465.596zm6.479-3.09c.841.84.652 1.937-.421 2.449s-2.624.245-3.465-.596c-.841-.84-.652-1.937.421-2.449s2.624-.245 3.465.596z" fill="#dfe6ec" fill-rule="evenodd"/><rect fill="#dfe6ec" height="8.6112" rx="4.3056" transform="matrix(.902585 -.430511 .707107 .707107 143.949 381.879)" width="91.8528"/><g filter="url(#b)"><rect fill="#2cc1ff" height="43.056" rx="21.528" transform="matrix(.902585 -.430511 .707107 .707107 219.371 316.676)" width="43.056"/><g clip-path="url(#e)"><path d="m249.247 327.621 2.226-12.953 7.623 1.31-2.226 12.953-4.506 3.386z" stroke="#fff" stroke-linecap="round" stroke-linejoin="round" stroke-width="2.1528"/></g></g><rect fill="#f3f5f8" height="41.6208" rx="20.8104" transform="matrix(.902585 -.430511 .707107 .707107 265.978 294.989)" width="41.6208" x="1.15512" y=".198485"/><g clip-path="url(#f)"><path d="m299.69 306.107 1.967-11.449m7.116 7.116-16.2-2.784" stroke="#94a2ab" stroke-linecap="round" stroke-linejoin="round" stroke-width="2.1528"/></g><rect height="41.6208" rx="20.8104" stroke="#94a2ab" stroke-width="1.4352" transform="matrix(.902585 -.430511 .707107 .707107 265.978 294.989)" width="41.6208" x="1.15512" y=".198485"/><rect fill="#f3f5f8" height="77.5008" rx="11.4816" transform="matrix(.902585 -.430511 .707107 .707107 167.477 428.363)" width="234.655"/><rect fill="#94a2ab" height="12.9168" rx="6.4584" transform="matrix(.902585 -.430511 .707107 .707107 199.768 437.695)" width="66.0192"/><path clip-rule="evenodd" d="m285.975 410.064c1.073-.512 1.261-1.608.421-2.449-.841-.841-2.393-1.107-3.466-.596-1.073.512-1.261 1.609-.42 2.449.84.841 2.392 1.108 3.465.596zm-12.532 3.731c.84.84.652 1.937-.421 2.449-1.073.511-2.625.245-3.466-.596-.84-.841-.652-1.937.421-2.449s2.625-.245 3.466.596zm6.478-3.09c.841.84.652 1.937-.421 2.449s-2.624.245-3.465-.596c-.841-.84-.652-1.937.421-2.449s2.624-.245 3.465.596z" fill="#dfe6ec" fill-rule="evenodd"/><rect fill="#dfe6ec" height="8.6112" rx="4.3056" transform="matrix(.902585 -.430511 .707107 .707107 214.988 452.918)" width="91.8528"/><rect fill="#94a2ab" height="43.056" rx="21.528" transform="matrix(.902585 -.430511 .707107 .707107 290.41 387.715)" width="43.056"/><g clip-path="url(#g)"><path d="m320.282 398.66 2.226-12.953 7.623 1.31-2.226 12.953-4.506 3.386z" stroke="#fff" stroke-linecap="round" stroke-linejoin="round" stroke-width="2.1528"/></g><rect fill="#f3f5f8" height="41.6208" rx="20.8104" transform="matrix(.902585 -.430511 .707107 .707107 337.017 366.028)" width="41.6208" x="1.15512" y=".198485"/><g clip-path="url(#h)"><path d="m370.729 377.146 1.967-11.449m7.116 7.116-16.199-2.783" stroke="#94a2ab" stroke-linecap="round" stroke-linejoin="round" stroke-width="2.1528"/></g><rect height="41.6208" rx="20.8104" stroke="#94a2ab" stroke-width="1.4352" transform="matrix(.902585 -.430511 .707107 .707107 337.017 366.028)" width="41.6208" x="1.15512" y=".198485"/><rect fill="#f3f5f8" height="77.5008" rx="11.4816" transform="matrix(.902585 -.430511 .707107 .707107 238.516 499.402)" width="234.655"/><g clip-path="url(#i)"><path d="m0 0h269.1v68.8896h-269.1z" fill="#fff" transform="matrix(.902585 -.430511 .707107 .707107 20.002 303.852)"/><g clip-path="url(#j)"><path d="m65.0293 322.094 10.3631-4.943m-6.8112 8.495 10.3632-4.943m-6.8112 8.495 10.3631-4.943" stroke="#94a2ab" stroke-linecap="round" stroke-linejoin="round" stroke-width="2.1528"/></g><rect fill="#94a2ab" height="8.6112" rx="4.3056" transform="matrix(.902585 -.430511 .707107 .707107 88.8574 311.48)" width="71.76"/><g clip-path="url(#k)"><circle r="7.5348" stroke="#94a2ab" stroke-width="2.1528" transform="matrix(.902585 -.430511 .707107 .707107 244.107 241.924)"/></g><g clip-path="url(#l)"><circle r="7.5348" stroke="#94a2ab" stroke-width="2.1528" transform="matrix(.902585 -.430511 .707107 .707107 270.013 229.568)"/></g></g></g><rect height="581.256" rx="27.9864" stroke="#94a2ab" stroke-opacity=".3" stroke-width="1.4352" transform="matrix(.902585 -.430511 .707107 .707107 19.9722 304.407)" width="267.665" x="1.15512" y=".198485"/><g clip-path="url(#m)"><rect fill="#fff" height="582.691" rx="28.704" transform="matrix(.902585 -.430511 .707107 .707107 178 65.8516)" width="269.1"/><rect fill="#f3f5f8" height="90.4176" rx="11.4816" transform="matrix(.902585 -.430511 .707107 .707107 248.346 113.238)" width="112.663"/><g fill="#94a2ab"><path clip-rule="evenodd" d="m319.885 114.467c-1.491.71-1.752 2.233-.585 3.401 1.168 1.168 3.323 1.538 4.813.827 1.491-.711 1.752-2.234.585-3.401-1.168-1.168-3.323-1.538-4.813-.827zm-1.664 3.916c-1.635-1.635-1.269-3.767.818-4.762s5.104-.477 6.738 1.158c1.635 1.634 1.269 3.766-.818 4.762-2.087.995-5.103.477-6.738-1.158zm15.716-1.982c-.437-.146-.896.041-.91.371l-.351 7.825c-.006.136-.091.257-.235.335s-.334.104-.524.073l-6.515-1.057c-.427-.069-.79.153-.757.463l.812 7.661c.042.395.675.649 1.106.443l21.914-10.452c.427-.204.315-.697-.198-.868zm-2.281.223c.044-.99 1.421-1.552 2.732-1.114l14.342 4.795c1.537.513 1.874 1.993.593 2.604l-21.914 10.452c-1.293.617-3.194-.144-3.319-1.33l-.813-7.661c-.098-.929.993-1.594 2.272-1.387l5.78.938z" fill-rule="evenodd"/><path d="m330.138 191.225 1.562-.745-2.812-5.215 6.065 3.664 1.562-.746-4.116-7.749-1.667.795 2.947 5.272-6.095-3.77-1.658.804 2.938 5.263-6.095-3.771-1.667.795zm11.135-5.109c.486-.231.836-.484 1.051-.757.215-.278.333-.613.354-1.006l.603.603 1.387-.661-3.014-3.015c-.225-.225-.441-.423-.647-.595-.205-.171-.462-.319-.769-.442-.55-.223-1.108-.299-1.673-.227-.566.072-1.126.24-1.682.505-.758.362-1.228.775-1.412 1.24-.183.465-.151.94.098 1.424l1.79-.328c-.124-.273-.104-.515.06-.723.165-.209.363-.369.596-.48.374-.178.706-.256.998-.234.29.02.566.138.828.354-.524.349-.979.663-1.366.942-.39.276-.694.529-.912.759-.359.387-.515.756-.468 1.107.044.347.237.693.582 1.037.274.274.604.488.992.64.389.147.807.216 1.255.204.448-.016.898-.132 1.349-.347zm-.639-1.138c-.272.13-.535.185-.789.167-.257-.021-.469-.116-.636-.283-.125-.125-.181-.256-.168-.392.009-.14.094-.302.254-.486.127-.137.3-.289.518-.456.218-.172.559-.419 1.021-.743.115.12.234.257.358.409.12.149.201.293.241.431.028.091.033.216.016.377-.013.159-.08.328-.199.507-.12.174-.325.33-.616.469zm9.328-3.208-1.033-1.032c-.333.217-.661.392-.983.523s-.64.143-.954.036c-.165-.056-.327-.158-.487-.306-.16-.154-.335-.327-.527-.518l-1.808-1.809 1.818-.867-.959-.959-1.818.867-1.37-1.37-1.586.756 1.37 1.37-1.072.512.959.959 1.072-.511 1.882 1.881c.295.295.564.558.806.789.239.228.549.417.93.568.411.159.835.216 1.271.17.437-.051.866-.173 1.288-.365.429-.191.829-.423 1.201-.694zm4.113-1.76c.606-.289 1.039-.68 1.298-1.172.264-.495.289-1.024.075-1.587l-1.942.4c.173.529-.055.943-.684 1.244-.432.206-.866.273-1.304.203-.433-.072-.856-.27-1.267-.596l4.418-2.107c-.53-.629-1.127-1.111-1.79-1.446-.663-.336-1.348-.516-2.054-.539s-1.389.124-2.05.439c-.621.296-1.06.67-1.316 1.12-.259.447-.325.935-.198 1.464.127.528.46 1.062.999 1.601.493.493 1.069.866 1.729 1.118.66.247 1.345.363 2.054.349.709-.02 1.387-.183 2.032-.491zm-4.152-4.117c.381-.182.747-.246 1.098-.193.355.051.73.23 1.123.537l-2.775 1.323c-.466-.713-.281-1.268.554-1.667zm8.182 1.993 1.597-.762-2.521-2.521c-.572-.572-.675-1.099-.306-1.58.116-.159.283-.3.5-.421.218-.127.436-.21.653-.251l-1.16-1.16c-.311.108-.588.249-.833.424-.247.172-.43.367-.55.586-.081.138-.13.281-.148.429-.015.146-.005.296.029.451l-.795-.795-1.399.668z"/><rect height="8.6112" rx="4.3056" transform="matrix(.902585 -.430511 .707107 .707107 333.592 198.484)" width="103.334"/></g><rect fill="#f3f5f8" height="8.6112" rx="4.3056" transform="matrix(.902585 -.430511 .707107 .707107 343.74 208.633)" width="73.1952"/><rect fill="#f3f5f8" height="110.51" rx="11.4816" transform="matrix(.902585 -.430511 .707107 .707107 366.068 230.961)" width="112.663"/><path clip-rule="evenodd" d="m444.711 239.295c-1.491.711-1.752 2.233-.585 3.401 1.168 1.168 3.323 1.538 4.813.827 1.491-.711 1.753-2.234.585-3.401-1.168-1.168-3.323-1.538-4.813-.827zm-1.664 3.916c-1.635-1.635-1.268-3.767.818-4.762 2.087-.995 5.104-.477 6.738 1.158 1.635 1.635 1.269 3.767-.818 4.762-2.086.995-5.103.477-6.738-1.158zm15.717-1.982c-.437-.146-.896.041-.911.371l-.351 7.825c-.006.136-.091.258-.235.335-.144.078-.334.104-.523.073l-6.516-1.056c-.426-.07-.79.152-.757.462l.812 7.661c.042.395.675.649 1.106.443l21.914-10.452c.427-.203.315-.697-.198-.868zm-2.282.224c.045-.991 1.422-1.553 2.732-1.115l14.342 4.795c1.537.514 1.874 1.993.593 2.604l-21.914 10.452c-1.293.617-3.194-.144-3.319-1.329l-.813-7.662c-.098-.928.993-1.594 2.272-1.387l5.78.938z" fill="#94a2ab" fill-rule="evenodd"/><path d="m459.142 315.027.841.84-2.297 1.096 5.608 5.608-1.341.639-5.608-5.608-2.285 1.09-.84-.84zm5.916-.852c.746-.356 1.534-.453 2.362-.29.828.162 1.593.594 2.293 1.294l2.932 2.932-1.329.634-2.823-2.823c-.45-.45-.945-.727-1.484-.829-.545-.109-1.074-.041-1.587.203-.528.253-.818.589-.869 1.008-.057.414.171.877.682 1.388l2.676 2.677-1.329.633-6.759-6.758 1.33-.634 2.831 2.831c-.207-.459-.211-.888-.014-1.288s.56-.726 1.088-.978zm2.461-3.211c-.177-.176-.245-.359-.206-.549.04-.19.188-.346.445-.468.256-.123.52-.163.791-.122.279.038.507.145.683.322.177.177.238.359.185.546-.046.184-.197.337-.454.459-.256.123-.517.166-.782.131-.265-.036-.486-.142-.662-.319zm2.977.739 5.032 5.033-1.329.633-5.033-5.032zm3.654-1.838c.754-.359 1.509-.494 2.264-.405.757.08 1.438.348 2.045.805l-1.259.601c-.329-.248-.699-.395-1.113-.441-.411-.055-.819.013-1.223.206-.334.159-.531.348-.589.564-.057.207.021.417.234.631.158.158.352.254.582.289.229.034.469.032.718-.006.257-.041.601-.116 1.033-.223.568-.144 1.045-.241 1.431-.291.395-.053.797-.029 1.208.071.413.091.789.307 1.13.648.42.421.555.86.405 1.318-.142.455-.559.847-1.251 1.177-.8.382-1.595.545-2.385.49-.782-.059-1.485-.326-2.11-.801l1.294-.617c.313.255.691.403 1.133.444.443.041.885-.045 1.328-.256.319-.152.504-.334.555-.548.052-.223-.022-.434-.223-.635-.176-.177-.386-.284-.63-.32-.243-.037-.497-.033-.762.012-.271.04-.619.116-1.045.229-.552.137-1.018.234-1.399.289-.372.052-.758.034-1.157-.055-.397-.098-.76-.312-1.088-.641-.427-.426-.569-.866-.426-1.321.144-.464.577-.869 1.3-1.214zm15.846-7.463 3.249 5.883-1.469.701-5.476-3.135 2.282 4.658-1.458.695-6.816-4.181 1.341-.64 5.297 3.49-2.464-4.841 1.399-.667 5.705 3.295-2.849-4.658zm-.743-1.804c-.177-.177-.245-.36-.205-.55s.188-.346.444-.468c.257-.123.52-.163.792-.121.278.037.506.145.683.321.176.177.238.359.184.546-.046.184-.197.337-.453.459-.257.123-.517.166-.783.131-.265-.036-.485-.142-.662-.318zm2.977.738 5.033 5.033-1.329.634-5.033-5.033zm3.924-.415c-.111-.432-.059-.839.156-1.221.209-.387.578-.707 1.107-.959l1.132 1.132-.396.189c-.583.278-.94.615-1.073 1.011-.13.386.06.835.572 1.346l2.548 2.549-1.329.634-5.033-5.033 1.329-.634zm10.584-3.146c.171.171.304.327.401.47l-4.943 2.358c.541.506 1.107.803 1.699.889.591.087 1.14.009 1.645-.232.443-.211.728-.477.854-.798.135-.325.091-.65-.132-.976l1.423-.678c.267.393.402.792.404 1.196s-.135.789-.412 1.155c-.283.359-.693.667-1.229.923-.622.297-1.277.456-1.966.479-.681.019-1.353-.101-2.015-.361-.661-.26-1.257-.655-1.787-1.185-.523-.523-.844-1.045-.962-1.564-.117-.52-.043-.996.224-1.429.275-.437.724-.804 1.345-1.1.63-.301 1.281-.459 1.955-.474.675-.025 1.316.083 1.924.323.61.231 1.134.566 1.572 1.004zm-1.368.612c-.313-.336-.661-.575-1.043-.716-.381-.151-.763-.212-1.146-.182-.382.02-.736.108-1.063.264-.52.248-.831.581-.931.997s.078.876.534 1.378zm2.332-5.969c-.539.23-.837.472-.895.724-.063.246.084.549.444.908l.082.082 1.411-.672.895.895-1.411.673 4.137 4.137-1.34.639-4.138-4.137-.874.417-.895-.895.874-.417-.164-.164c-.615-.615-.846-1.185-.692-1.708.148-.529.699-.994 1.653-1.395zm4.425.884c-.111-.432-.059-.839.157-1.221.209-.387.578-.707 1.106-.959l1.133 1.132-.396.189c-.583.278-.941.615-1.073 1.011-.131.386.06.835.571 1.346l2.549 2.549-1.33.634-5.032-5.033 1.329-.634zm4.854-3.866c.583-.278 1.193-.403 1.83-.374s1.227.188 1.77.478l-1.169-1.169 1.329-.634 5.032 5.033-1.329.634-1.169-1.169c.201.453.207.89.021 1.312-.187.422-.572.771-1.155 1.05-.559.266-1.164.402-1.814.406-.642.001-1.283-.134-1.921-.405s-1.223-.672-1.752-1.202c-.524-.523-.856-1.039-.997-1.548-.141-.508-.098-.969.131-1.384.236-.418.633-.761 1.193-1.028zm1.321.719c-.59.282-.915.657-.974 1.126-.058.459.172.947.69 1.465.517.517 1.1.842 1.748.973.65.122 1.27.042 1.861-.24.373-.178.64-.404.802-.679.155-.281.193-.587.115-.918-.079-.331-.286-.664-.621-.999-.328-.329-.703-.577-1.124-.745-.427-.175-.855-.258-1.284-.251-.435 0-.839.09-1.213.268zm11.984-7.092c.762-.363 1.557-.464 2.385-.301.836.158 1.604.588 2.305 1.288l2.932 2.932-1.33.634-2.822-2.822c-.438-.439-.916-.71-1.433-.814-.524-.11-1.03-.048-1.52.185-.521.249-.806.578-.855.988-.047.4.179.85.678 1.349l2.676 2.677-1.329.634-2.822-2.823c-.438-.438-.916-.709-1.433-.813-.524-.11-1.03-.049-1.52.185-.521.248-.806.577-.855.988-.047.4.179.85.678 1.349l2.676 2.676-1.329.634-5.032-5.033 1.329-.633 1.05 1.05c-.202-.443-.21-.853-.024-1.23.186-.376.535-.687 1.048-.931.537-.256 1.103-.373 1.698-.352.604.018 1.19.18 1.758.484-.191-.467-.187-.905.012-1.314.199-.41.558-.739 1.079-.987zm12.384-2.427c.171.171.304.327.401.47l-4.943 2.358c.541.506 1.107.803 1.699.889.591.087 1.14.01 1.645-.231.443-.212.728-.478.854-.799.135-.325.091-.65-.132-.976l1.423-.678c.267.394.402.793.404 1.196.002.404-.135.789-.412 1.155-.283.36-.693.668-1.229.923-.622.297-1.277.457-1.966.479-.682.02-1.353-.101-2.015-.361-.661-.26-1.257-.655-1.787-1.184-.524-.524-.844-1.046-.962-1.565s-.043-.996.224-1.429c.275-.437.723-.803 1.345-1.1.63-.3 1.281-.458 1.955-.474.675-.025 1.316.083 1.924.324.61.23 1.134.565 1.572 1.003zm-1.368.612c-.313-.336-.661-.575-1.043-.716-.381-.151-.763-.212-1.147-.182-.381.02-.735.108-1.062.264-.52.248-.831.581-.931.997-.1.417.078.876.534 1.378zm-76.371 47.661c-.177-.177-.245-.36-.205-.55.039-.19.187-.346.444-.468.256-.122.52-.163.791-.121.279.038.507.145.684.321.176.177.238.359.184.546-.046.184-.197.337-.453.46-.257.122-.518.165-.783.13-.265-.036-.486-.142-.662-.318zm2.977.738 5.032 5.033-1.329.634-5.032-5.033zm3.654-1.837c.754-.36 1.509-.495 2.264-.406.757.08 1.439.349 2.045.806l-1.259.6c-.328-.248-.699-.395-1.112-.44-.412-.056-.819.013-1.224.205-.334.16-.53.348-.589.565-.057.207.021.417.234.63.159.158.352.255.582.289s.469.033.718-.005c.257-.042.602-.116 1.034-.223.567-.145 1.044-.242 1.431-.292.394-.053.797-.029 1.207.072.413.091.79.307 1.131.648.42.42.555.859.405 1.317-.143.455-.56.847-1.251 1.177-.801.382-1.596.546-2.386.491-.782-.059-1.485-.326-2.11-.802l1.294-.617c.313.255.691.404 1.133.444.443.041.886-.044 1.329-.256.318-.152.503-.334.554-.547.053-.223-.022-.435-.222-.636-.177-.177-.387-.283-.63-.32-.244-.037-.498-.033-.763.013-.27.039-.619.115-1.045.229-.552.137-1.018.233-1.398.289-.373.052-.759.033-1.157-.055-.397-.099-.76-.312-1.089-.641-.426-.427-.568-.867-.426-1.322.144-.464.578-.869 1.3-1.213zm9.359-4.464c.583-.278 1.193-.403 1.83-.374s1.227.188 1.769.478l-1.169-1.169 1.329-.634 5.033 5.033-1.329.634-1.169-1.169c.2.453.207.89.02 1.312-.186.422-.571.771-1.154 1.05-.56.266-1.164.402-1.814.406-.643.001-1.283-.134-1.921-.405-.639-.271-1.223-.672-1.753-1.202-.523-.523-.856-1.039-.997-1.548-.141-.508-.097-.969.131-1.384.236-.418.634-.761 1.194-1.028zm1.321.719c-.591.282-.916.657-.975 1.126-.057.459.173.947.69 1.465.518.517 1.101.842 1.749.973.65.122 1.27.042 1.861-.24.373-.178.64-.404.801-.679.156-.281.194-.587.115-.918-.078-.331-.285-.664-.62-.999-.329-.329-.704-.577-1.124-.745-.427-.175-.855-.258-1.284-.251-.436 0-.84.09-1.213.268zm3.636-5.539 6.759 6.759-1.329.634-6.759-6.759zm6.209-.506c.621-.296 1.285-.46 1.989-.49s1.391.083 2.061.339c.669.256 1.266.646 1.79 1.17.529.53.849 1.056.959 1.579s.02 1.007-.271 1.451c-.29.445-.746.815-1.368 1.112-.622.296-1.285.46-1.989.49-.697.026-1.384-.087-2.061-.339-.676-.263-1.275-.656-1.799-1.179-.524-.524-.84-1.047-.95-1.57-.103-.527-.012-1.011.27-1.452.291-.444.747-.814 1.369-1.111zm.904.904c-.342.163-.596.374-.762.633s-.21.559-.133.9c.079.332.301.68.666 1.045.371.372.767.641 1.188.809.429.165.847.239 1.257.224.409-.015.785-.105 1.127-.268s.596-.374.761-.633c.166-.259.21-.554.131-.885-.071-.335-.292-.688-.663-1.06-.366-.365-.763-.63-1.191-.794-.427-.174-.845-.254-1.254-.238-.409.015-.785.104-1.127.267zm5.748-4.077c.754-.359 1.509-.495 2.264-.405.757.079 1.438.348 2.045.805l-1.259.601c-.329-.248-.699-.395-1.113-.441-.411-.056-.819.013-1.223.206-.334.159-.531.347-.589.564-.057.207.021.417.234.63.158.159.352.255.582.289.229.035.469.033.718-.005.257-.041.601-.116 1.033-.223.568-.145 1.044-.242 1.431-.291.395-.053.797-.03 1.208.071.413.091.789.307 1.13.648.42.42.555.86.405 1.318-.142.454-.559.847-1.251 1.177-.8.382-1.596.545-2.385.49-.782-.059-1.485-.326-2.11-.801l1.294-.618c.313.256.691.404 1.133.445.443.04.885-.045 1.328-.256.319-.152.504-.335.555-.548.052-.223-.022-.435-.223-.636-.176-.176-.386-.283-.63-.32-.243-.036-.497-.032-.762.013-.271.039-.619.116-1.045.229-.552.137-1.018.234-1.399.289-.372.052-.758.034-1.157-.055-.397-.098-.76-.312-1.088-.641-.427-.426-.569-.867-.426-1.321.144-.465.577-.869 1.3-1.214zm10.466-4.992c.559-.267 1.16-.4 1.803-.401.65-.004 1.294.129 1.932.4.639.271 1.22.669 1.743 1.192.53.53.866 1.049 1.007 1.557.141.509.093.972-.143 1.39-.228.415-.622.756-1.182 1.023-.583.278-1.193.402-1.83.373-.637-.028-1.223-.19-1.758-.483l1.169 1.169-1.329.634-6.759-6.759 1.329-.634 2.896 2.895c-.208-.449-.219-.884-.033-1.306.187-.422.572-.772 1.155-1.05zm.505 1.108c-.373.178-.637.408-.792.688-.162.275-.2.581-.115.919.078.331.282.661.611.99.335.335.712.586 1.133.754s.849.252 1.284.251c.429-.007.831-.099 1.204-.277.59-.282.918-.654.984-1.117.059-.469-.17-.962-.688-1.48-.511-.511-1.095-.831-1.751-.959s-1.279-.051-1.87.231zm3.345-5.399 6.759 6.759-1.33.633-6.758-6.758zm6.208-.506c.622-.297 1.285-.46 1.99-.491.704-.03 1.391.083 2.061.339.669.257 1.266.647 1.789 1.17.53.53.85 1.056.96 1.58.11.523.019 1.006-.271 1.451-.29.444-.746.814-1.368 1.111s-1.285.46-1.99.49c-.696.027-1.383-.086-2.061-.339-.675-.262-1.275-.655-1.798-1.179-.524-.523-.841-1.047-.951-1.57-.102-.527-.012-1.011.271-1.451.29-.444.747-.815 1.368-1.111zm.905.904c-.342.163-.596.374-.762.633s-.21.559-.133.9c.078.331.3.679.666 1.045.371.371.767.641 1.188.809.428.164.847.239 1.256.223.41-.015.785-.104 1.127-.267s.596-.375.762-.633c.166-.259.209-.554.131-.886-.071-.335-.292-.688-.664-1.059-.365-.366-.762-.63-1.19-.795-.427-.174-.845-.253-1.254-.238-.41.015-.785.105-1.127.268zm6.575-4.472c.622-.297 1.285-.46 1.99-.491.704-.03 1.391.083 2.061.339.669.257 1.266.647 1.789 1.17.53.53.85 1.057.96 1.58s.02 1.007-.271 1.451c-.29.444-.746.815-1.368 1.111-.622.297-1.285.46-1.989.49-.697.027-1.384-.086-2.061-.339-.676-.262-1.276-.655-1.799-1.179-.524-.523-.841-1.047-.951-1.57-.102-.527-.011-1.01.271-1.451.291-.444.747-.815 1.368-1.111zm.905.904c-.342.163-.596.374-.762.633s-.21.559-.133.9c.078.331.3.679.666 1.045.371.371.767.641 1.188.809.428.164.847.239 1.257.224.409-.016.785-.105 1.127-.268s.595-.374.761-.633.21-.554.131-.886c-.071-.334-.292-.688-.664-1.059-.365-.365-.762-.63-1.19-.795-.427-.174-.845-.253-1.254-.238-.41.016-.785.105-1.127.268z" fill="#94a2ab"/><rect fill="#94a2ab" height="8.6112" rx="4.3056" transform="matrix(.902585 -.430511 .707107 .707107 476.688 341.578)" width="103.334"/><rect fill="#f3f5f8" height="8.6112" rx="4.3056" transform="matrix(.902585 -.430511 .707107 .707107 486.84 351.73)" width="73.1952"/><rect fill="#f3f5f8" height="126.298" rx="11.4816" transform="matrix(.902585 -.430511 .707107 .707107 509.16 374.051)" width="112.663"/><path clip-rule="evenodd" d="m593.383 387.963c-1.491.711-1.752 2.233-.585 3.401 1.168 1.168 3.323 1.538 4.813.827 1.491-.711 1.752-2.234.585-3.401-1.168-1.168-3.323-1.538-4.813-.827zm-1.664 3.916c-1.635-1.635-1.269-3.767.818-4.762s5.104-.477 6.738 1.158c1.635 1.634 1.269 3.767-.818 4.762s-5.103.477-6.738-1.158zm15.716-1.982c-.436-.146-.895.041-.91.371l-.351 7.825c-.006.136-.091.257-.235.335s-.334.104-.524.073l-6.515-1.057c-.427-.069-.79.153-.757.463l.812 7.661c.042.395.675.649 1.106.443l21.914-10.452c.427-.203.315-.697-.198-.868zm-2.281.224c.044-.991 1.421-1.553 2.732-1.115l14.342 4.795c1.537.514 1.874 1.993.593 2.604l-21.914 10.452c-1.293.617-3.194-.144-3.319-1.329l-.813-7.662c-.098-.928.993-1.594 2.272-1.387l5.78.938z" fill="#94a2ab" fill-rule="evenodd"/><rect fill="#f3f5f8" height="143.52" rx="11.4816" transform="matrix(.902585 -.430511 .707107 .707107 500.531 202.797)" width="112.663"/><path clip-rule="evenodd" d="m590.846 222.799c-1.491.71-1.752 2.233-.585 3.401 1.168 1.168 3.323 1.538 4.813.827 1.491-.711 1.752-2.234.585-3.401-1.168-1.168-3.323-1.538-4.813-.827zm-1.664 3.916c-1.635-1.635-1.269-3.767.818-4.762s5.103-.477 6.738 1.158c1.635 1.634 1.269 3.766-.818 4.762-2.087.995-5.104.477-6.738-1.158zm15.716-1.982c-.437-.146-.896.041-.91.371l-.351 7.825c-.006.136-.091.257-.235.335s-.334.104-.524.073l-6.515-1.057c-.427-.069-.79.153-.757.463l.812 7.661c.042.395.675.649 1.106.443l21.914-10.452c.427-.203.315-.697-.198-.868zm-2.281.224c.044-.991 1.421-1.553 2.732-1.115l14.342 4.795c1.537.514 1.874 1.993.592 2.604l-21.913 10.452c-1.293.617-3.194-.144-3.32-1.329l-.812-7.662c-.098-.929.993-1.594 2.272-1.387l5.78.938z" fill="#94a2ab" fill-rule="evenodd"/><rect fill="#f3f5f8" height="124.862" rx="11.4816" transform="matrix(.902585 -.430511 .707107 .707107 358.453 60.7188)" width="112.663"/><path clip-rule="evenodd" d="m442.172 74.1267c-1.491.7109-1.752 2.2338-.585 3.4015 1.168 1.1676 3.323 1.5379 4.813.827 1.491-.7109 1.753-2.2338.585-3.4015s-3.323-1.5379-4.813-.827zm-1.664 3.9164c-1.635-1.6348-1.268-3.7668.818-4.7621 2.087-.9953 5.104-.4769 6.738 1.1578 1.635 1.6348 1.269 3.7668-.818 4.7621s-5.103.4769-6.738-1.1578zm15.716-1.9823c-.436-.146-.895.0412-.91.3714l-.351 7.8246c-.006.1362-.091.2577-.235.3353s-.334.1042-.524.0734l-6.515-1.057c-.426-.0691-.79.1528-.757.4622l.812 7.6616c.042.3951.675.6489 1.106.4432l21.914-10.4522c.427-.2037.315-.6968-.198-.868zm-2.281.2238c.045-.9908 1.422-1.5523 2.732-1.1142l14.342 4.7944c1.537.5138 1.874 1.9932.593 2.6042l-21.914 10.4522c-1.293.6169-3.194-.1444-3.319-1.3296l-.813-7.6616c-.098-.9284.993-1.5941 2.272-1.3866l5.78.9377z" fill="#94a2ab" fill-rule="evenodd"/><path d="m466.151 162.525c.427-.204.798-.444 1.113-.72.319-.278.553-.578.701-.901.145-.325.18-.663.105-1.014-.075-.356-.289-.71-.642-1.063-.332-.332-.685-.568-1.061-.708-.371-.142-.745-.221-1.121-.235-.375-.019-.731-.002-1.068.051-.34.05-.642.104-.906.162l-1.767.385c-.216.049-.436.086-.662.113s-.439.023-.64-.012c-.204-.037-.378-.127-.521-.271-.155-.155-.221-.321-.198-.499.027-.179.121-.35.281-.511.16-.167.368-.306.623-.419.39-.172.828-.251 1.314-.236.486.016.936.161 1.349.436l1.485-1.045c-.82-.522-1.686-.808-2.598-.859-.911-.051-1.807.127-2.687.533-.578.271-1.033.592-1.364.961s-.492.767-.483 1.195c.008.428.233.862.675 1.304.313.313.64.542.979.686.34.139.673.223 1 .251.327.029.631.025.912-.01.284-.036.527-.075.726-.117l2.683-.537c.402-.08.716-.088.94-.024.222.061.4.158.533.292.183.183.257.375.223.575-.031.199-.137.389-.318.57-.18.181-.401.333-.661.457-.467.223-.985.319-1.554.289-.569-.029-1.101-.205-1.595-.527l-1.464.981c.53.404 1.116.691 1.757.862.643.166 1.299.217 1.97.153.672-.069 1.319-.251 1.941-.548zm4.501-2.349 1.621-.773-2.375-2.375 4.555 1.335 2.064-.985-4.891-1.309-.193-3.55-1.959.934.242 3.392-4.019-4.019-1.609.768zm9.441-1.266 1.469-.701-3.568-8.82-1.586.757 1.713 4.14-5.012-2.567-1.644.784 7.433 3.679z" fill="#94a2ab"/><rect fill="#94a2ab" height="8.6112" rx="4.3056" transform="matrix(.902585 -.430511 .707107 .707107 468.057 170.32)" width="103.334"/><rect fill="#f3f5f8" height="8.6112" rx="4.3056" transform="matrix(.902585 -.430511 .707107 .707107 478.203 180.469)" width="73.1952"/><g clip-path="url(#n)"><path d="m223.027 84.0938 10.363-4.943m-6.811 8.4949 10.363-4.943m-6.811 8.4949 10.363-4.9429" stroke="#fe6c66" stroke-linecap="round" stroke-linejoin="round" stroke-width="2.1528"/></g><g filter="url(#c)"><rect fill="#fe6c66" height="8.6112" rx="4.3056" transform="matrix(.902585 -.430511 .707107 .707107 246.854 73.4805)" width="71.76"/></g><g clip-path="url(#o)"><circle r="7.5348" stroke="#94a2ab" stroke-width="2.1528" transform="matrix(.902585 -.430511 .707107 .707107 402.107 3.92394)"/></g><g clip-path="url(#p)"><circle r="7.5348" stroke="#94a2ab" stroke-width="2.1528" transform="matrix(.902585 -.430511 .707107 .707107 428.013 -8.43153)"/></g></g><rect height="581.256" rx="27.9864" stroke="#94a2ab" stroke-opacity=".3" stroke-width="1.4352" transform="matrix(.902585 -.430511 .707107 .707107 177.972 66.407)" width="267.665" x="1.15512" y=".198485"/></g></svg>