<svg fill="none" height="489" viewBox="0 0 1200 489" width="1200" xmlns="http://www.w3.org/2000/svg" xmlns:xlink="http://www.w3.org/1999/xlink"><filter id="a" color-interpolation-filters="sRGB" filterUnits="userSpaceOnUse" height="217.314" width="261.919" x="229.326" y="152.184"><feFlood flood-opacity="0" result="BackgroundImageFix"/><feColorMatrix in="SourceAlpha" type="matrix" values="0 0 0 0 0 0 0 0 0 0 0 0 0 0 0 0 0 0 127 0"/><feOffset dy="24.6977"/><feGaussianBlur stdDeviation="26.6475"/><feColorMatrix type="matrix" values="0 0 0 0 0.172549 0 0 0 0 0.756863 0 0 0 0 1 0 0 0 0.5 0"/><feBlend in2="BackgroundImageFix" mode="normal" result="effect1_dropShadow"/><feBlend in="SourceGraphic" in2="effect1_dropShadow" mode="normal" result="shape"/></filter><filter id="b" color-interpolation-filters="sRGB" filterUnits="userSpaceOnUse" height="223.712" width="293.857" x="583.988" y="88.0472"><feFlood flood-opacity="0" result="BackgroundImageFix"/><feColorMatrix in="SourceAlpha" type="matrix" values="0 0 0 0 0 0 0 0 0 0 0 0 0 0 0 0 0 0 127 0"/><feOffset dy="24.6977"/><feGaussianBlur stdDeviation="26.6475"/><feColorMatrix type="matrix" values="0 0 0 0 0.996078 0 0 0 0 0.423529 0 0 0 0 0.4 0 0 0 0.5 0"/><feBlend in2="BackgroundImageFix" mode="normal" result="effect1_dropShadow"/><feBlend in="SourceGraphic" in2="effect1_dropShadow" mode="normal" result="shape"/></filter><filter id="c" color-interpolation-filters="sRGB" filterUnits="userSpaceOnUse" height="344.337" width="461.177" x="-244.89" y="194.813"><feFlood flood-opacity="0" result="BackgroundImageFix"/><feColorMatrix in="SourceAlpha" type="matrix" values="0 0 0 0 0 0 0 0 0 0 0 0 0 0 0 0 0 0 127 0"/><feOffset dy="26.4449"/><feGaussianBlur stdDeviation="34.1579"/><feColorMatrix type="matrix" values="0 0 0 0 0.996078 0 0 0 0 0.423529 0 0 0 0 0.4 0 0 0 0.5 0"/><feBlend in2="BackgroundImageFix" mode="normal" result="effect1_dropShadow"/><feBlend in="SourceGraphic" in2="effect1_dropShadow" mode="normal" result="shape"/></filter><filter id="d" color-interpolation-filters="sRGB" filterUnits="userSpaceOnUse" height="183.069" width="218.111" x="789.714" y="-19.2686"><feFlood flood-opacity="0" result="BackgroundImageFix"/><feColorMatrix in="SourceAlpha" type="matrix" values="0 0 0 0 0 0 0 0 0 0 0 0 0 0 0 0 0 0 127 0"/><feOffset dy="22.8518"/><feGaussianBlur stdDeviation="24.6559"/><feColorMatrix type="matrix" values="0 0 0 0 0.172549 0 0 0 0 0.756863 0 0 0 0 1 0 0 0 0.5 0"/><feBlend in2="BackgroundImageFix" mode="normal" result="effect1_dropShadow"/><feBlend in="SourceGraphic" in2="effect1_dropShadow" mode="normal" result="shape"/></filter><filter id="e" color-interpolation-filters="sRGB" filterUnits="userSpaceOnUse" height="183.069" width="218.111" x="1193.72" y="153.509"><feFlood flood-opacity="0" result="BackgroundImageFix"/><feColorMatrix in="SourceAlpha" type="matrix" values="0 0 0 0 0 0 0 0 0 0 0 0 0 0 0 0 0 0 127 0"/><feOffset dy="22.8518"/><feGaussianBlur stdDeviation="24.6559"/><feColorMatrix type="matrix" values="0 0 0 0 0.996078 0 0 0 0 0.423529 0 0 0 0 0.4 0 0 0 0.5 0"/><feBlend in2="BackgroundImageFix" mode="normal" result="effect1_dropShadow"/><feBlend in="SourceGraphic" in2="effect1_dropShadow" mode="normal" result="shape"/></filter><filter id="f" color-interpolation-filters="sRGB" filterUnits="userSpaceOnUse" height="183.069" width="218.111" x="160.796" y="-89.4912"><feFlood flood-opacity="0" result="BackgroundImageFix"/><feColorMatrix in="SourceAlpha" type="matrix" values="0 0 0 0 0 0 0 0 0 0 0 0 0 0 0 0 0 0 127 0"/><feOffset dy="22.8518"/><feGaussianBlur stdDeviation="24.6559"/><feColorMatrix type="matrix" values="0 0 0 0 0.996078 0 0 0 0 0.423529 0 0 0 0 0.4 0 0 0 0.5 0"/><feBlend in2="BackgroundImageFix" mode="normal" result="effect1_dropShadow"/><feBlend in="SourceGraphic" in2="effect1_dropShadow" mode="normal" result="shape"/></filter><clipPath id="g"><rect height="618.742" rx="30.4799" transform="matrix(.902585 -.430511 .707107 .707107 92.7793 198.211)" width="285.749"/></clipPath><clipPath id="h"><path d="m0 0h45.7199v45.7199h-45.7199z" transform="matrix(.902585 -.430511 .707107 .707107 278.826 353.785)"/></clipPath><clipPath id="i"><path d="m0 0h285.749v103.632h-285.749z" transform="matrix(.902585 -.430511 .707107 .707107 92.7793 198.211)"/></clipPath><clipPath id="j"><path d="m0 0h45.7199v45.7199h-45.7199z" transform="matrix(.902585 -.430511 .707107 .707107 334.863 409.82)"/></clipPath><clipPath id="k"><path d="m0 0h45.7199v45.7199h-45.7199z" transform="matrix(.902585 -.430511 .707107 .707107 390.9 465.859)"/></clipPath><clipPath id="l"><path d="m0 0h285.749v82.2957h-285.749z" transform="matrix(.902585 -.430511 .707107 .707107 472.102 577.535)"/></clipPath><clipPath id="m"><path d="m0 0h18.2879v18.2879h-18.2879z" transform="matrix(.902585 -.430511 .707107 .707107 699.961 487.953)"/></clipPath><clipPath id="n"><rect height="618.742" rx="30.4799" transform="matrix(.902585 -.430511 .707107 .707107 466.215 143.633)" width="285.749"/></clipPath><clipPath id="o"><path d="m0 0h285.749v256.793h-285.749z" transform="matrix(.902585 -.430511 .707107 .707107 565.355 242.773)"/></clipPath><clipPath id="p"><path d="m0 0h285.749v73.1518h-285.749z" transform="matrix(.902585 -.430511 .707107 .707107 466.215 143.633)"/></clipPath><clipPath id="q"><path d="m0 0h18.2879v18.2879h-18.2879z" transform="matrix(.902585 -.430511 .707107 .707107 508.584 161.621)"/></clipPath><clipPath id="r"><path d="m0 0h18.2879v18.2879h-18.2879z" transform="matrix(.902585 -.430511 .707107 .707107 716.979 62.2227)"/></clipPath><clipPath id="s"><path d="m0 0h17.0429v17.0429h-17.0429z" transform="matrix(.707107 .707107 -.902585 .430511 591.393 55.3711)"/></clipPath><clipPath id="t"><rect height="614.593" rx="30.2755" transform="matrix(.902585 -.430511 .707107 .707107 -249 295.18)" width="283.833"/></clipPath><clipPath id="u"><path d="m0 0h283.833v72.6613h-283.833z" transform="matrix(.902585 -.430511 .707107 .707107 -249 295.18)"/></clipPath><clipPath id="v"><path d="m0 0h18.1653v18.1653h-18.1653z" transform="matrix(.902585 -.430511 .707107 .707107 -27.2441 227.352)"/></clipPath><clipPath id="w"><path d="m0 0h18.1653v18.1653h-18.1653z" transform="matrix(.902585 -.430511 .707107 .707107 .082031 214.316)"/></clipPath><clipPath id="x"><path d="m0 0h18.1653v18.1653h-18.1653z" transform="matrix(.902585 -.430511 .707107 .707107 146.191 360.422)"/></clipPath><clipPath id="y"><path d="m0 0h39.3582v9.08266h-39.3582z" transform="matrix(.902585 -.430511 .707107 .707107 4.86133 385.574)"/></clipPath><clipPath id="z"><rect height="615.048" rx="30.2979" transform="matrix(.902585 -.430511 .707107 .707107 721.92 -53.7148)" width="284.043"/></clipPath><clipPath id="A"><path d="m0 0h24.2383v24.2383h-24.2383z" transform="matrix(.902585 -.430511 .707107 .707107 816.867 -7.23828)"/></clipPath><clipPath id="B"><rect height="615.048" rx="30.2979" transform="matrix(.902585 -.430511 .707107 .707107 -311 -296.715)" width="284.043"/></clipPath><mask id="C" height="489" maskUnits="userSpaceOnUse" width="1200" x="0" y="0"><path d="m0 0h1200v489h-1200z" fill="#e6f1fa"/></mask><g mask="url(#C)"><g clip-path="url(#g)"><rect fill="#fff" height="618.742" rx="30.4799" transform="matrix(.902585 -.430511 .707107 .707107 92.7793 198.211)" width="285.749"/><path d="m0 0h285.749v79.2478h-285.749z" fill="#fff" transform="matrix(.902585 -.430511 .707107 .707107 246.34 351.773)"/><rect fill="#f3f5f8" height="54.8638" rx="27.4319" transform="matrix(.902585 -.430511 .707107 .707107 271.467 352.52)" width="54.8638"/><g clip-path="url(#h)" fill="#94a2ab"><path clip-rule="evenodd" d="m299.768 354.41c-.95.453-1.117 1.423-.373 2.167l15.267 15.267c.744.744 2.116.979 3.066.527l13.755-6.561c.95-.453 1.117-1.424.373-2.168l-9.429-9.429-6.305 3.007c-1.583.755-3.871.362-5.111-.878l-4.939-4.939zm8.085-2.919 12.865 2.211-5.494 2.62c-.95.453-2.322.217-3.066-.527zm-9.604 5.633c-1.24-1.24-.962-2.857.621-3.612l6.877-3.28c.152-.073.345-.095.537-.062l16.354 2.81c.192.033.367.118.486.237l9.878 9.879c1.24 1.24.962 2.857-.621 3.612l-13.755 6.561c-1.583.754-3.871.361-5.111-.879z" fill-rule="evenodd"/><path d="m313.61 365.713c-.248-.248-.192-.571.124-.722l5.732-2.734c.316-.151.774-.072 1.022.176s.192.571-.124.722l-5.731 2.734c-.317.151-.775.072-1.023-.176z"/><path d="m316.304 368.407c-.248-.248-.192-.571.125-.722l9.17-4.374c.316-.151.774-.072 1.022.176s.192.571-.124.722l-9.17 4.374c-.317.151-.775.072-1.023-.176z"/></g><rect fill="#94a2ab" height="13.716" rx="6.85798" transform="matrix(.902585 -.430511 .707107 .707107 345.576 329.109)" width="125.73"/><rect fill="#f3f5f8" height="9.14397" rx="4.57199" transform="matrix(.902585 -.430511 .707107 .707107 361.74 345.273)" width="80.7718"/><g clip-path="url(#i)"><path d="m0 0h285.749v103.632h-285.749z" fill="#fff" transform="matrix(.902585 -.430511 .707107 .707107 92.7793 198.211)"/><rect fill="#94a2ab" height="13.716" rx="6.85798" transform="matrix(.902585 -.430511 .707107 .707107 141.615 222.668)" width="91.4397"/><rect fill="#dfe6ec" height="13.716" rx="6.85798" transform="matrix(.902585 -.430511 .707107 .707107 159.936 240.984)" width="184.403"/></g><path d="m0 0h285.749v79.2478h-285.749z" fill="#fff" transform="matrix(.902585 -.430511 .707107 .707107 302.377 407.809)"/><rect fill="#f3f5f8" height="54.8638" rx="27.4319" transform="matrix(.902585 -.430511 .707107 .707107 327.504 408.555)" width="54.8638"/><g clip-path="url(#j)" fill="#94a2ab"><path clip-rule="evenodd" d="m355.803 410.445c-.95.453-1.117 1.423-.373 2.167l15.267 15.267c.744.744 2.117.98 3.066.527l13.756-6.561c.949-.453 1.116-1.424.372-2.167l-9.429-9.43-6.305 3.007c-1.582.755-3.871.362-5.111-.878l-4.939-4.939zm8.086-2.919 12.864 2.211-5.494 2.62c-.949.453-2.322.217-3.066-.527zm-9.605 5.633c-1.24-1.24-.962-2.857.621-3.612l6.877-3.28c.152-.073.346-.095.537-.062l16.355 2.81c.191.033.366.118.485.238l9.878 9.878c1.24 1.24.962 2.857-.62 3.612l-13.756 6.561c-1.582.755-3.871.361-5.11-.878z" fill-rule="evenodd"/><path d="m369.646 421.748c-.248-.248-.193-.571.124-.722l5.731-2.734c.317-.151.774-.072 1.022.176s.193.571-.124.722l-5.731 2.734c-.317.151-.775.072-1.022-.176z"/><path d="m372.34 424.442c-.248-.248-.193-.571.124-.722l9.17-4.374c.316-.151.774-.072 1.022.176s.193.571-.124.722l-9.17 4.374c-.317.151-.774.072-1.022-.176z"/></g><rect fill="#94a2ab" height="13.716" rx="6.85798" transform="matrix(.902585 -.430511 .707107 .707107 401.615 385.145)" width="125.73"/><rect fill="#f3f5f8" height="9.14397" rx="4.57199" transform="matrix(.902585 -.430511 .707107 .707107 417.777 401.309)" width="80.7718"/><path d="m0 0h285.749v79.2478h-285.749z" fill="#fff" transform="matrix(.902585 -.430511 .707107 .707107 358.414 463.848)"/><rect fill="#f3f5f8" height="54.8638" rx="27.4319" transform="matrix(.902585 -.430511 .707107 .707107 383.541 464.594)" width="54.8638"/><g clip-path="url(#k)" fill="#94a2ab"><path clip-rule="evenodd" d="m411.842 466.488c-.95.453-1.116 1.423-.373 2.167l15.267 15.267c.744.744 2.117.98 3.066.527l13.756-6.561c.949-.453 1.116-1.424.372-2.167l-9.429-9.43-6.305 3.007c-1.582.755-3.871.362-5.11-.878l-4.94-4.939zm8.086-2.919 12.864 2.211-5.494 2.62c-.949.453-2.322.217-3.066-.527zm-9.605 5.633c-1.24-1.24-.962-2.857.621-3.612l6.878-3.28c.152-.073.345-.095.536-.062l16.355 2.81c.191.033.366.118.485.238l9.878 9.878c1.24 1.24.962 2.857-.62 3.612l-13.756 6.561c-1.582.755-3.871.361-5.11-.879z" fill-rule="evenodd"/><path d="m425.685 477.791c-.248-.248-.193-.571.124-.722l5.731-2.734c.317-.151.774-.072 1.022.176s.193.571-.124.722l-5.731 2.734c-.317.151-.774.072-1.022-.176z"/><path d="m428.379 480.485c-.248-.248-.193-.571.124-.722l9.17-4.374c.317-.151.774-.072 1.022.176s.193.571-.124.722l-9.17 4.374c-.317.151-.774.072-1.022-.176z"/></g><rect fill="#94a2ab" height="13.716" rx="6.85798" transform="matrix(.902585 -.430511 .707107 .707107 457.65 441.184)" width="125.73"/><rect fill="#f3f5f8" height="9.14397" rx="4.57199" transform="matrix(.902585 -.430511 .707107 .707107 473.818 457.348)" width="80.7718"/><path d="m0 0h285.749v79.2478h-285.749z" fill="#fff" transform="matrix(.902585 -.430511 .707107 .707107 414.447 519.879)"/><rect fill="#94a2ab" height="13.716" rx="6.85798" transform="matrix(.902585 -.430511 .707107 .707107 513.686 497.215)" width="125.73"/><rect fill="#f3f5f8" height="9.14397" rx="4.57199" transform="matrix(.902585 -.430511 .707107 .707107 529.848 513.379)" width="80.7718"/><g clip-path="url(#l)"><path d="m0 0h285.749v82.2957h-285.749z" fill="#fff" transform="matrix(.902585 -.430511 .707107 .707107 472.102 577.535)"/><g clip-path="url(#m)"><circle r="8.00098" stroke="#94a2ab" stroke-width="2.28599" transform="matrix(.902585 -.430511 .707107 .707107 714.68 490.483)"/></g></g><rect fill="#f3f5f8" height="99.0597" rx="9.14397" transform="matrix(.902585 -.430511 .707107 .707107 186.334 267.387)" width="94.4877"/><g fill="#94a2ab"><path clip-rule="evenodd" d="m250.012 280.785c-1.24-1.24-.962-2.858.621-3.612l3.93-1.875c.658-.314 1.552-.306 2.304.02l2.244.975c.25.108.548.111.768.006l6.904-3.293c1.582-.755 3.871-.361 5.111.879l4.789 4.789c1.24 1.24.962 2.857-.621 3.612l-.573.273.449.449c1.24 1.24.962 2.857-.62 3.612l-13.756 6.561c-1.582.755-3.871.362-5.111-.878l-7.184-7.184c-1.24-1.24-.962-2.857.621-3.612l.573-.273zm.774 1.62c-.95.453-1.116 1.423-.372 2.167l7.184 7.184c.744.744 2.117.98 3.066.527l13.756-6.561c.949-.453 1.116-1.423.372-2.167l-4.79-4.789c-.743-.744-2.116-.98-3.066-.527l-6.904 3.293c-.658.314-1.553.306-2.304-.02l-2.244-.975c-.251-.109-.549-.111-.768-.007zm23.805-.744-3.442-3.442c-1.24-1.24-3.528-1.633-5.111-.878l-6.904 3.293c-.219.104-.518.102-.768-.007l-2.244-.974c-.752-.327-1.646-.334-2.304-.021l-2.211 1.055-.449-.449c-.744-.744-.577-1.714.373-2.167l3.93-1.875c.219-.105.517-.102.768.007l2.244.974c.751.326 1.646.334 2.304.02l6.904-3.293c.949-.453 2.322-.217 3.066.527l4.79 4.79c.744.744.577 1.714-.373 2.167z" fill-rule="evenodd"/><path d="m271.028 284.024c.496.496.385 1.143-.248 1.445s-1.548.144-2.044-.352-.385-1.142.248-1.444 1.548-.145 2.044.351z"/><path d="m267.589 285.664c.496.496.385 1.143-.248 1.445s-1.548.145-2.044-.351-.385-1.143.248-1.445 1.548-.145 2.044.351z"/></g><rect fill="#f3f5f8" height="99.0597" rx="9.14397" transform="matrix(.902585 -.430511 .707107 .707107 378.912 175.531)" width="94.4877"/><path clip-rule="evenodd" d="m442.59 188.929c-1.24-1.24-.962-2.857.621-3.612l3.93-1.874c.658-.314 1.552-.306 2.304.02l2.244.974c.25.109.548.112.768.007l6.904-3.293c1.583-.755 3.871-.362 5.111.878l4.789 4.79c1.24 1.239.962 2.857-.621 3.611l-.573.274.449.449c1.24 1.24.962 2.857-.62 3.612l-13.756 6.561c-1.582.755-3.871.361-5.11-.878l-7.185-7.185c-1.24-1.24-.962-2.857.621-3.612l.573-.273zm.774 1.62c-.95.453-1.116 1.424-.372 2.168l7.184 7.184c.744.744 2.117.98 3.066.527l13.756-6.561c.949-.453 1.116-1.423.372-2.167l-4.789-4.79c-.744-.744-2.117-.98-3.067-.527l-6.904 3.293c-.658.314-1.553.306-2.304-.02l-2.244-.974c-.25-.109-.549-.112-.768-.007zm23.805-.743-3.442-3.443c-1.24-1.24-3.528-1.633-5.111-.878l-6.904 3.293c-.219.105-.518.102-.768-.006l-2.244-.975c-.751-.326-1.646-.334-2.304-.02l-2.211 1.054-.449-.449c-.744-.744-.577-1.714.373-2.167l3.93-1.874c.219-.105.517-.102.768.006l2.244.975c.751.326 1.646.334 2.304.02l6.904-3.293c.95-.453 2.322-.217 3.066.527l4.79 4.789c.744.744.577 1.714-.373 2.167z" fill="#94a2ab" fill-rule="evenodd"/><path d="m463.606 192.168c.496.496.385 1.143-.248 1.445s-1.548.145-2.044-.351-.385-1.143.248-1.445 1.548-.145 2.044.351z" fill="#94a2ab"/><path d="m460.167 193.809c.496.496.385 1.142-.248 1.444s-1.548.145-2.044-.351-.385-1.143.248-1.445 1.549-.144 2.044.352z" fill="#94a2ab"/><g filter="url(#a)"><rect fill="#2cc1ff" height="99.0597" rx="9.14397" transform="matrix(.902585 -.430511 .707107 .707107 282.621 221.461)" width="94.4877"/><g fill="#fff"><path clip-rule="evenodd" d="m346.301 234.855c-1.24-1.24-.962-2.857.621-3.612l3.93-1.875c.658-.313 1.552-.306 2.304.021l2.244.974c.25.109.548.111.768.007l6.904-3.293c1.582-.755 3.871-.362 5.111.878l4.789 4.789c1.24 1.24.962 2.857-.621 3.612l-.573.274.449.449c1.24 1.24.962 2.857-.62 3.612l-13.756 6.56c-1.582.755-3.871.362-5.111-.878l-7.184-7.184c-1.24-1.24-.962-2.857.621-3.612l.573-.273zm.774 1.62c-.95.453-1.116 1.423-.372 2.167l7.184 7.185c.744.744 2.117.979 3.066.526l13.756-6.56c.949-.453 1.116-1.424.372-2.168l-4.789-4.789c-.744-.744-2.117-.98-3.067-.527l-6.904 3.293c-.658.314-1.553.306-2.304-.02l-2.244-.975c-.251-.108-.549-.111-.768-.006zm23.805-.743-3.442-3.443c-1.24-1.24-3.528-1.633-5.111-.878l-6.904 3.293c-.219.105-.518.102-.768-.007l-2.244-.974c-.752-.326-1.646-.334-2.304-.02l-2.211 1.054-.449-.449c-.744-.744-.577-1.714.373-2.167l3.93-1.875c.219-.104.517-.102.768.007l2.244.975c.751.326 1.646.334 2.304.02l6.904-3.293c.949-.453 2.322-.217 3.066.527l4.79 4.789c.744.744.577 1.714-.373 2.167z" fill-rule="evenodd"/><path d="m367.317 238.094c.496.496.385 1.143-.248 1.445s-1.548.145-2.044-.351-.385-1.143.248-1.445 1.548-.145 2.044.351z"/><path d="m363.878 239.734c.496.496.385 1.143-.248 1.445s-1.548.145-2.044-.351-.385-1.143.248-1.445 1.548-.145 2.044.351z"/></g></g></g><g clip-path="url(#n)"><rect fill="#fff" height="618.742" rx="30.4799" transform="matrix(.902585 -.430511 .707107 .707107 466.215 143.633)" width="285.749"/><g clip-path="url(#o)"><path d="m0 0h285.749v256.793h-285.749z" fill="#fff" transform="matrix(.902585 -.430511 .707107 .707107 565.355 242.773)"/><path d="m602.883 280.301c2.399-10.669 20.652-28.582 49.175-23.456 35.655 6.409 138.459 61.765 175.463 44.115 37.004-17.649 1.559-91.642 55.202-122.766" stroke="#dfe6ec" stroke-linecap="round" stroke-linejoin="round" stroke-width="3.04799"/><path d="m646.68 324.1c.467-19.268 24.746-63.618 58.088-72.551 55.056-14.752 142.779 30.318 181.421 11.887 22.956-10.95 21.945-35.895 24.197-57.577" stroke="#f3f5f8" stroke-linecap="round" stroke-linejoin="round" stroke-width="3.04799"/><path d="m702.836 380.252c12.896.992 50.929 9.441 48.697-35.133s-17.325-121.906 19.674-139.553c30.87-14.725 69.454-.983 98.617-40.273" stroke="#94a2ab" stroke-linecap="round" stroke-linejoin="round" stroke-width="3.04799"/><g fill="#94a2ab"><circle r="6.09598" stroke="#94a2ab" stroke-width="1.524" transform="matrix(.902585 -.430511 .707107 .707107 769.004 207.705)"/><path d="m760.579 393.714c.336.336.546.699.631 1.088.078.383-.006.762-.252 1.138-.247.375-.675.708-1.286 1-.594.283-1.207.456-1.839.519-.639.056-1.247.003-1.825-.161s-1.082-.43-1.511-.798l1.51-.72c.339.278.755.456 1.249.536.503.075.993-.001 1.472-.229.429-.205.669-.453.719-.744.058-.296-.055-.585-.34-.87-.245-.246-.533-.405-.861-.477-.335-.079-.676-.103-1.022-.071-.346.031-.801.095-1.363.191-.68.124-1.262.201-1.744.231-.474.025-.96-.034-1.458-.179-.498-.144-.957-.427-1.378-.847-.368-.368-.576-.747-.623-1.135s.07-.759.35-1.113c.274-.359.692-.673 1.253-.941.892-.425 1.765-.594 2.622-.505.864.084 1.605.38 2.222.888l-1.522.726c-.317-.231-.693-.376-1.13-.435-.435-.07-.872 0-1.309.209-.396.189-.633.421-.711.697-.084.269.023.553.32.85.233.233.509.387.829.464.314.07.64.091.978.063.34-.038.787-.103 1.341-.195.689-.128 1.277-.203 1.766-.227.491-.033.989.026 1.493.177.513.147.986.437 1.419.87z"/><path d="m791.993 371.468 6.741 6.741-1.424.679-5.053-5.053 2.565 6.24-1.238.59-7.554-3.86 5.053 5.053-1.411.673-6.741-6.741 1.708-.814 8.231 4.024-2.585-6.717z"/><path d="m824.898 355.62.892.892-2.439 1.164 5.955 5.955-1.423.679-5.955-5.955-2.427 1.157-.892-.892z"/><path d="m862.669 337.6 4.669 7.887-1.734.826-7.14-4.415 3.451 6.175-1.733.827-9.026-5.808 1.547-.738 7.078 4.846-3.648-6.482 1.56-.744 7.485 4.652-4.056-6.288z"/><path d="m895.048 322.155.893.893-2.439 1.163 5.955 5.955-1.424.679-5.955-5.955-2.426 1.157-.893-.892z"/><path d="m926.914 306.956.893.892-3.751 1.789 2.124 2.124 3.095-1.476.853.854-3.095 1.476 2.978 2.977-1.412.673-6.847-6.847z"/><path d="m964.159 296.608c.336.337.547.699.631 1.089.078.383-.006.762-.252 1.137-.246.376-.675.709-1.286 1-.594.284-1.207.457-1.839.519-.639.057-1.247.003-1.825-.16-.578-.164-1.082-.43-1.511-.798l1.51-.721c.339.278.755.457 1.249.536.503.076.993-.001 1.472-.229.429-.205.669-.453.719-.744.058-.295-.055-.585-.34-.869-.245-.246-.532-.405-.861-.478-.335-.079-.676-.102-1.022-.071-.346.032-.801.096-1.363.192-.68.124-1.262.201-1.744.23-.474.026-.96-.034-1.458-.178-.498-.145-.957-.427-1.378-.847-.368-.369-.576-.747-.623-1.136-.047-.388.07-.759.351-1.112.274-.36.691-.674 1.252-.941.892-.426 1.765-.594 2.622-.506.864.085 1.605.381 2.222.888l-1.522.726c-.317-.231-.693-.376-1.13-.435-.435-.069-.872.001-1.309.209-.396.189-.633.422-.711.697-.084.27.023.553.32.851.233.232.509.387.83.463.313.07.639.092.977.064.34-.038.787-.103 1.341-.195.689-.128 1.278-.204 1.766-.227.491-.034.989.025 1.493.176.513.147.986.437 1.419.87z"/></g></g><g filter="url(#b)"><rect fill="#fe6c66" height="75.1688" rx="18.2879" transform="matrix(.902585 -.430511 .707107 .707107 637.283 180.613)" width="148.59"/><g fill="#fff"><path d="m671.922 191.447 3.949-1.884c.912-.435 1.394-.953 1.444-1.555.051-.607-.235-1.222-.859-1.846-.336-.336-.75-.595-1.242-.776-.491-.186-1.012-.247-1.565-.184.138-.252.167-.529.086-.829s-.28-.609-.597-.926c-.307-.307-.702-.568-1.184-.782s-1.018-.326-1.607-.336c-.593-.013-1.207.131-1.842.434l-3.566 1.701zm-2.549-5.072-1.494-1.494 1.833-.874c.322-.154.64-.198.954-.133.315.065.579.204.793.417.255.256.348.488.277.698-.069.205-.246.376-.531.512zm3.016 3.016-1.784-1.785 2.067-.986c.392-.187.768-.244 1.126-.172.36.067.665.225.913.474.282.282.395.559.34.834-.054.269-.252.485-.594.649zm9.418-2.444c.516-.246.888-.514 1.116-.804.229-.296.354-.651.377-1.068l.64.64 1.473-.703-3.201-3.2c-.239-.239-.468-.45-.687-.632-.218-.182-.491-.339-.817-.47-.584-.237-1.176-.317-1.777-.241-.6.076-1.195.255-1.785.537-.805.383-1.305.822-1.5 1.316-.194.494-.16.998.104 1.512l1.901-.348c-.132-.29-.11-.546.064-.768.175-.222.386-.392.633-.51.396-.189.75-.271 1.06-.247.307.02.6.145.879.375-.556.371-1.04.704-1.451 1-.414.293-.736.562-.968.806-.381.411-.547.803-.497 1.175.046.37.252.737.617 1.102.291.291.643.518 1.054.679.413.157.857.229 1.332.217.477-.017.955-.14 1.433-.368zm-.678-1.209c-.289.138-.568.197-.838.177-.273-.022-.498-.123-.676-.3-.132-.133-.192-.272-.178-.417.01-.148.1-.32.27-.515.135-.146.318-.307.55-.484.232-.183.593-.446 1.084-.79.122.128.249.273.38.435.128.158.214.311.257.458.029.096.034.229.016.4-.014.169-.084.348-.212.538-.126.184-.344.35-.653.498zm6.017-1.552 1.684-.803-7.129-7.129-1.683.803zm5.542-2.429c.516-.246.888-.514 1.116-.804.228-.295.354-.651.376-1.068l.64.64 1.474-.702-3.201-3.201c-.239-.239-.468-.45-.687-.632s-.491-.339-.817-.47c-.584-.237-1.177-.317-1.777-.241s-1.196.255-1.786.537c-.804.384-1.304.822-1.499 1.316s-.16.998.104 1.512l1.901-.348c-.132-.29-.111-.546.064-.768.174-.222.385-.392.633-.51.396-.189.749-.271 1.06-.247.307.02.6.146.878.376-.556.37-1.039.703-1.45.999-.414.293-.737.562-.968.806-.381.411-.547.803-.498 1.175.047.37.253.737.618 1.103.291.291.642.517 1.054.679.412.156.857.229 1.332.217.477-.018.954-.14 1.433-.369zm-.679-1.209c-.289.138-.568.197-.837.178-.273-.023-.498-.123-.676-.301-.132-.133-.192-.271-.178-.416.01-.149.1-.32.27-.516.135-.146.318-.307.549-.484.232-.182.594-.446 1.085-.79.122.128.248.273.38.435.128.159.213.311.256.458.029.096.035.229.017.4-.014.169-.085.349-.212.538-.126.185-.344.351-.654.498zm5.882-1.487 1.708-.815-2.657-2.657c-.327-.327-.543-.61-.65-.851-.102-.242-.131-.448-.087-.617.041-.173.126-.316.256-.43.129-.115.266-.206.411-.275.359-.171.698-.24 1.018-.207.324.032.624.121.898.267s.513.309.717.489c.201.176.361.324.481.444l2.473 2.473 1.708-.815-2.938-2.939c-.088-.087-.235-.222-.442-.405-.208-.183-.465-.37-.773-.562-.311-.196-.666-.356-1.065-.481-.395-.126-.827-.181-1.297-.162-.469.018-.965.153-1.489.403-.483.23-.841.494-1.074.791s-.366.609-.399.935l-.539-.538-1.498.715zm10.853-4.962c.776-.37 1.278-.832 1.505-1.384.228-.553.159-1.152-.208-1.799l-2.002.54c.153.299.199.564.137.794-.063.23-.284.436-.663.617-.508.242-1.032.285-1.574.127-.54-.162-1.038-.471-1.494-.927-.436-.437-.678-.858-.726-1.265-.046-.413.197-.746.729-1 .309-.147.662-.203 1.057-.167.4.033.785.162 1.155.387l1.335-1.152c-.688-.469-1.456-.731-2.303-.786-.846-.059-1.663.099-2.451.475-.681.324-1.151.726-1.412 1.203-.26.477-.319.991-.179 1.539.145.547.482 1.086 1.012 1.616.524.524 1.127.931 1.808 1.222s1.39.44 2.128.446c.738.007 1.453-.156 2.146-.486zm7.198-3.433c.643-.307 1.103-.722 1.378-1.245.28-.525.306-1.087.08-1.685l-2.062.425c.184.561-.059 1.002-.727 1.32-.458.219-.92.291-1.384.216-.461-.076-.909-.287-1.346-.632l4.692-2.238c-.564-.668-1.197-1.179-1.901-1.536s-1.431-.547-2.181-.571c-.75-.025-1.475.13-2.177.465-.66.315-1.126.711-1.397 1.189-.275.475-.345.993-.211 1.555.135.561.488 1.128 1.061 1.7.523.524 1.135.919 1.836 1.187.701.262 1.428.386 2.181.371.753-.021 1.472-.194 2.158-.521zm-4.409-4.372c.404-.193.793-.261 1.166-.205.377.054.775.244 1.192.57l-2.946 1.405c-.495-.757-.299-1.347.588-1.77z"/><path d="m700.088 212.502 2.993-1.428-1.56-1.56c1.189-.847 1.856-1.811 2.002-2.89.139-1.085-.294-2.131-1.3-3.137-.891-.89-1.918-1.457-3.082-1.7-1.157-.246-2.594-.193-4.311.159l-3.416.712c-.859.181-1.557.242-2.092.183-.541-.064-.961-.246-1.26-.545-.408-.408-.498-.866-.269-1.374.236-.511.726-.932 1.469-1.261.781-.347 1.611-.475 2.491-.386.882.08 1.676.36 2.382.838l2.65-1.901c-1.256-.801-2.562-1.316-3.917-1.544-1.353-.237-2.696-.182-4.029.165l-1.603-1.604-2.994 1.428 1.552 1.551c-1.139.79-1.764 1.682-1.874 2.677s.32 1.978 1.291 2.949c1.615 1.615 3.826 2.157 6.631 1.625l4.866-.92c1.236-.216 2.141-.037 2.716.538.448.448.55.956.304 1.523-.238.564-.772 1.043-1.601 1.438-.88.42-1.841.581-2.881.484-1.033-.102-1.988-.444-2.864-1.028l-2.609 1.779c1.244.952 2.632 1.571 4.166 1.858 1.54.284 3.064.215 4.571-.207zm10.988-7.788 3.06-1.459-12.415-12.414-3.059 1.459-1.574 2.814 2.586 2.586 1.54-2.848zm8.47-.602c1.139-.356 1.741-.864 1.807-1.524.067-.66-.314-1.403-1.142-2.231l-2.345-2.345-2.993 1.428 2.345 2.345 1.541-.735c.494.375.753.748.777 1.119.032.367-.234.659-.797.877zm10.639-8.13c.997-.476 1.731-1.097 2.199-1.864.463-.772.634-1.593.514-2.46-.126-.874-.58-1.702-1.362-2.483-.781-.782-1.693-1.374-2.735-1.777-1.035-.406-2.109-.603-3.223-.589-1.106.009-2.158.252-3.156.728-1.093.522-1.813 1.243-2.159 2.164l-1.061-1.061c-.379-.379-.622-.79-.728-1.232-.104-.451-.051-.879.161-1.286.213-.415.605-.76 1.177-1.032.763-.364 1.642-.461 2.636-.29l.463-2.691c-1.005-.149-1.945-.146-2.82.008-.875.155-1.698.415-2.468.783-1.189.567-2.031 1.253-2.526 2.058-.501.799-.637 1.67-.409 2.614.223.938.823 1.895 1.8 2.872l3.603 3.604c.903.902 1.941 1.583 3.115 2.041 1.168.453 2.359.675 3.573.664 1.221-.013 2.357-.271 3.406-.771zm-2.242-2.241c-.455.217-.958.325-1.511.325-.552.001-1.085-.093-1.598-.281s-.942-.455-1.287-.8c-.356-.356-.571-.733-.644-1.131-.071-.408-.006-.787.196-1.138.203-.36.532-.648.987-.865s.958-.326 1.51-.326c.547-.006 1.08.088 1.599.282.513.188.948.46 1.304.816.356.357.567.736.633 1.137.073.398.005.774-.204 1.129-.202.351-.53.635-.985.852zm15.933-4.289c.997-.476 1.73-1.097 2.199-1.864.463-.773.634-1.593.514-2.461-.126-.873-.58-1.701-1.362-2.483-.782-.781-1.693-1.373-2.735-1.776-1.035-.406-2.109-.603-3.223-.59-1.106.01-2.158.253-3.156.729-1.093.521-1.813 1.242-2.16 2.163l-1.06-1.06c-.379-.379-.622-.79-.728-1.232-.104-.451-.051-.879.161-1.286.212-.415.605-.76 1.177-1.033.763-.364 1.642-.46 2.636-.289l.462-2.691c-1.004-.149-1.944-.146-2.819.008-.876.154-1.698.415-2.469.783-1.188.566-2.03 1.252-2.525 2.057-.501.8-.637 1.671-.409 2.615.223.937.823 1.895 1.8 2.872l3.603 3.604c.903.902 1.941 1.582 3.115 2.041 1.168.453 2.359.675 3.573.664 1.221-.014 2.356-.271 3.406-.771zm-2.242-2.242c-.455.217-.958.326-1.511.326-.552.001-1.085-.093-1.598-.282-.513-.188-.942-.454-1.287-.799-.356-.356-.571-.734-.644-1.132-.071-.407-.006-.786.195-1.137.204-.36.533-.649.988-.866.454-.217.958-.325 1.51-.325.547-.006 1.08.087 1.599.281.513.188.948.461 1.304.817s.567.735.633 1.137c.073.398.005.774-.204 1.129-.202.351-.53.634-.985.851zm15.118-3.9c.998-.476 1.738-1.101 2.221-1.874.478-.78.664-1.607.558-2.482-.111-.881-.558-1.712-1.339-2.493-.782-.782-1.691-1.371-2.727-1.768-1.035-.407-2.106-.6-3.214-.581-1.106.01-2.158.252-3.156.728-.345.165-.677.374-.997.629-.32.254-.581.54-.784.857l-2.487-2.812 5.998-2.86-2.19-2.19-8.649 4.126 6.119 6.834 3.135-.603c.043-.217.17-.48.378-.792.203-.318.583-.609 1.14-.875.455-.217.956-.329 1.503-.335.553-.009 1.087.08 1.6.268.521.185.959.455 1.316.812.356.356.567.735.633 1.137.073.398.005.774-.204 1.128-.202.351-.53.635-.985.852-.514.245-1.131.348-1.852.31s-1.373-.24-1.956-.607l-2.28 1.978c.829.505 1.727.866 2.693 1.084.966.219 1.927.291 2.882.217.963-.077 1.844-.307 2.644-.688zm8.476-4.425 2.993-1.427-2.345-2.345-2.993 1.427zm-1.006-18.212c-.998.476-1.728 1.1-2.191 1.873-.468.766-.64 1.587-.514 2.46.121.868.572 1.693 1.353 2.475.782.781 1.69 1.375 2.725 1.781 1.042.403 2.116.6 3.222.59 1.114-.013 2.169-.258 3.167-.734 1.093-.521 1.813-1.242 2.16-2.163l1.06 1.06c.38.379.621.794.726 1.246.106.441.052.87-.161 1.286-.211.406-.603.746-1.175 1.019-.763.364-1.641.46-2.636.289l-.462 2.691c1.005.149 1.945.146 2.82-.008s1.698-.415 2.468-.783c1.188-.566 2.033-1.25 2.534-2.049.495-.805.632-1.676.409-2.614-.229-.944-.831-1.904-1.808-2.881l-3.604-3.604c-.902-.902-1.938-1.58-3.106-2.033-1.174-.458-2.371-.681-3.593-.667-1.214.01-2.345.266-3.394.766zm2.241 2.242c.455-.217.959-.326 1.511-.326.552-.001 1.085.093 1.598.282.513.188.942.454 1.287.799.357.356.57.738.642 1.145.073.399.008.778-.196 1.138-.201.351-.53.635-.984.852-.455.217-.956.328-1.502.334-.553 0-1.086-.094-1.599-.282-.519-.194-.956-.469-1.313-.825-.356-.356-.571-.734-.644-1.132-.065-.401.003-.778.204-1.128.209-.355.541-.64.996-.857zm11.45-8.772c-.998.476-1.728 1.1-2.191 1.872-.469.767-.64 1.587-.514 2.461.12.868.571 1.693 1.353 2.474.782.782 1.69 1.376 2.725 1.782 1.042.403 2.116.599 3.222.59 1.114-.014 2.169-.258 3.167-.734 1.093-.522 1.813-1.243 2.16-2.164l1.06 1.061c.379.379.621.794.726 1.245.106.442.052.871-.161 1.286-.211.407-.603.746-1.175 1.019-.763.364-1.642.461-2.636.29l-.462 2.691c1.005.149 1.945.146 2.82-.008.875-.155 1.697-.415 2.468-.783 1.188-.567 2.033-1.25 2.534-2.049.495-.805.632-1.676.409-2.614-.229-.944-.831-1.904-1.809-2.881l-3.603-3.604c-.902-.902-1.938-1.58-3.106-2.033-1.174-.459-2.371-.681-3.593-.667-1.214.01-2.345.266-3.394.766zm2.241 2.241c.455-.217.958-.325 1.511-.325.552-.001 1.085.093 1.598.281s.942.455 1.287.8c.356.356.57.738.642 1.145.073.398.008.777-.196 1.138-.201.35-.53.634-.984.851-.455.217-.956.329-1.503.335-.552 0-1.085-.094-1.598-.282-.519-.194-.956-.469-1.313-.825-.356-.357-.571-.734-.644-1.132-.066-.402.002-.778.204-1.129.209-.354.541-.64.996-.857z"/></g></g><path d="m0 0h285.749v54.8638h-285.749z" fill="#fff" transform="matrix(.902585 -.430511 .707107 .707107 759.867 437.285)"/><rect fill="#f3f5f8" height="36.5759" rx="18.2879" transform="matrix(.902585 -.430511 .707107 .707107 782.84 435.879)" width="36.5759"/><path clip-rule="evenodd" d="m813.514 450.079c-.211.1-.516.048-.681-.117l-3.293-3.293c-1.488-1.488-1.155-3.429.745-4.335l4.585-2.187c1.899-.905 4.645-.434 6.133 1.054l3.292 3.293c.166.165.129.381-.082.482-.211.1-.516.048-.682-.117l-3.293-3.293c-1.157-1.157-3.292-1.524-4.77-.82l-4.585 2.187c-1.477.705-1.736 2.214-.579 3.371l3.293 3.293c.165.165.128.381-.083.482zm-1.007-14.552c1.653 1.653 1.282 3.809-.828 4.816-2.11 1.006-5.161.482-6.814-1.171s-1.283-3.809.827-4.816c2.111-1.006 5.161-.482 6.815 1.171zm-1.427 4.217c1.689-.805 1.985-2.53.662-3.852-1.322-1.323-3.763-1.742-5.451-.937s-1.985 2.53-.662 3.853c1.323 1.322 3.763 1.741 5.451.936z" fill="#94a2ab" fill-rule="evenodd"/><rect fill="#94a2ab" height="9.14397" rx="4.57199" transform="matrix(.902585 -.430511 .707107 .707107 831.168 419.191)" width="144.78"/><rect fill="#dfe6ec" height="9.14397" rx="4.57199" transform="matrix(.902585 -.430511 .707107 .707107 841.943 429.969)" width="92.9637"/><path d="m0 0h285.749v54.8638h-285.749z" fill="#fff" transform="matrix(.902585 -.430511 .707107 .707107 802.975 480.395)"/><rect fill="#f3f5f8" height="36.5759" rx="18.2879" transform="matrix(.902585 -.430511 .707107 .707107 825.947 478.988)" width="36.5759"/><path clip-rule="evenodd" d="m856.621 493.188c-.211.101-.516.048-.681-.117l-3.293-3.293c-1.488-1.488-1.154-3.428.745-4.334l4.585-2.187c1.899-.906 4.645-.434 6.133 1.054l3.293 3.292c.165.166.128.381-.083.482s-.516.048-.681-.117l-3.293-3.293c-1.157-1.157-3.293-1.524-4.77-.819l-4.585 2.187c-1.477.704-1.737 2.213-.58 3.371l3.293 3.292c.166.166.128.381-.083.482zm-1.007-14.552c1.653 1.654 1.283 3.81-.827 4.816-2.111 1.007-5.162.483-6.815-1.171-1.653-1.653-1.282-3.809.828-4.816 2.11-1.006 5.161-.482 6.814 1.171zm-1.426 4.218c1.688-.806 1.984-2.531.662-3.853-1.323-1.323-3.763-1.742-5.452-.937-1.688.805-1.984 2.53-.662 3.853 1.323 1.322 3.764 1.742 5.452.937z" fill="#94a2ab" fill-rule="evenodd"/><rect fill="#94a2ab" height="9.14397" rx="4.57199" transform="matrix(.902585 -.430511 .707107 .707107 874.275 462.301)" width="144.78"/><rect fill="#dfe6ec" height="9.14397" rx="4.57199" transform="matrix(.902585 -.430511 .707107 .707107 885.053 473.078)" width="92.9637"/><path d="m0 0h285.749v54.8638h-285.749z" fill="#fff" transform="matrix(.902585 -.430511 .707107 .707107 846.078 523.496)"/><rect fill="#94a2ab" height="9.14397" rx="4.57199" transform="matrix(.902585 -.430511 .707107 .707107 917.381 505.402)" width="144.78"/><rect fill="#dfe6ec" height="9.14397" rx="4.57199" transform="matrix(.902585 -.430511 .707107 .707107 928.154 516.18)" width="92.9637"/><g clip-path="url(#p)"><path d="m0 0h285.749v73.1518h-285.749z" fill="#fe6c66" transform="matrix(.902585 -.430511 .707107 .707107 466.215 143.633)"/><g clip-path="url(#q)"><path d="m514.031 163 11.005-5.249m-7.233 9.021 11.004-5.249m-7.232 9.02 11.004-5.248" stroke="#ffb0ad" stroke-linecap="round" stroke-linejoin="round" stroke-width="2.28599"/></g><rect fill="#ffb0ad" height="9.14397" rx="4.57199" transform="matrix(.902585 -.430511 .707107 .707107 580.594 132.051)" width="96.7737"/><g clip-path="url(#r)"><circle r="8.00098" stroke="#ffb0ad" stroke-width="2.28599" transform="matrix(.902585 -.430511 .707107 .707107 731.697 64.7521)"/></g></g></g><path d="m383.941 107.18 149.383-71.2524c10.195-4.8626 24.934-2.33 32.921 5.6568l22.278 22.2779" stroke="#fff" stroke-linecap="round" stroke-linejoin="round" stroke-width="3.40857"/><g clip-path="url(#s)"><path d="m580.863 63.9569 10.507-5.0116c.59-.2816 1.46.0416 1.569.583l1.949 9.7084c.11.5456-.636.901-1.336.637l-12.456-4.6967c-.694-.262-.824-.9384-.233-1.2201z" fill="#fff" stroke="#94a2ab" stroke-width="3.40857"/></g><path clip-rule="evenodd" d="m391.633 103.516c-3.994-3.9938-11.363-5.2601-16.46-2.829-5.098 2.431-5.993 7.64-1.999 11.633 3.993 3.994 11.363 5.26 16.46 2.829 5.097-2.432 5.992-7.64 1.999-11.633z" fill="#fff" fill-rule="evenodd" opacity=".4"/><path d="m378.788 104.297c2.548-1.215 6.233-.582 8.23 1.415 1.996 1.996 1.549 4.6-1 5.816-2.548 1.216-6.233.583-8.23-1.414s-1.549-4.601 1-5.817z" fill="#fff" stroke="#94a2ab" stroke-width="3.40857"/><g clip-path="url(#t)"><rect fill="#fff" height="614.593" rx="30.2755" transform="matrix(.902585 -.430511 .707107 .707107 -249 295.18)" width="283.833"/><rect fill="#f3f5f8" height="90.8266" rx="12.1102" transform="matrix(.902585 -.430511 .707107 .707107 -32.9727 486.992)" width="118.831"/><path clip-rule="evenodd" d="m40.8769 486.684c-1.5721.749-1.8481 2.356-.6165 3.587 1.2316 1.232 3.5045 1.622 5.0765.873 1.5721-.75 1.8481-2.357.6165-3.588-1.2316-1.232-3.5044-1.622-5.0765-.872zm-1.7551 4.13c-1.7242-1.724-1.3378-3.973.8631-5.022 2.2009-1.05 5.3829-.504 7.1071 1.221 1.7242 1.724 1.3378 3.973-.8631 5.023-2.2009 1.049-5.3828.503-7.1071-1.222zm16.577-2.09c-.4608-.155-.9449.043-.9605.391l-.3696 8.253c-.0064.144-.0964.272-.2483.354s-.352.11-.5522.077l-6.8721-1.115c-.4498-.072-.8334.162-.7988.488l.8567 8.081c.0442.417.7124.684 1.1671.468l23.1132-11.025c.4504-.215.3321-.735-.2083-.916zm-2.4061.236c.0468-1.045 1.4991-1.638 2.8816-1.176l15.1271 5.057c1.6212.542 1.9761 2.103.6249 2.747l-23.1132 11.025c-1.3641.65-3.3687-.153-3.5013-1.403l-.8566-8.081c-.1038-.979 1.0467-1.681 2.3963-1.462l6.0965.989z" fill="#94a2ab" fill-rule="evenodd"/><rect fill="#f3f5f8" height="90.8266" rx="12.1102" transform="matrix(.902585 -.430511 .707107 .707107 83.166 431.594)" width="118.831"/><g fill="#94a2ab"><path clip-rule="evenodd" d="m157.018 431.285c-1.573.75-1.849 2.356-.617 3.588 1.232 1.231 3.504 1.622 5.077.872 1.572-.75 1.848-2.356.616-3.588-1.232-1.231-3.504-1.622-5.076-.872zm-1.756 4.131c-1.724-1.724-1.337-3.973.864-5.023 2.2-1.05 5.382-.503 7.107 1.221 1.724 1.725 1.337 3.973-.863 5.023-2.201 1.05-5.383.503-7.108-1.221zm16.577-2.091c-.46-.154-.944.044-.96.392l-.37 8.253c-.006.143-.096.272-.248.353-.152.082-.352.11-.552.078l-6.872-1.115c-.45-.073-.834.161-.799.488l.857 8.081c.044.416.712.684 1.167.467l23.113-11.024c.45-.215.332-.735-.208-.916zm-2.406.236c.047-1.045 1.499-1.637 2.882-1.175l15.127 5.057c1.621.542 1.976 2.102.625 2.747l-23.113 11.024c-1.364.651-3.369-.152-3.502-1.402l-.856-8.081c-.104-.98 1.047-1.682 2.396-1.463l6.097.989z" fill-rule="evenodd"/><path d="m167.748 506.497c.334.334.543.695.627 1.081.078.381-.006.757-.251 1.13-.244.373-.67.704-1.277.993-.59.282-1.199.454-1.827.516-.634.056-1.238.003-1.812-.16-.574-.162-1.075-.426-1.501-.792l1.5-.716c.337.276.75.454 1.241.533.499.075.986-.001 1.461-.228.427-.203.665-.45.714-.739.058-.293-.054-.581-.337-.864-.244-.244-.529-.402-.855-.474-.333-.078-.671-.102-1.015-.07-.344.031-.796.094-1.354.19-.676.123-1.253.199-1.733.229-.471.025-.953-.034-1.448-.177-.495-.144-.951-.424-1.368-.842-.366-.366-.573-.742-.619-1.127-.047-.386.069-.754.348-1.106.272-.357.687-.669 1.244-.935.886-.422 1.753-.589 2.604-.502.859.084 1.594.378 2.208.882l-1.513.722c-.314-.23-.688-.374-1.122-.432-.432-.069-.866 0-1.3.207-.394.188-.629.419-.706.693-.084.267.022.549.318.844.231.231.505.385.824.461.311.069.635.09.971.063.337-.038.781-.102 1.331-.194.685-.127 1.269-.202 1.755-.225.487-.033.982.025 1.483.175.509.146.979.434 1.409.864zm7.051-.688-4.795-1.199 2.36 2.36-1.402.669-7.128-7.129 1.401-.669 4.085 4.085.146-3.413 1.685-.804-.312 4.047 5.694 1.226zm-1.861-6.952 5.931 2.933-2.02-4.799 1.561-.744 3.738 9.785-1.562.745-1.186-3.347-8.036-3.823zm7.538-5.872c-.186-.187-.258-.38-.216-.58s.198-.365.468-.494c.271-.129.549-.172.835-.128.294.04.534.153.721.34.186.186.251.378.194.575-.048.194-.208.356-.478.485-.271.129-.546.175-.825.137-.28-.037-.513-.149-.699-.335zm3.14.779 5.308 5.308-1.402.668-5.308-5.308zm3.855-1.939c.795-.379 1.591-.521 2.387-.427.799.084 1.518.367 2.157.849l-1.328.634c-.346-.262-.737-.417-1.173-.465-.434-.059-.864.014-1.29.217-.353.168-.56.367-.622.595-.06.219.022.44.247.665.167.167.372.269.614.305s.494.034.757-.006c.271-.043.635-.122 1.091-.235.598-.153 1.101-.255 1.509-.307.416-.056.84-.031 1.274.075.435.096.832.324 1.192.684.443.443.585.906.427 1.389-.15.48-.59.894-1.32 1.242-.844.402-1.683.575-2.516.517-.824-.062-1.566-.344-2.225-.845l1.365-.651c.33.269.728.425 1.195.468s.934-.047 1.401-.27c.336-.16.531-.353.585-.577.055-.235-.023-.459-.235-.671-.186-.186-.408-.299-.665-.338-.256-.038-.524-.034-.803.014-.286.041-.654.122-1.103.241-.582.145-1.073.247-1.475.305-.393.055-.8.036-1.22-.058-.419-.104-.802-.329-1.149-.676-.449-.449-.599-.914-.449-1.393.152-.49.609-.917 1.372-1.281zm11.038-5.265c.591-.281 1.225-.422 1.902-.423.686-.005 1.365.136 2.039.422.673.286 1.286.705 1.838 1.257.559.559.913 1.107 1.061 1.643.149.536.099 1.025-.15 1.466-.241.437-.656.797-1.247 1.078-.614.293-1.258.425-1.93.394-.672-.03-1.29-.2-1.854-.51l1.233 1.234-1.402.668-7.129-7.129 1.402-.668 3.054 3.054c-.22-.474-.231-.934-.034-1.379.197-.444.603-.814 1.217-1.107zm.533 1.169c-.393.188-.672.43-.835.726-.171.29-.211.613-.122.968.083.35.298.698.645 1.045.353.353.752.618 1.195.795.444.178.895.266 1.355.265.452-.007.876-.105 1.269-.293.623-.297.969-.689 1.038-1.178.062-.494-.179-1.014-.725-1.56-.54-.54-1.155-.877-1.847-1.012s-1.349-.053-1.973.244zm3.528-5.695 7.129 7.129-1.402.668-7.129-7.129zm6.549-.534c.655-.313 1.355-.485 2.098-.517s1.468.087 2.174.357c.706.271 1.335.682 1.887 1.234.559.559.897 1.114 1.012 1.666.116.552.021 1.062-.285 1.531-.306.468-.788.859-1.443 1.172-.656.313-1.356.485-2.099.517-.734.028-1.459-.091-2.173-.358-.713-.276-1.345-.691-1.898-1.243-.552-.553-.886-1.105-1.002-1.656-.108-.556-.013-1.066.285-1.531.307-.469.788-.859 1.444-1.172zm.953.954c-.36.172-.628.394-.803.667s-.222.59-.14.95c.082.349.317.716.702 1.102.392.391.809.676 1.253.853.452.174.894.252 1.326.236.431-.016.828-.11 1.188-.283.361-.172.629-.394.804-.667s.22-.585.138-.934c-.075-.353-.309-.726-.7-1.117-.386-.386-.804-.665-1.256-.839-.45-.183-.891-.267-1.323-.251s-.828.111-1.189.283zm6.936-4.717c.656-.313 1.356-.485 2.099-.517s1.467.087 2.173.357c.707.27 1.336.682 1.888 1.234.559.559.896 1.114 1.012 1.666s.021 1.062-.285 1.531c-.307.468-.788.859-1.444 1.172s-1.355.485-2.098.517c-.735.028-1.459-.091-2.174-.358-.712-.277-1.345-.691-1.897-1.243-.552-.553-.887-1.105-1.002-1.657-.108-.555-.013-1.065.285-1.53.306-.469.787-.859 1.443-1.172zm.954.953c-.361.172-.628.395-.803.668s-.222.59-.141.949c.083.35.317.717.703 1.102.391.392.809.677 1.253.854.452.173.893.252 1.325.236s.828-.111 1.189-.283.628-.394.803-.667c.175-.274.221-.585.138-.934-.075-.353-.308-.726-.7-1.118-.385-.385-.804-.664-1.255-.838-.451-.183-.891-.267-1.323-.251s-.828.11-1.189.282z"/><rect height="9.08266" rx="4.54133" transform="matrix(.902585 -.430511 .707107 .707107 169.871 518.301)" width="108.992"/></g><g clip-path="url(#u)"><path d="m0 0h283.833v72.6613h-283.833z" fill="#fff" transform="matrix(.902585 -.430511 .707107 .707107 -249 295.18)"/><g clip-path="url(#v)"><circle r="7.94733" stroke="#94a2ab" stroke-width="2.27066" transform="matrix(.902585 -.430511 .707107 .707107 -12.6272 229.862)"/></g><g clip-path="url(#w)"><circle r="7.94733" stroke="#94a2ab" stroke-width="2.27066" transform="matrix(.902585 -.430511 .707107 .707107 14.7029 216.823)"/></g></g><path d="m0 0h283.833v36.3306h-283.833z" fill="#fff" transform="matrix(.902585 -.430511 .707107 .707107 -83.623 460.551)"/><rect fill="#94a2ab" height="13.624" rx="6.81199" transform="matrix(.902585 -.430511 .707107 .707107 -59.2012 460.758)" width="124.887"/><g clip-path="url(#x)"><path d="m163.336 367.885 1.15-6.697-9.476-1.629" stroke="#94a2ab" stroke-linecap="round" stroke-linejoin="round" stroke-width="2.27066"/></g><g filter="url(#c)"><rect fill="#fe6c66" height="143.052" rx="18.1653" transform="matrix(.902585 -.430511 .707107 .707107 -176.574 343.234)" width="247.502"/><path clip-rule="evenodd" d="m-38.0762 326.844c-3.1442 1.499-3.6962 4.712-1.233 7.175s7.0088 3.244 10.153 1.745c3.1441-1.5 3.6961-4.713 1.2329-7.176s-7.0088-3.244-10.1529-1.744zm-3.5102 8.261c-3.4485-3.448-2.6756-7.946 1.7262-10.045 4.4018-2.1 10.7657-1.006 14.2141 2.442 3.4485 3.448 2.6757 7.946-1.7261 10.046-4.4018 2.099-10.7657 1.006-14.2142-2.443zm33.15402-4.181c-.92161-.308-1.88982.086-1.92102.783l-.7392 16.506c-.0129.287-.1929.544-.4967.707-.3039.164-.704.22-1.1043.155l-13.7443-2.229c-.8997-.146-1.6667.322-1.5975.975l1.7133 16.162c.0884.833 1.4248 1.368 2.3342.935l46.2265-22.049c.9008-.43.6641-1.47-.4166-1.832zm-4.81242.472c.0936-2.09 2.9984-3.275 5.76323-2.351l30.25437 10.114c3.2422 1.084 3.9522 4.205 1.2498 5.494l-46.2265 22.049c-2.7282 1.301-6.7375-.305-7.0025-2.805l-1.7133-16.162c-.2076-1.959 2.0934-3.363 4.7926-2.925l12.1931 1.978z" fill="#ffaeab" fill-rule="evenodd"/></g><g clip-path="url(#y)"><circle fill="#ffaeab" r="4.54133" transform="matrix(.902585 -.430511 .707107 .707107 12.1734 386.83)"/><g stroke="#ffaeab" stroke-width="1.51378"><circle r="3.78444" transform="matrix(.902585 -.430511 .707107 .707107 25.8375 380.319)"/><circle r="3.78444" transform="matrix(.902585 -.430511 .707107 .707107 39.4957 373.803)"/></g></g></g><g clip-path="url(#z)"><rect fill="#fff" height="615.048" rx="30.2979" transform="matrix(.902585 -.430511 .707107 .707107 721.92 -53.7148)" width="284.043"/><path d="m0 0h284.043v110.587h-284.043z" fill="#fff" transform="matrix(.902585 -.430511 .707107 .707107 974.723 199.09)"/><rect fill="#f3f5f8" height="74.2299" rx="12.1192" transform="matrix(.902585 -.430511 .707107 .707107 1003.98 204.117)" width="74.2299"/><path clip-rule="evenodd" d="m1051.83 207.532c-1.57.751-1.85 2.358-.62 3.591 1.24 1.232 3.51 1.623 5.08.873 1.58-.751 1.85-2.358.62-3.591-1.23-1.232-3.51-1.623-5.08-.873zm-1.76 4.134c-1.72-1.725-1.34-3.976.87-5.026 2.2-1.051 5.38-.504 7.11 1.222 1.73 1.725 1.34 3.976-.86 5.026-2.21 1.051-5.39.504-7.12-1.222zm16.59-2.092c-.46-.154-.94.043-.96.392l-.37 8.259c0 .144-.09.272-.25.354-.15.082-.35.11-.55.077l-6.88-1.115c-.45-.073-.83.161-.8.487l.86 8.088c.05.417.71.684 1.17.467l23.13-11.032c.45-.215.33-.736-.21-.917zm-2.4.236c.04-1.046 1.5-1.639 2.88-1.176l15.14 5.061c1.62.542 1.97 2.103.62 2.748l-23.13 11.033c-1.36.651-3.37-.152-3.5-1.403l-.86-8.087c-.1-.98 1.05-1.683 2.4-1.464l6.1.99z" fill="#94a2ab" fill-rule="evenodd"/><circle fill="#dfe6ec" r="6.05958" transform="matrix(.902585 -.430511 .707107 .707107 1091.62 172.602)"/><rect fill="#dfe6ec" height="6.05958" rx="3.02979" transform="matrix(.902585 -.430511 .707107 .707107 1100.41 165.242)" width="34.0852"/><rect fill="#94a2ab" height="9.08938" rx="4.54469" transform="matrix(.902585 -.430511 .707107 .707107 1096.86 185.922)" width="109.073"/><rect fill="#f3f5f8" height="9.08938" rx="4.54469" transform="matrix(.902585 -.430511 .707107 .707107 1109.72 198.777)" width="77.2597"/><rect fill="#f3f5f8" height="9.08938" rx="4.54469" transform="matrix(.902585 -.430511 .707107 .707107 1122.57 211.633)" width="123.464"/><path d="m0 0h284.043v110.587h-284.043z" fill="#fff" transform="matrix(.902585 -.430511 .707107 .707107 892.24 116.602)"/><circle fill="#dfe6ec" r="6.05958" transform="matrix(.902585 -.430511 .707107 .707107 933.934 125.985)"/><rect fill="#dfe6ec" height="6.05958" rx="3.02979" transform="matrix(.902585 -.430511 .707107 .707107 942.727 118.625)" width="34.0852"/><rect fill="#94a2ab" height="9.08938" rx="4.54469" transform="matrix(.902585 -.430511 .707107 .707107 939.178 139.305)" width="109.073"/><g fill="#f3f5f8"><rect height="9.08938" rx="4.54469" transform="matrix(.902585 -.430511 .707107 .707107 952.029 152.16)" width="77.2597"/><rect height="9.08938" rx="4.54469" transform="matrix(.902585 -.430511 .707107 .707107 964.883 165.016)" width="123.464"/><rect height="74.2299" rx="12.1192" transform="matrix(.902585 -.430511 .707107 .707107 1078.06 46.957)" width="74.2299"/></g><path clip-rule="evenodd" d="m1125.9 50.3799c-1.58.7504-1.85 2.3579-.62 3.5904s3.51 1.6233 5.08.8729 1.85-2.3578.62-3.5903c-1.24-1.2325-3.51-1.6234-5.08-.873zm-1.76 4.1339c-1.73-1.7256-1.34-3.976.86-5.0265 2.21-1.0506 5.39-.5034 7.12 1.2221 1.72 1.7255 1.34 3.9759-.87 5.0265-2.2 1.0505-5.38.5034-7.11-1.2221zm16.59-2.0923c-.46-.1542-.95.0434-.96.392l-.37 8.259c-.01.1438-.1.2721-.25.354s-.35.1099-.55.0774l-6.88-1.1156c-.45-.073-.83.1612-.8.4879l.86 8.087c.04.417.71.6848 1.17.4678l23.13-11.0326c.45-.215.33-.7355-.21-.9163zm-2.41.2362c.05-1.0458 1.5-1.6386 2.89-1.1761l15.13 5.0606c1.63.5424 1.98 2.1039.63 2.7488l-23.13 11.0327c-1.37.6511-3.37-.1525-3.51-1.4035l-.85-8.087c-.11-.98 1.04-1.6827 2.4-1.4636l6.1.9897z" fill="#94a2ab" fill-rule="evenodd"/><path d="m0 0h284.043v110.587h-284.043z" fill="#fff" transform="matrix(.902585 -.430511 .707107 .707107 1139.68 364.047)"/><rect fill="#f3f5f8" height="74.2299" rx="12.1192" transform="matrix(.902585 -.430511 .707107 .707107 1168.94 369.074)" width="74.2299"/><g clip-path="url(#A)"><path d="m853.283-.0401655c.714.1227263 1.363-.1869765 1.45-.6917405s-.422-1.013444-1.136-1.136174zm-12.173-7.6900045c3.106 3.10592 2.41 7.156712-1.554 9.0477l1.606 1.60679c5.098-2.431272 5.993-7.63944 1.999-11.63276zm-1.554 9.0477c-3.965 1.89099-9.697.9061-12.803-2.199818l-2.051.978269c3.994 3.993329 11.363 5.259619 16.46 2.828339zm-12.803-2.199818c-3.105-3.105922-2.409-7.156712 1.555-9.047702l-1.607-1.60681c-5.097 2.43129-5.992 7.63946-1.999 11.632781zm1.555-9.047702c3.965-1.89101 9.696-.90611 12.802 2.19982l2.051-.97827c-3.993-3.99336-11.362-5.25966-16.46-2.82836zm15.813 8.31544 9.162 1.5743845.314-1.8279145-9.162-1.57438z" fill="#94a2ab"/></g><rect height="46.9618" rx="11.3617" stroke="#94a2ab" stroke-opacity=".3" stroke-width="1.5149" transform="matrix(.902585 -.430511 .707107 .707107 791.861 -7.3942)" width="246.171" x="1.21926" y=".209507"/><path d="m0 0h284.043v110.587h-284.043z" fill="#fff" transform="matrix(.902585 -.430511 .707107 .707107 809.764 34.1211)"/><g filter="url(#d)"><rect fill="#2cc1ff" height="74.2299" rx="12.1192" transform="matrix(.902585 -.430511 .707107 .707107 839.025 39.1484)" width="74.2299"/><path clip-rule="evenodd" d="m886.877 42.5674c-1.573.7504-1.849 2.3579-.617 3.5904 1.233 1.2325 3.507 1.6233 5.08.8729 1.574-.7504 1.85-2.3578.617-3.5903-1.232-1.2325-3.507-1.6234-5.08-.873zm-1.756 4.1339c-1.726-1.7256-1.339-3.976.863-5.0265 2.203-1.0506 5.387-.5034 7.113 1.2221 1.725 1.7255 1.339 3.9759-.864 5.0265-2.203 1.0505-5.387.5034-7.112-1.2221zm16.589-2.0923c-.461-.1542-.946.0434-.961.392l-.37 8.259c-.007.1438-.097.2721-.249.354s-.352.1099-.552.0774l-6.877-1.1156c-.451-.073-.834.1612-.8.4879l.857 8.087c.045.417.713.6848 1.168.4678l23.131-11.0326c.45-.215.332-.7355-.209-.9163zm-2.408.2362c.047-1.0458 1.5-1.6386 2.884-1.1761l15.138 5.0606c1.622.5424 1.978 2.1039.625 2.7488l-23.13 11.0327c-1.365.6511-3.371-.1525-3.504-1.4035l-.857-8.087c-.104-.98 1.047-1.6827 2.398-1.4636l6.101.9897z" fill="#cbf0ff" fill-rule="evenodd"/></g><circle fill="#dfe6ec" r="6.05958" transform="matrix(.902585 -.430511 .707107 .707107 926.66 7.63309)"/><rect fill="#dfe6ec" height="6.05958" rx="3.02979" transform="matrix(.902585 -.430511 .707107 .707107 935.457 .273438)" width="34.0852"/><rect fill="#94a2ab" height="9.08938" rx="4.54469" transform="matrix(.902585 -.430511 .707107 .707107 931.898 20.9531)" width="109.073"/><rect fill="#f3f5f8" height="9.08938" rx="4.54469" transform="matrix(.902585 -.430511 .707107 .707107 944.758 33.8086)" width="77.2597"/><rect fill="#f3f5f8" height="9.08938" rx="4.54469" transform="matrix(.902585 -.430511 .707107 .707107 957.611 46.668)" width="123.464"/><path d="m0 0h284.043v110.587h-284.043z" fill="#fff" transform="matrix(.902585 -.430511 .707107 .707107 1057.21 281.57)"/><circle fill="#dfe6ec" r="6.05958" transform="matrix(.902585 -.430511 .707107 .707107 1098.9 290.953)"/><rect fill="#dfe6ec" height="6.05958" rx="3.02979" transform="matrix(.902585 -.430511 .707107 .707107 1107.7 283.598)" width="34.0852"/><rect fill="#94a2ab" height="9.08938" rx="4.54469" transform="matrix(.902585 -.430511 .707107 .707107 1104.15 304.273)" width="109.073"/><rect fill="#f3f5f8" height="9.08938" rx="4.54469" transform="matrix(.902585 -.430511 .707107 .707107 1116.99 317.129)" width="77.2597"/><rect fill="#f3f5f8" height="9.08938" rx="4.54469" transform="matrix(.902585 -.430511 .707107 .707107 1129.85 329.984)" width="123.464"/><g filter="url(#e)"><rect fill="#fe6c66" height="74.2299" rx="12.1192" transform="matrix(.902585 -.430511 .707107 .707107 1243.03 211.926)" width="74.2299"/></g></g><g clip-path="url(#B)"><rect fill="#fff" height="615.048" rx="30.2979" transform="matrix(.902585 -.430511 .707107 .707107 -311 -296.715)" width="284.043"/><path d="m0 0h284.043v110.587h-284.043z" fill="#fff" transform="matrix(.902585 -.430511 .707107 .707107 -58.1973 -43.9102)"/><rect fill="#f3f5f8" height="74.2299" rx="12.1192" transform="matrix(.902585 -.430511 .707107 .707107 -28.9355 -38.8828)" width="74.2299"/><path d="m0 0h284.043v110.587h-284.043z" fill="#fff" transform="matrix(.902585 -.430511 .707107 .707107 106.762 121.047)"/><rect fill="#f3f5f8" height="74.2299" rx="12.1192" transform="matrix(.902585 -.430511 .707107 .707107 136.023 126.074)" width="74.2299"/><path clip-rule="evenodd" d="m183.875 129.493c-1.573.751-1.849 2.358-.617 3.591 1.233 1.232 3.507 1.623 5.08.873 1.574-.751 1.85-2.358.617-3.591-1.232-1.232-3.507-1.623-5.08-.873zm-1.756 4.134c-1.726-1.725-1.339-3.976.863-5.026 2.203-1.051 5.387-.504 7.113 1.222 1.725 1.725 1.339 3.976-.864 5.026-2.202 1.051-5.387.504-7.112-1.222zm16.589-2.092c-.461-.154-.946.043-.961.392l-.37 8.259c-.007.144-.097.272-.249.354s-.352.11-.552.077l-6.877-1.115c-.451-.073-.834.161-.8.487l.858 8.087c.044.417.712.685 1.167.468l23.131-11.032c.451-.215.332-.736-.209-.917zm-2.408.236c.047-1.046 1.5-1.639 2.884-1.176l15.138 5.061c1.622.542 1.978 2.103.625 2.748l-23.13 11.033c-1.365.651-3.371-.152-3.504-1.403l-.857-8.088c-.104-.98 1.047-1.682 2.398-1.463l6.101.99z" fill="#94a2ab" fill-rule="evenodd"/><circle fill="#dfe6ec" r="6.05958" transform="matrix(.902585 -.430511 .707107 .707107 223.658 94.5589)"/><rect fill="#dfe6ec" height="6.05958" rx="3.02979" transform="matrix(.902585 -.430511 .707107 .707107 232.455 87.2031)" width="34.0852"/><rect fill="#94a2ab" height="9.08938" rx="4.54469" transform="matrix(.902585 -.430511 .707107 .707107 228.9 107.879)" width="109.073"/><rect fill="#f3f5f8" height="9.08938" rx="4.54469" transform="matrix(.902585 -.430511 .707107 .707107 241.756 120.734)" width="77.2597"/><rect fill="#f3f5f8" height="9.08938" rx="4.54469" transform="matrix(.902585 -.430511 .707107 .707107 254.607 133.59)" width="123.464"/><path d="m0 0h284.043v110.587h-284.043z" fill="#fff" transform="matrix(.902585 -.430511 .707107 .707107 24.2871 38.5703)"/><circle fill="#dfe6ec" r="6.05958" transform="matrix(.902585 -.430511 .707107 .707107 65.9806 47.9534)"/><rect fill="#dfe6ec" height="6.05958" rx="3.02979" transform="matrix(.902585 -.430511 .707107 .707107 74.7812 40.5977)" width="34.0852"/><rect fill="#94a2ab" height="9.08938" rx="4.54469" transform="matrix(.902585 -.430511 .707107 .707107 71.2266 61.2734)" width="109.073"/><rect fill="#f3f5f8" height="9.08938" rx="4.54469" transform="matrix(.902585 -.430511 .707107 .707107 84.0742 74.1289)" width="77.2597"/><rect fill="#f3f5f8" height="9.08938" rx="4.54469" transform="matrix(.902585 -.430511 .707107 .707107 96.9316 86.9844)" width="123.464"/><g filter="url(#f)"><rect fill="#fe6c66" height="74.2299" rx="12.1192" transform="matrix(.902585 -.430511 .707107 .707107 210.107 -31.0742)" width="74.2299"/></g></g></g></svg>