<svg fill="none" height="415" viewBox="0 0 585 415" width="585" xmlns="http://www.w3.org/2000/svg" xmlns:xlink="http://www.w3.org/1999/xlink"><filter id="a" color-interpolation-filters="sRGB" filterUnits="userSpaceOnUse" height="200.826" width="211.764" x="162.551" y="292.793"><feFlood flood-opacity="0" result="BackgroundImageFix"/><feColorMatrix in="SourceAlpha" type="matrix" values="0 0 0 0 0 0 0 0 0 0 0 0 0 0 0 0 0 0 127 0"/><feOffset dy="19"/><feGaussianBlur stdDeviation="20.5"/><feColorMatrix type="matrix" values="0 0 0 0 0.996078 0 0 0 0 0.423529 0 0 0 0 0.4 0 0 0 0.5 0"/><feBlend in2="BackgroundImageFix" mode="normal" result="effect1_dropShadow"/><feBlend in="SourceGraphic" in2="effect1_dropShadow" mode="normal" result="shape"/></filter><filter id="b" color-interpolation-filters="sRGB" filterUnits="userSpaceOnUse" height="177.326" width="271.841" x="229.979" y="31.7188"><feFlood flood-opacity="0" result="BackgroundImageFix"/><feColorMatrix in="SourceAlpha" type="matrix" values="0 0 0 0 0 0 0 0 0 0 0 0 0 0 0 0 0 0 127 0"/><feOffset dy="19"/><feGaussianBlur stdDeviation="20.5"/><feColorMatrix type="matrix" values="0 0 0 0 0.172549 0 0 0 0 0.756863 0 0 0 0 1 0 0 0 0.5 0"/><feBlend in2="BackgroundImageFix" mode="normal" result="effect1_dropShadow"/><feBlend in="SourceGraphic" in2="effect1_dropShadow" mode="normal" result="shape"/></filter><filter id="c" color-interpolation-filters="sRGB" filterUnits="userSpaceOnUse" height="177.326" width="271.841" x="247.23" y="48.9727"><feFlood flood-opacity="0" result="BackgroundImageFix"/><feColorMatrix in="SourceAlpha" type="matrix" values="0 0 0 0 0 0 0 0 0 0 0 0 0 0 0 0 0 0 127 0"/><feOffset dy="19"/><feGaussianBlur stdDeviation="20.5"/><feColorMatrix type="matrix" values="0 0 0 0 0.172549 0 0 0 0 0.756863 0 0 0 0 1 0 0 0 0.5 0"/><feBlend in2="BackgroundImageFix" mode="normal" result="effect1_dropShadow"/><feBlend in="SourceGraphic" in2="effect1_dropShadow" mode="normal" result="shape"/></filter><clipPath id="d"><rect height="582.691" rx="28.704" transform="matrix(.902585 -.430511 .707107 .707107 -70 241.852)" width="269.1"/></clipPath><clipPath id="e"><path d="m0 0h269.1v68.8896h-269.1z" transform="matrix(.902585 -.430511 .707107 .707107 -70 241.852)"/></clipPath><clipPath id="f"><rect height="582.691" rx="28.704" transform="matrix(.902585 -.430511 .707107 .707107 145 59.8516)" width="269.1"/></clipPath><clipPath id="g"><path d="m0 0h269.1v97.5936h-269.1z" transform="matrix(.902585 -.430511 .707107 .707107 145 59.8516)"/></clipPath><mask id="h" height="415" maskUnits="userSpaceOnUse" width="585" x="0" y="0"><path d="m0 0h585v415h-585z" fill="#e6f1fa"/></mask><g mask="url(#h)"><g clip-path="url(#d)"><rect fill="#fff" height="582.691" rx="28.704" transform="matrix(.902585 -.430511 .707107 .707107 -70 241.852)" width="269.1"/><g clip-path="url(#e)"><path d="m0 0h269.1v68.8896h-269.1z" fill="#fff" transform="matrix(.902585 -.430511 .707107 .707107 -70 241.852)"/><rect fill="#94a2ab" height="8.6112" rx="4.3056" transform="matrix(.902585 -.430511 .707107 .707107 34.4766 232.488)" width="98.3112"/></g><path d="m0 0h269.1v196.622h-269.1z" fill="#fff" transform="matrix(.902585 -.430511 .707107 .707107 59.3926 371.242)"/><rect fill="#f3f5f8" height="114.098" rx="17.1626" transform="matrix(.902585 -.430511 .707107 .707107 121.113 410)" width="34.3252"/><rect fill="#f3f5f8" height="88.9824" rx="17.1626" transform="matrix(.902585 -.430511 .707107 .707107 175.035 410.512)" width="34.3252"/><rect fill="#dfe6ec" height="136.344" rx="17.1626" transform="matrix(.902585 -.430511 .707107 .707107 177.709 359.773)" width="34.3252"/><g filter="url(#a)"><rect fill="#fe6c66" height="162.178" rx="17.1626" transform="matrix(.902585 -.430511 .707107 .707107 195.604 324.258)" width="34.3252"/></g><rect fill="#f3f5f8" height="88.9824" rx="17.1626" transform="matrix(.902585 -.430511 .707107 .707107 283.523 358.766)" width="34.3252"/><rect fill="#f2f5f8" height="114.098" rx="17.1626" transform="matrix(.902585 -.430511 .707107 .707107 301.928 323.758)" width="34.3252"/><rect fill="#f3f5f8" height="91.408" rx="17.2224" transform="matrix(.902585 -.430511 .707107 .707107 12.5234 301.418)" width="234.655"/><g fill="#94a2ab"><path d="m51.0977 315.625 4.3389-2.07c1.002-.477 1.5307-1.047 1.586-1.708.0563-.667-.2583-1.343-.9438-2.029-.3694-.369-.8242-.653-1.3645-.852-.5392-.204-1.1124-.272-1.7195-.203.1516-.277.183-.58.094-.91s-.3075-.669-.6556-1.017c-.3374-.338-.7711-.624-1.3009-.859-.5298-.236-1.1184-.359-1.7658-.37-.6509-.015-1.3255.144-2.0237.477l-3.9173 1.869zm-2.8009-5.573-1.641-1.641 2.0131-.96c.3536-.169.7033-.218 1.049-.147.3457.072.6358.224.8702.459.2806.28.3824.536.3052.767-.0761.225-.2706.412-.5834.562zm3.314 3.314-1.9607-1.961 2.2715-1.083c.4307-.206.8432-.269 1.2374-.189.3952.074.7296.247 1.0031.521.309.309.4335.614.3733.915-.0591.296-.2768.534-.6532.713zm10.3474-2.685c.5667-.27.9753-.565 1.2257-.884.2514-.324.3893-.715.4138-1.173l.7033.703 1.6186-.772-3.5164-3.516c-.2628-.263-.5144-.494-.7547-.695-.2404-.2-.5396-.372-.8978-.516-.6421-.26-1.2929-.348-1.9524-.265-.6595.084-1.3135.281-1.9618.59-.8841.422-1.4332.904-1.6471 1.447-.214.542-.1759 1.096.1141 1.661l2.0886-.383c-.145-.319-.1216-.6.0701-.844.1917-.243.4236-.43.6956-.56.4352-.207.8234-.298 1.1643-.272.3374.023.6592.161.9655.413-.6111.407-1.1422.773-1.5936 1.099-.4549.322-.8094.617-1.0636.885-.4189.451-.6011.882-.5466 1.291.051.406.2772.81.6785 1.211.3197.32.7057.569 1.158.746.4532.172.9411.252 1.4637.239.5235-.019 1.0482-.154 1.5742-.405zm-.7458-1.328c-.3173.151-.624.216-.92.195-.2996-.025-.547-.136-.7424-.331-.1456-.146-.211-.298-.1961-.457.0113-.163.1104-.352.2972-.567.1481-.16.3492-.337.6033-.532.255-.2.6522-.489 1.1917-.867.134.141.2731.3.4174.478.1407.174.2347.341.2819.502.0319.106.0379.253.0181.44-.0153.186-.0928.383-.2327.591-.1389.203-.3783.385-.7184.548zm6.6116-1.706 1.8498-.882-7.8321-7.832-1.8498.882zm6.0887-2.668c.5667-.27.9753-.565 1.2257-.884.2514-.324.3894-.715.4139-1.173l.7033.703 1.6186-.772-3.5165-3.516c-.2628-.263-.5144-.494-.7547-.695-.2403-.2-.5396-.372-.8978-.516-.642-.26-1.2928-.348-1.9524-.265-.6595.084-1.3135.281-1.9618.59-.8841.422-1.4331.904-1.6471 1.447-.214.542-.1759 1.096.1142 1.661l2.0885-.383c-.1449-.319-.1216-.6.0701-.844.1917-.243.4236-.43.6956-.56.4353-.207.8234-.298 1.1643-.272.3375.023.6593.161.9655.413-.611.407-1.1422.773-1.5935 1.099-.4549.322-.8095.617-1.0636.885-.419.451-.6011.882-.5466 1.291.0509.406.2771.81.6785 1.211.3196.32.7056.569 1.1579.746.4533.172.9412.252 1.4637.239.5236-.019 1.0483-.154 1.5742-.405zm-.7457-1.328c-.3174.151-.6241.216-.9201.195-.2995-.025-.547-.136-.7423-.331-.1457-.146-.211-.298-.1962-.457.0114-.163.1104-.352.2972-.567.1482-.16.3493-.337.6033-.532.255-.2.6523-.489 1.1917-.867.134.141.2732.3.4174.478.1407.174.2347.341.282.502.0318.106.0378.253.018.44-.0152.186-.0928.383-.2326.591-.1389.203-.3784.385-.7184.548zm6.4619-1.635 1.877-.895-2.9197-2.92c-.3587-.358-.5966-.67-.7135-.934-.1124-.267-.1443-.493-.0957-.678.045-.19.1387-.347.2809-.473.1423-.125.2928-.226.4515-.302.3944-.188.7675-.263 1.1191-.227.3561.035.6848.133.986.293.3013.161.564.34.7881.537.2206.194.3966.357.528.488l2.7173 2.717 1.877-.895-3.2287-3.229c-.0959-.095-.2577-.244-.4854-.445s-.5107-.407-.8491-.618c-.3419-.214-.732-.39-1.1705-.527-.4339-.14-.9086-.199-1.424-.179-.5155.02-1.0611.168-1.6369.442-.5305.253-.9236.543-1.1796.87-.2559.327-.4022.669-.4388 1.028l-.5914-.592-1.6458.785zm11.9249-5.451c.8523-.407 1.4035-.914 1.6535-1.521s.1739-1.266-.2285-1.976l-2.1997.592c.1683.329.2182.62.1497.873-.0684.253-.3112.479-.7283.678-.5577.266-1.1338.313-1.7285.14-.5937-.178-1.1409-.518-1.6417-1.019-.4795-.479-.7454-.943-.7976-1.39-.0512-.453.2157-.819.8006-1.098.34-.162.7272-.224 1.1617-.184.4389.037.862.179 1.2692.425l1.4662-1.266c-.7564-.515-1.5998-.803-2.5302-.862-.9294-.066-1.8271.108-2.693.521-.7481.357-1.265.797-1.5508 1.322-.2858.524-.3514 1.088-.197 1.691.159.601.5297 1.193 1.1122 1.775.5755.576 1.2373 1.023 1.9857 1.343s1.5278.483 2.3383.49c.8104.007 1.5965-.171 2.3582-.534zm7.9074-3.772c.7068-.337 1.2118-.793 1.5148-1.368.307-.577.336-1.194.087-1.851l-2.2651.466c.2019.617-.0643 1.101-.7988 1.452-.5033.24-1.0101.319-1.5205.237-.5058-.084-.9988-.316-1.4788-.695l5.1552-2.459c-.6193-.733-1.3156-1.296-2.089-1.687-.7735-.392-1.5721-.601-2.3958-.628-.8236-.027-1.6209.143-2.3916.511-.7254.346-1.2373.782-1.5357 1.307-.3019.522-.3789 1.091-.231 1.708.1479.616.5362 1.239 1.1649 1.868.5754.575 1.2479 1.01 2.0173 1.304.7705.288 1.5692.424 2.3962.407.828-.022 1.6183-.213 2.3709-.572zm-4.8436-4.804c.4443-.211.8713-.287 1.2812-.225.4143.059.8508.268 1.3095.627l-3.2371 1.544c-.5439-.832-.3284-1.481.6464-1.946z"/><path d="m84.9973 341.058 3.5234-1.68-1.8368-1.837c1.4003-.998 2.1858-2.132 2.3565-3.402.164-1.278-.346-2.508-1.53-3.692-1.0486-1.049-2.258-1.716-3.628-2.002-1.3614-.29-3.0528-.228-5.0744.187l-4.021.839c-1.0117.212-1.8327.284-2.463.215-.6371-.076-1.1316-.29-1.4834-.641-.4803-.481-.5859-1.02-.3166-1.618.2779-.602.8545-1.097 1.7297-1.485.9184-.408 1.8958-.559 2.9322-.454 1.0382.095 1.9728.423 2.8036.986l3.1197-2.237c-1.479-.944-3.016-1.549-4.611-1.818-1.5932-.279-3.174-.215-4.7426.194l-1.8876-1.888-3.5235 1.681 1.8267 1.826c-1.341.93-2.0764 1.98-2.2063 3.151s.3769 2.329 1.5202 3.472c1.9012 1.901 4.503 2.539 7.8057 1.913l5.7279-1.084c1.4549-.254 2.5206-.043 3.1972.634.5277.528.647 1.125.3579 1.793-.2805.663-.9087 1.228-1.8846 1.693-1.0363.494-2.1669.684-3.3918.569-1.2163-.12-2.3402-.523-3.3717-1.21l-3.0713 2.094c1.4645 1.12 3.0992 1.85 4.9043 2.188 1.8136.334 3.6074.253 5.3814-.244zm15.5457-9.963c1.174-.56 2.046-1.295 2.615-2.206.562-.918.781-1.891.656-2.921-.131-1.037-.656-2.015-1.576-2.936-.921-.92-1.991-1.613-3.2105-2.081-1.2181-.478-2.4791-.706-3.7832-.683-1.3022.011-2.5406.297-3.715.857-.4059.194-.7971.44-1.1737.74-.3765.299-.684.636-.9227 1.01l-2.9275-3.311 7.0599-3.367-2.5777-2.578-10.1818 4.857 7.2037 8.045 3.6898-.71c.0517-.255.2002-.566.4456-.932.2386-.374.6861-.717 1.3424-1.03.5354-.256 1.1249-.387 1.7683-.394.652-.011 1.2801.094 1.8842.315.6128.218 1.1289.536 1.5483.955.4195.42.6679.866.7452 1.339.086.468.0059.911-.2402 1.328-.2374.413-.6239.748-1.1593 1.003-.6045.288-1.331.41-2.1796.365-.8485-.045-1.6162-.283-2.3031-.715l-2.6835 2.329c.9762.594 2.0329 1.019 3.17 1.276s2.2681.342 3.393.255c1.1335-.091 2.1709-.361 3.1124-.81zm11.888-2.073c1.341-.419 2.05-1.017 2.128-1.794s-.37-1.652-1.344-2.626l-2.761-2.761-3.523 1.681 2.76 2.76 1.814-.865c.582.442.887.881.915 1.317.037.432-.276.776-.938 1.032zm12.524-9.571c1.175-.56 2.038-1.291 2.589-2.194.545-.909.746-1.875.605-2.896-.149-1.029-.683-2.003-1.603-2.923s-1.993-1.617-3.22-2.091c-1.218-.479-2.483-.71-3.793-.694-1.303.011-2.541.297-3.715.857-1.287.614-2.135 1.463-2.543 2.547l-1.248-1.248c-.447-.447-.732-.93-.857-1.45-.123-.531-.06-1.036.189-1.514.25-.489.712-.895 1.386-1.216.898-.428 1.932-.542 3.103-.341l.544-3.167c-1.183-.176-2.289-.172-3.319.009-1.03.182-1.999.489-2.906.921-1.399.668-2.39 1.475-2.973 2.423-.59.941-.75 1.966-.481 3.077.262 1.104.968 2.231 2.119 3.381l4.242 4.242c1.062 1.063 2.284 1.864 3.666 2.404 1.375.533 2.777.794 4.206.781 1.438-.016 2.774-.319 4.009-.908zm-2.638-2.638c-.536.255-1.129.383-1.779.383-.65.001-1.277-.11-1.881-.331-.604-.222-1.109-.535-1.515-.941-.42-.42-.673-.864-.759-1.333-.084-.479-.007-.925.23-1.338.24-.424.627-.764 1.163-1.019.535-.256 1.128-.384 1.778-.384.643-.007 1.271.104 1.881.332.605.221 1.116.542 1.536.961.419.42.668.866.745 1.339.086.468.006.911-.24 1.328-.238.413-.624.747-1.159 1.003zm18.755-5.049c1.174-.56 2.037-1.291 2.589-2.194.544-.909.746-1.875.604-2.896-.148-1.029-.682-2.003-1.602-2.923-.921-.92-1.994-1.618-3.221-2.092-1.218-.478-2.482-.709-3.793-.694-1.302.012-2.54.298-3.715.858-1.287.614-2.134 1.463-2.542 2.547l-1.249-1.248c-.446-.447-.732-.93-.857-1.45-.122-.531-.059-1.036.189-1.514.251-.49.713-.895 1.386-1.216.899-.428 1.933-.542 3.103-.341l.545-3.167c-1.183-.176-2.29-.173-3.32.009s-1.998.489-2.905.921c-1.399.668-2.39 1.475-2.973 2.423-.59.94-.75 1.966-.481 3.077.262 1.104.968 2.231 2.118 3.381l4.242 4.242c1.062 1.062 2.284 1.864 3.666 2.404 1.375.533 2.777.793 4.206.781 1.438-.016 2.775-.319 4.01-.908zm-2.639-2.638c-.535.255-1.128.383-1.778.383-.651.001-1.278-.11-1.882-.331-.604-.222-1.109-.536-1.515-.942-.419-.419-.672-.863-.758-1.332-.084-.479-.007-.925.23-1.339.239-.423.627-.763 1.162-1.018.536-.256 1.128-.384 1.779-.384.643-.007 1.27.103 1.881.332.604.221 1.116.542 1.535.961.42.419.668.866.746 1.338.085.469.005.912-.241 1.329-.237.413-.624.747-1.159 1.003zm17.796-4.592c1.175-.56 2.047-1.295 2.615-2.206.562-.918.781-1.892.657-2.921-.131-1.037-.657-2.016-1.577-2.936s-1.99-1.614-3.21-2.081c-1.218-.478-2.479-.706-3.783-.684-1.302.012-2.541.298-3.715.858-.406.194-.797.44-1.174.74-.376.299-.684.636-.922 1.009l-2.928-3.31 7.06-3.367-2.578-2.578-10.182 4.857 7.204 8.045 3.69-.711c.052-.254.2-.565.446-.932.238-.373.686-.717 1.342-1.03.535-.255 1.125-.386 1.768-.393.652-.012 1.28.094 1.884.315.613.217 1.129.536 1.549.955.419.42.668.866.745 1.339.086.468.006.911-.24 1.328-.238.413-.624.748-1.16 1.003-.604.288-1.331.41-2.179.365-.849-.045-1.616-.283-2.303-.715l-2.684 2.329c.976.594 2.033 1.019 3.17 1.276s2.268.342 3.393.255c1.134-.091 2.171-.361 3.112-.81zm9.978-5.208 3.523-1.681-2.76-2.76-3.523 1.68zm-1.185-21.439c-1.174.56-2.034 1.295-2.578 2.204-.552.903-.753 1.868-.605 2.897.141 1.021.672 1.992 1.592 2.912.921.92 1.99 1.62 3.208 2.098 1.226.474 2.491.705 3.793.694 1.311-.016 2.553-.304 3.728-.864 1.287-.614 2.134-1.463 2.543-2.547l1.248 1.248c.446.447.731.936.854 1.467.124.52.062 1.024-.189 1.514-.249.478-.71.878-1.383 1.199-.899.429-1.933.542-3.103.341l-.545 3.167c1.183.176 2.29.173 3.32-.009s1.998-.489 2.905-.921c1.399-.667 2.394-1.472 2.983-2.412.583-.948.744-1.974.482-3.078-.269-1.111-.979-2.241-2.129-3.391l-4.242-4.242c-1.062-1.062-2.281-1.86-3.656-2.393-1.382-.54-2.792-.802-4.229-.786-1.43.012-2.762.313-3.997.902zm2.639 2.638c.535-.255 1.128-.383 1.778-.383.651-.001 1.278.11 1.882.331.604.222 1.109.536 1.515.942.419.419.671.869.755 1.348.086.469.01.915-.23 1.339-.237.413-.624.747-1.159 1.003-.536.255-1.125.386-1.768.393-.65.001-1.278-.11-1.882-.331-.611-.229-1.126-.553-1.545-.972-.42-.419-.672-.863-.758-1.332-.078-.473.002-.916.24-1.329.246-.417.637-.753 1.172-1.009zm13.478-10.325c-1.175.56-2.034 1.295-2.579 2.204-.551.903-.753 1.868-.605 2.896.142 1.022.673 1.993 1.593 2.913s1.989 1.619 3.207 2.098c1.227.474 2.491.705 3.793.694 1.311-.016 2.554-.304 3.728-.864 1.287-.614 2.135-1.463 2.543-2.547l1.248 1.248c.447.447.731.936.854 1.467.125.52.062 1.024-.189 1.514-.248.478-.709.878-1.383 1.199-.898.428-1.932.542-3.103.341l-.544 3.167c1.183.176 2.289.172 3.319-.009 1.031-.182 1.999-.489 2.906-.921 1.399-.668 2.393-1.472 2.983-2.413.583-.947.743-1.973.481-3.077-.269-1.111-.978-2.241-2.128-3.391l-4.243-4.242c-1.062-1.063-2.28-1.86-3.655-2.394-1.382-.54-2.792-.801-4.23-.785-1.429.012-2.761.313-3.996.902zm2.639 2.638c.535-.255 1.128-.383 1.778-.383.65-.001 1.277.11 1.881.331.604.222 1.11.536 1.515.941.42.42.672.869.756 1.349.086.469.009.915-.23 1.339-.238.413-.624.747-1.16 1.002-.535.256-1.124.387-1.768.394-.65 0-1.277-.11-1.881-.332-.611-.228-1.126-.552-1.546-.971-.419-.42-.672-.864-.758-1.332-.077-.473.003-.916.24-1.329.246-.417.637-.753 1.173-1.009z"/></g></g><rect height="581.256" rx="27.9864" stroke="#94a2ab" stroke-opacity=".3" stroke-width="1.4352" transform="matrix(.902585 -.430511 .707107 .707107 -70.0278 242.407)" width="267.665" x="1.15512" y=".198485"/><g clip-path="url(#f)"><rect fill="#fff" height="582.691" rx="28.704" transform="matrix(.902585 -.430511 .707107 .707107 145 59.8516)" width="269.1"/><rect fill="#fff" height="223.891" rx="11.4816" transform="matrix(.902585 -.430511 .707107 .707107 392.438 284.328)" width="234.655"/><g fill="#dfe6ec"><rect height="12.9168" rx="6.4584" transform="matrix(.902585 -.430511 .707107 .707107 424.217 293.152)" width="153.566"/><rect height="12.9168" rx="6.4584" transform="matrix(.902585 -.430511 .707107 .707107 441.471 310.406)" width="55.2552"/><rect height="12.9168" rx="6.4584" transform="matrix(.902585 -.430511 .707107 .707107 499.115 282.91)" width="29.4216"/><rect height="12.9168" rx="6.4584" transform="matrix(.902585 -.430511 .707107 .707107 533.443 266.539)" width="98.3112"/><rect height="12.9168" rx="6.4584" transform="matrix(.902585 -.430511 .707107 .707107 458.723 327.656)" width="165.048"/><rect height="12.9168" rx="6.4584" transform="matrix(.902585 -.430511 .707107 .707107 475.977 344.91)" width="185.858"/><rect height="12.9168" rx="6.4584" transform="matrix(.902585 -.430511 .707107 .707107 493.227 362.16)" width="81.8064"/><rect height="12.9168" rx="6.4584" transform="matrix(.902585 -.430511 .707107 .707107 574.836 323.234)" width="39.468"/><rect height="12.9168" rx="6.4584" transform="matrix(.902585 -.430511 .707107 .707107 510.479 379.414)" width="134.191"/></g><rect fill="#94a2ab" height="25.8336" rx="12.9168" transform="matrix(.902585 -.430511 .707107 .707107 531.793 400.723)" width="25.8336"/><path clip-rule="evenodd" d="m553.634 412.04c-.179.085-.438.041-.578-.099l-2.791-2.791c-1.261-1.261-.978-2.906.631-3.674l3.887-1.853c1.609-.768 3.937-.368 5.198.893l2.79 2.791c.141.14.109.323-.07.408s-.437.041-.577-.099l-2.791-2.791c-.981-.981-2.791-1.292-4.043-.695l-3.886 1.854c-1.252.597-1.472 1.876-.491 2.857l2.791 2.791c.14.14.108.323-.07.408zm-.854-12.333c1.401 1.401 1.087 3.228-.702 4.081-1.788.854-4.374.409-5.775-.992s-1.087-3.229.701-4.082c1.789-.853 4.375-.409 5.776.993zm-1.209 3.574c1.431-.682 1.682-2.144.561-3.265s-3.19-1.477-4.62-.794c-1.431.682-1.682 2.144-.561 3.265 1.12 1.121 3.189 1.476 4.62.794z" fill="#fff" fill-rule="evenodd"/><rect fill="#94a2ab" height="8.6112" rx="4.3056" transform="matrix(.902585 -.430511 .707107 .707107 563.895 386.91)" width="103.334"/><rect fill="#dfe6ec" height="8.6112" rx="4.3056" transform="matrix(.902585 -.430511 .707107 .707107 574.045 397.059)" width="54.5376"/><rect height="222.456" rx="10.764" stroke="#94a2ab" stroke-opacity=".3" stroke-width="1.4352" transform="matrix(.902585 -.430511 .707107 .707107 392.41 284.884)" width="233.22" x="1.15512" y=".198485"/><g clip-path="url(#g)"><path d="m0 0h269.1v97.5936h-269.1z" fill="#fff" transform="matrix(.902585 -.430511 .707107 .707107 145 59.8516)"/><rect fill="#94a2ab" height="12.9168" rx="6.4584" transform="matrix(.902585 -.430511 .707107 .707107 190.988 82.8828)" width="86.112"/><rect fill="#dfe6ec" height="12.9168" rx="6.4584" transform="matrix(.902585 -.430511 .707107 .707107 208.24 100.133)" width="173.659"/></g><rect fill="#f3f5f8" height="199.493" rx="11.4816" transform="matrix(.902585 -.430511 .707107 .707107 239.197 131.086)" width="234.655"/><g filter="url(#b)"><rect fill="#2cc1ff" height="12.9168" rx="6.4584" transform="matrix(.902585 -.430511 .707107 .707107 270.979 139.91)" width="153.566"/></g><g fill="#2cc1ff" filter="url(#c)"><rect height="12.9168" rx="6.4584" transform="matrix(.902585 -.430511 .707107 .707107 288.23 157.164)" width="55.2552"/><rect height="12.9168" rx="6.4584" transform="matrix(.902585 -.430511 .707107 .707107 345.875 129.668)" width="29.4216"/><rect height="12.9168" rx="6.4584" transform="matrix(.902585 -.430511 .707107 .707107 380.203 113.297)" width="98.3112"/></g><rect fill="#dfe6ec" height="12.9168" rx="6.4584" transform="matrix(.902585 -.430511 .707107 .707107 305.482 174.414)" width="165.048"/><rect fill="#dfe6ec" height="12.9168" rx="6.4584" transform="matrix(.902585 -.430511 .707107 .707107 322.734 191.668)" width="81.8064"/><rect fill="#dfe6ec" height="12.9168" rx="6.4584" transform="matrix(.902585 -.430511 .707107 .707107 404.344 152.742)" width="39.468"/><rect fill="#dfe6ec" height="12.9168" rx="6.4584" transform="matrix(.902585 -.430511 .707107 .707107 447.74 132.043)" width="61.7136"/><rect fill="#dfe6ec" height="12.9168" rx="6.4584" transform="matrix(.902585 -.430511 .707107 .707107 339.988 208.918)" width="134.191"/><rect fill="#dfe6ec" height="25.8336" rx="12.9168" transform="matrix(.902585 -.430511 .707107 .707107 361.301 230.23)" width="25.8336"/><path clip-rule="evenodd" d="m383.141 241.548c-.178.085-.437.041-.577-.099l-2.791-2.791c-1.261-1.261-.978-2.906.631-3.674l3.886-1.853c1.61-.768 3.937-.368 5.198.893l2.791 2.791c.14.14.109.322-.07.408-.179.085-.437.041-.577-.099l-2.791-2.791c-.981-.981-2.791-1.292-4.043-.695l-3.886 1.854c-1.252.597-1.472 1.876-.491 2.857l2.791 2.791c.14.14.108.323-.071.408zm-.853-12.334c1.401 1.402 1.087 3.229-.702 4.082-1.788.853-4.374.409-5.775-.992-1.402-1.401-1.088-3.229.701-4.082s4.374-.409 5.776.992zm-1.209 3.575c1.431-.683 1.682-2.145.561-3.266s-3.19-1.476-4.621-.794c-1.43.683-1.682 2.145-.561 3.266s3.19 1.476 4.621.794z" fill="#fff" fill-rule="evenodd"/><rect fill="#94a2ab" height="8.6112" rx="4.3056" transform="matrix(.902585 -.430511 .707107 .707107 393.402 216.418)" width="103.334"/><rect fill="#dfe6ec" height="8.6112" rx="4.3056" transform="matrix(.902585 -.430511 .707107 .707107 403.553 226.566)" width="54.5376"/></g><rect height="581.256" rx="27.9864" stroke="#94a2ab" stroke-opacity=".3" stroke-width="1.4352" transform="matrix(.902585 -.430511 .707107 .707107 144.972 60.407)" width="267.665" x="1.15512" y=".198485"/></g></svg>