<svg id="Layer_1" enable-background="new 0 0 511.921 511.921" height="512" viewBox="0 0 511.921 511.921" width="512" xmlns="http://www.w3.org/2000/svg"><g><path d="m457.986 304.537c-6.071-6.071-13.51-10.277-21.621-12.34 3.73-15.448-.421-32.428-12.457-44.464-6.189-6.19-13.688-10.286-21.612-12.306 3.521-14.555.264-31.761-12.474-44.498-4.273-4.273-9.173-7.539-14.403-9.825l48.496-48.49c18.392-18.414 18.425-48.221-.007-66.651-18.409-18.41-48.219-18.442-66.657 0l-151.276 151.276-8.847-38.338c-5.079-22.024-21.734-39.577-43.464-45.808-21.725-6.233-45.15-.173-61.131 15.816-.002.002-.004.004-.007.006-2.813 2.816-4.396 6.64-4.392 10.621l.187 186.578-43.8 43.801c-5.858 5.858-5.858 15.355 0 21.213l96.399 96.4c2.812 2.813 6.628 4.394 10.606 4.394h139.563c16.875 0 32.744-6.576 44.683-18.515l122.213-122.213c18.183-18.166 18.637-48.047.001-66.657zm-79.522-35.592c6.7-6.7 17.54-6.691 24.231 0 6.68 6.681 6.68 17.551 0 24.232l-34.086 34.085c-6.711 6.712-17.553 6.679-24.228.003-6.681-6.685-6.682-17.557-.004-24.235zm-55.299 12.873c-6.68 6.68-17.55 6.676-24.231 0-6.681-6.681-6.681-17.551 0-24.231l45.444-45.445c6.686-6.685 17.556-6.676 24.231 0 6.701 6.7 6.69 17.542 0 24.231-.001.001-.004.004-.003.003.003-.003-45.441 45.442-45.441 45.442zm-8.604 190.374c-6.183 6.183-14.737 9.729-23.471 9.729h-133.35l-81.399-81.4 37.593-37.594c2.817-2.817 4.397-6.638 4.394-10.622l-.186-185.862c7.86-5.466 17.863-7.207 27.251-4.513 11.251 3.226 19.874 12.312 22.503 23.713l14.936 64.712c.642 2.783 2.055 5.262 4.002 7.214.002.005 11.366 11.376 11.366 11.376 25.473 25.473 25.473 66.921 0 92.395-5.858 5.858-5.858 15.355 0 21.213 5.858 5.859 15.357 5.857 21.213 0 37.17-37.17 37.17-97.65 0-134.82l-.753-.753 159.805-159.805c6.855-6.857 17.707-6.523 24.23.001 6.688 6.687 6.692 17.53 0 24.231l-124.974 124.966c-18.378 18.377-18.378 48.28.003 66.661 8.778 8.772 20.18 13.344 31.701 13.738.395 11.521 4.968 22.925 13.74 31.703 8.771 8.772 20.167 13.346 31.684 13.744.405 11.978 5.247 23.179 13.753 31.687 4.214 4.219 9.092 7.527 14.394 9.854zm122.218-122.218c-.003.002-.005.005-.008.007l-22.724 22.725c-6.604 6.612-17.465 6.762-24.225-.006-6.741-6.741-6.638-17.587.005-24.229l22.721-22.721c6.743-6.742 17.586-6.637 24.23.007 6.782 6.771 6.59 17.636.001 24.217z"/><path d="m199.727 94.187c8.284 0 15-6.716 15-15v-64.266c-.793-19.902-29.215-19.887-30 0v64.267c0 8.284 6.716 14.999 15 14.999z"/><path d="m124.854 89.794c5.858 5.859 15.357 5.857 21.213 0 5.858-5.858 5.858-15.355 0-21.213l-16.066-16.066c-5.857-5.858-15.355-5.858-21.213 0s-5.858 15.355 0 21.213z"/><path d="m274.601 89.794 16.066-16.066c5.858-5.858 5.858-15.355 0-21.213-5.857-5.858-15.355-5.858-21.213 0l-16.066 16.066c-5.858 5.858-5.858 15.355 0 21.213 5.858 5.859 15.356 5.857 21.213 0z"/></g></svg>