<svg fill="none" height="327" viewBox="0 0 460 327" width="460" xmlns="http://www.w3.org/2000/svg" xmlns:xlink="http://www.w3.org/1999/xlink"><filter id="a" color-interpolation-filters="sRGB" filterUnits="userSpaceOnUse" height="253.827" width="348.621" x="157" y="83"><feFlood flood-opacity="0" result="BackgroundImageFix"/><feColorMatrix in="SourceAlpha" type="matrix" values="0 0 0 0 0 0 0 0 0 0 0 0 0 0 0 0 0 0 127 0"/><feOffset dy="24"/><feGaussianBlur stdDeviation="31"/><feColorMatrix type="matrix" values="0 0 0 0 0.996078 0 0 0 0 0.423529 0 0 0 0 0.4 0 0 0 0.5 0"/><feBlend in2="BackgroundImageFix" mode="normal" result="effect1_dropShadow"/><feBlend in="SourceGraphic" in2="effect1_dropShadow" mode="normal" result="shape"/></filter><clipPath id="b"><path d="m0 0h460v327h-460z"/></clipPath><clipPath id="c"><rect height="557.773" rx="27.4765" width="257.592" x="-.027344" y=".742188"/></clipPath><clipPath id="d"><path d="m16.457 33.7148h16.4859v16.4859h-16.4859z"/></clipPath><clipPath id="e"><path d="m111.25 233.602h35.7195v8.24296h-35.7195z"/></clipPath><clipPath id="f"><rect height="557.773" rx="27.4765" width="257.592" x="202.406" y="49.2227"/></clipPath><clipPath id="g"><path d="m399.551 82.1953h16.4859v16.4859h-16.4859z"/></clipPath><clipPath id="h"><path d="m427.027 82.1953h16.4859v16.4859h-16.4859z"/></clipPath><clipPath id="i"><path d="m427.027 269.723h16.4859v16.4859h-16.4859z"/></clipPath><clipPath id="j"><path d="m313.688 233h35.7195v8.24296h-35.7195z"/></clipPath><mask id="k" height="384" maskUnits="userSpaceOnUse" width="585" x="-62" y="-57"><rect fill="#fff" height="384" rx="24" width="585" x="-62" y="-57"/></mask><g clip-path="url(#b)"><g mask="url(#k)"><g clip-path="url(#c)"><rect fill="#fff" height="557.773" rx="27.4765" width="257.592" x="-.027344" y=".742188"/><path d="m0 0h257.592v142.878h-257.592z" fill="#fff" transform="translate(-.027344 258.332)"/><rect fill="#94a2ab" height="12.3644" rx="6.18222" width="140.13" x="16.457" y="274.816"/><rect fill="#dfe6ec" height="12.3644" rx="6.18222" width="191.649" x="16.457" y="298.172"/><path d="m0 0h257.592v257.592h-257.592z" fill="#f3f5f8" transform="translate(-.027344 .742188)"/><path clip-rule="evenodd" d="m121.902 107.79c-3.161 0-5.724 2.563-5.724 5.724s2.563 5.724 5.724 5.724c3.162 0 5.724-2.563 5.724-5.724s-2.562-5.724-5.724-5.724zm-8.014 5.724c0-4.426 3.588-8.014 8.014-8.014s8.014 3.588 8.014 8.014-3.588 8.014-8.014 8.014-8.014-3.588-8.014-8.014zm25.418 10.108c-.418-.65-1.346-.708-1.842-.115l-11.74 14.037c-.204.244-.501.392-.819.409-.319.016-.629-.101-.858-.324l-7.839-7.634c-.513-.5-1.354-.411-1.751.185l-9.836 14.755c-.508.761.038 1.78.952 1.78h46.481c.906 0 1.453-1.002.963-1.764zm-3.598-1.584c1.487-1.778 4.271-1.603 5.524.346l13.711 21.329c1.469 2.285-.172 5.291-2.889 5.291h-46.481c-2.743 0-4.379-3.057-2.858-5.339l9.837-14.755c1.192-1.788 3.714-2.055 5.254-.555l6.954 6.772z" fill="#94a2ab" fill-rule="evenodd"/><g clip-path="url(#d)"><path d="m26.3468 36.618-5.3429 5.3429 5.3429 5.343" stroke="#94a2ab" stroke-linecap="round" stroke-linejoin="round" stroke-width="2.06074"/></g><g fill="#94a2ab"><circle cx="228.026" cy="41.9637" r="1.37383"/><circle cx="232.835" cy="41.9637" r="1.37383"/><circle cx="237.643" cy="41.9637" r="1.37383"/></g><g clip-path="url(#e)"><circle cx="115.371" cy="237.723" fill="#94a2ab" r="4.12148"/><g stroke="#94a2ab" stroke-width="1.37383"><circle cx="129.11" cy="237.723" r="3.43457"/><circle cx="142.848" cy="237.723" r="3.43457"/></g></g></g><rect height="556.4" rx="26.7896" stroke="#94a2ab" stroke-opacity=".3" stroke-width="1.37383" width="256.219" x=".659569" y="1.4291"/><g clip-path="url(#f)"><rect fill="#fff" height="557.773" rx="27.4765" width="257.592" x="202.406" y="49.2227"/><rect fill="#f3f5f8" height="82.4296" rx="10.9906" width="107.845" x="218.891" y="305.441"/><rect fill="#f3f5f8" height="82.4296" rx="10.9906" width="107.845" x="335.668" y="305.441"/><path d="m0 0h257.592v65.9436h-257.592z" fill="#fff" transform="translate(202.406 49.2227)"/><path d="m221.637 85.6289h10.99m-10.99 4.8084h10.99m-10.99 4.8084h10.99" stroke="#94a2ab" stroke-linecap="round" stroke-linejoin="round" stroke-width="2.06074"/><rect fill="#94a2ab" height="8.24296" rx="4.12148" width="68.6913" x="246.367" y="86.3164"/><g clip-path="url(#g)"><circle cx="407.791" cy="90.4352" r="7.21259" stroke="#94a2ab" stroke-width="2.06074"/></g><g clip-path="url(#h)"><circle cx="435.271" cy="90.4352" r="7.21259" stroke="#94a2ab" stroke-width="2.06074"/></g><path d="m0 0h257.592v32.9718h-257.592z" fill="#fff" transform="translate(202.406 261.48)"/><rect fill="#94a2ab" height="12.3644" rx="6.18222" width="113.341" x="218.891" y="271.785"/><g clip-path="url(#i)"><path d="m433.622 283.312 5.343-5.343-5.343-5.343" stroke="#94a2ab" stroke-linecap="round" stroke-linejoin="round" stroke-width="2.06074"/></g><g filter="url(#a)"><rect fill="#fe6c66" height="129.827" rx="16.4859" width="224.621" x="219" y="121"/><path clip-rule="evenodd" d="m324.441 164.161c-3.161 0-5.724 2.563-5.724 5.724 0 3.162 2.563 5.724 5.724 5.724 3.162 0 5.725-2.562 5.725-5.724 0-3.161-2.563-5.724-5.725-5.724zm-8.014 5.724c0-4.426 3.588-8.014 8.014-8.014s8.014 3.588 8.014 8.014-3.588 8.014-8.014 8.014-8.014-3.588-8.014-8.014zm25.418 10.108c-.418-.649-1.346-.708-1.842-.115l-11.74 14.037c-.204.244-.501.392-.819.409-.319.016-.629-.101-.858-.324l-7.839-7.634c-.513-.5-1.354-.411-1.751.185l-9.836 14.755c-.508.761.038 1.78.952 1.78h46.481c.906 0 1.453-1.002.963-1.764zm-3.598-1.584c1.487-1.778 4.271-1.603 5.524.346l13.711 21.329c1.469 2.285-.172 5.292-2.889 5.292h-46.481c-2.743 0-4.379-3.058-2.858-5.34l9.837-14.755c1.192-1.788 3.715-2.054 5.254-.555l6.954 6.772z" fill="#ffaeab" fill-rule="evenodd"/></g><g clip-path="url(#j)"><circle cx="317.809" cy="237.121" fill="#ffaeab" r="4.12148"/><g stroke="#ffaeab" stroke-width="1.37383"><circle cx="331.547" cy="237.121" r="3.43457"/><circle cx="345.286" cy="237.121" r="3.43457"/></g></g></g><rect height="556.4" rx="26.7896" stroke="#94a2ab" stroke-opacity=".3" stroke-width="1.37383" width="256.219" x="203.093" y="49.9096"/></g></g></svg>