<svg fill="none" height="327" viewBox="0 0 460 327" width="460" xmlns="http://www.w3.org/2000/svg" xmlns:xlink="http://www.w3.org/1999/xlink"><filter id="a" color-interpolation-filters="sRGB" filterUnits="userSpaceOnUse" height="156.297" width="306.955" x="177.512" y="107.551"><feFlood flood-opacity="0" result="BackgroundImageFix"/><feColorMatrix in="SourceAlpha" type="matrix" values="0 0 0 0 0 0 0 0 0 0 0 0 0 0 0 0 0 0 127 0"/><feOffset dy="19"/><feGaussianBlur stdDeviation="20.5"/><feColorMatrix type="matrix" values="0 0 0 0 0.996078 0 0 0 0 0.423529 0 0 0 0 0.4 0 0 0 0.5 0"/><feBlend in2="BackgroundImageFix" mode="normal" result="effect1_dropShadow"/><feBlend in="SourceGraphic" in2="effect1_dropShadow" mode="normal" result="shape"/></filter><clipPath id="b"><path d="m0 0h460v327h-460z"/></clipPath><clipPath id="c"><rect height="558.603" rx="27.5174" width="257.975"/></clipPath><clipPath id="d"><path d="m16.5117 33.0195h16.5104v16.5104h-16.5104z"/></clipPath><clipPath id="e"><rect height="558.603" rx="27.5174" width="257.975" x="202" y="47"/></clipPath><clipPath id="f"><path d="m218.516 80.0195h16.5104v16.5104h-16.5104z"/></clipPath><mask id="g" height="384" maskUnits="userSpaceOnUse" width="585" x="-62" y="-57"><rect fill="#fff" height="384" rx="24" width="585" x="-62" y="-57"/></mask><g clip-path="url(#b)"><g mask="url(#g)"><g clip-path="url(#c)"><rect fill="#fff" height="558.603" rx="27.5174" width="257.975"/><path d="m0 0h257.975v66.0417h-257.975z" fill="#fff"/><g clip-path="url(#d)"><path d="m26.4134 35.9187-5.3509 5.3508 5.3509 5.3509" stroke="#94a2ab" stroke-linecap="round" stroke-linejoin="round" stroke-width="2.0638"/></g><rect fill="#94a2ab" height="8.25522" rx="4.12761" width="94.247" x="81.8633" y="37.1484"/><path d="m0 0h257.975v64.6658h-257.975z" fill="#fff" transform="translate(0 77.0508)"/><rect fill="#94a2ab" height="12.3828" rx="6.19141" width="171.984" x="16.5117" y="93.5625"/><rect fill="#dfe6ec" height="8.25522" rx="4.12761" width="111.445" x="16.5117" y="116.945"/><path d="m0 0h257.975v176.111h-257.975z" fill="#fff" transform="translate(0 277.926)"/><rect fill="#dfe6ec" height="8.25522" rx="4.12761" width="185.742" x="16.5117" y="294.438"/><rect fill="#dfe6ec" height="8.25522" rx="4.12761" width="90.8074" x="16.5117" y="313.699"/><rect fill="#dfe6ec" height="8.25522" rx="4.12761" width="117.637" x="115.574" y="313.699"/><path d="m0 0h257.975v118.325h-257.975z" fill="#fff" transform="translate(0 148.594)"/><g fill="#dfe6ec"><rect height="8.25522" rx="4.12761" width="185.742" x="16.5117" y="165.105"/><rect height="8.25522" rx="4.12761" width="90.8074" x="16.5117" y="184.367"/><rect height="8.25522" rx="4.12761" width="117.637" x="115.574" y="184.367"/><rect height="8.25522" rx="4.12761" width="200.189" x="16.5117" y="203.629"/><rect height="8.25522" rx="4.12761" width="179.551" x="16.5117" y="222.891"/><rect height="8.25522" rx="4.12761" width="142.402" x="16.5117" y="242.152"/></g></g><rect height="557.227" rx="26.8295" stroke="#94a2ab" stroke-opacity=".3" stroke-width="1.37587" width="256.6" x=".687935" y=".687935"/><g clip-path="url(#e)"><rect fill="#fff" height="558.603" rx="27.5174" width="257.975" x="202" y="47"/><rect fill="#f3f5f8" height="74.2969" rx="11.007" width="224.955" x="218.512" y="311.168"/><g clip-path="url(#f)"><path d="m228.425 82.9226-5.351 5.3508 5.351 5.3509" stroke="#94a2ab" stroke-linecap="round" stroke-linejoin="round" stroke-width="2.0638"/></g><g fill="#94a2ab"><rect height="8.25522" rx="4.12761" width="94.247" x="283.867" y="84.1484"/><circle cx="430.399" cy="88.2743" r="1.37587"/><circle cx="435.216" cy="88.2743" r="1.37587"/><circle cx="440.032" cy="88.2743" r="1.37587"/></g><rect fill="#f3f5f8" height="74.2969" rx="11.007" width="224.955" x="218.512" y="220.359"/><rect fill="#94a2ab" height="12.3828" rx="6.19141" width="152.721" x="235.023" y="243.062"/><rect fill="#dfe6ec" height="8.25522" rx="4.12761" width="88.0556" x="235.023" y="263.699"/><g filter="url(#a)"><rect fill="#fe6c66" height="74.2969" rx="11.007" width="224.955" x="218.512" y="129.551"/><g fill="#ffaeab"><rect height="12.3828" rx="6.19141" width="152.721" x="235.023" y="152.254"/><rect height="8.25522" rx="4.12761" width="88.0556" x="235.023" y="172.891"/></g></g></g><rect height="557.227" rx="26.8295" stroke="#94a2ab" stroke-opacity=".3" stroke-width="1.37587" width="256.6" x="202.688" y="47.6879"/></g></g></svg>