<svg fill="none" height="327" viewBox="0 0 460 327" width="460" xmlns="http://www.w3.org/2000/svg" xmlns:xlink="http://www.w3.org/1999/xlink"><filter id="a" color-interpolation-filters="sRGB" filterUnits="userSpaceOnUse" height="128.864" width="232.93" x="251.293" y="222.418"><feFlood flood-opacity="0" result="BackgroundImageFix"/><feColorMatrix in="SourceAlpha" type="matrix" values="0 0 0 0 0 0 0 0 0 0 0 0 0 0 0 0 0 0 127 0"/><feOffset dy="19"/><feGaussianBlur stdDeviation="20.5"/><feColorMatrix type="matrix" values="0 0 0 0 0.172549 0 0 0 0 0.756863 0 0 0 0 1 0 0 0 0.5 0"/><feBlend in2="BackgroundImageFix" mode="normal" result="effect1_dropShadow"/><feBlend in="SourceGraphic" in2="effect1_dropShadow" mode="normal" result="shape"/></filter><clipPath id="b"><path d="m0 0h460v327h-460z"/></clipPath><clipPath id="c"><rect height="559.613" rx="27.5672" width="258.442" x=".210938" y=".742188"/></clipPath><clipPath id="d"><path d="m16.75 33.8242h16.5403v16.5403h-16.5403z"/></clipPath><clipPath id="e"><path d="m225.574 33.8242h16.5403v16.5403h-16.5403z"/></clipPath><clipPath id="f"><path d="m33.293 292.953h16.5403v16.5403h-16.5403z"/></clipPath><clipPath id="g"><path d="m121.16 292.953h16.5403v16.5403h-16.5403z"/></clipPath><clipPath id="h"><path d="m209.031 292.953h16.5403v16.5403h-16.5403z"/></clipPath><clipPath id="i"><rect height="559.613" rx="27.5672" width="258.442" x="201.316" y="49.3828"/></clipPath><clipPath id="j"><path d="m217.855 82.4648h16.5403v16.5403h-16.5403z"/></clipPath><mask id="k" height="384" maskUnits="userSpaceOnUse" width="585" x="-61" y="-56"><rect fill="#fff" height="384" rx="24" width="585" x="-61" y="-56"/></mask><g clip-path="url(#b)"><g mask="url(#k)"><g clip-path="url(#c)"><rect fill="#fff" height="559.613" rx="27.5672" width="258.442" x=".210938" y=".742188"/><g clip-path="url(#d)"><path d="m26.677 36.7332-5.3606 5.3606 5.3606 5.3605" stroke="#94a2ab" stroke-linecap="round" stroke-linejoin="round" stroke-width="2.06754"/></g><g clip-path="url(#e)"><path d="m240.351 50.0592c.404.4037 1.058.4037 1.462 0s.404-1.0582 0-1.462zm-2.37-9.0011c0 2.8547-2.314 5.1688-5.169 5.1688v2.0676c3.997 0 7.236-3.2399 7.236-7.2364zm-5.169 5.1688c-2.855 0-5.169-2.3141-5.169-5.1688h-2.067c0 3.9965 3.239 7.2364 7.236 7.2364zm-5.169-5.1688c0-2.8547 2.314-5.1689 5.169-5.1689v-2.0675c-3.997 0-7.236 3.2398-7.236 7.2364zm5.169-5.1689c2.855 0 5.169 2.3142 5.169 5.1689h2.067c0-3.9966-3.239-7.2364-7.236-7.2364zm3.655 10.2858 3.884 3.8842 1.462-1.462-3.884-3.8842z" fill="#94a2ab"/></g><path d="m0 0h258.442v261.888h-258.442z" fill="#fff" transform="translate(.210938 66.9023)"/><path d="m0 0h258.442v49.6209h-258.442z" fill="#fff" transform="translate(.210938 75.1719)"/><rect fill="#f3f5f8" height="33.0806" rx="16.5403" width="33.0806" x="16.75" y="83.4414"/><path clip-rule="evenodd" d="m27.9337 108.405c-.2115 0-.3829-.171-.3829-.383v-4.211c0-1.903 1.5428-3.446 3.4459-3.446h4.5945c1.9031 0 3.4459 1.543 3.4459 3.446v4.211c0 .212-.1714.383-.3829.383-.2114 0-.3829-.171-.3829-.383v-4.211c0-1.481-1.1999-2.68-2.6801-2.68h-4.5945c-1.4802 0-2.6802 1.2-2.6802 2.68v4.211c0 .212-.1714.383-.3828.383zm9.189-13.0176c0 2.1145-1.7142 3.8287-3.8288 3.8287-2.1145 0-3.8287-1.7142-3.8287-3.8287 0-2.1146 1.7142-3.8288 3.8287-3.8288 2.1146 0 3.8288 1.7142 3.8288 3.8288zm-3.8288 3.063c1.6917 0 3.0631-1.3714 3.0631-3.063 0-1.6917-1.3714-3.0631-3.0631-3.0631-1.6916 0-3.063 1.3714-3.063 3.0631 0 1.6916 1.3714 3.063 3.063 3.063z" fill="#94a2ab" fill-rule="evenodd"/><rect fill="#94a2ab" height="8.27015" rx="4.13507" width="130.944" x="60.8594" y="88.957"/><rect fill="#dfe6ec" height="8.27015" rx="4.13507" width="84.0798" x="60.8594" y="102.742"/><path d="m0 0h258.442v157.133h-258.442z" fill="#fff" transform="translate(.210938 124.793)"/><rect fill="#dfe6ec" height="8.27015" rx="4.13507" width="186.078" x="16.75" y="141.332"/><rect fill="#dfe6ec" height="8.27015" rx="4.13507" width="200.551" x="16.75" y="160.629"/><rect fill="#dfe6ec" height="8.27015" rx="4.13507" width="53.756" x="16.75" y="179.926"/><rect fill="#94a2ab" height="8.27015" rx="4.13507" width="86.8366" x="78.7773" y="179.926"/><g fill="#dfe6ec"><rect height="8.27015" rx="4.13507" width="58.5802" x="173.883" y="179.926"/><rect height="8.27015" rx="4.13507" width="179.876" x="16.75" y="199.223"/><rect height="8.27015" rx="4.13507" width="200.551" x="16.75" y="218.52"/><rect height="8.27015" rx="4.13507" width="101.309" x="16.75" y="237.816"/><rect height="8.27015" rx="4.13507" width="37.9049" x="126.328" y="237.816"/><rect height="8.27015" rx="4.13507" width="58.5802" x="172.504" y="237.816"/><rect height="8.27015" rx="4.13507" width="142.66" x="16.75" y="257.117"/></g><path d="m0 0h258.442v38.594h-258.442z" fill="#fff" transform="translate(.210938 281.926)"/><g clip-path="url(#f)"><path d="m41.5645 307.77s-5.7617-2.209-6.9963-7.038c-.1646-.491-.7408-3.192.8231-4.91.9054-.983 2.0577-1.146 2.4693-1.146h.1646c1.1523 0 2.2224.573 3.0454 1.555l.4939.573.4939-.573c.8231-.982 1.9754-1.555 3.0454-1.555h.1646c.3293 0 1.4816.163 2.4693 1.146 1.5639 1.718.9877 4.419.8231 4.91-1.2346 4.829-6.9963 7.038-6.9963 7.038z" stroke="#94a2ab" stroke-linecap="round" stroke-linejoin="round" stroke-width="2.06754"/></g><g clip-path="url(#g)"><path d="m136.664 302.599c0 1.523-1.234 2.757-2.757 2.757h-6.941c-.636 0-1.253.22-1.746.623l-3.029 2.478c0-1.522 0-7.963 0-11.719 0-1.523 1.235-2.754 2.757-2.754h8.959c1.523 0 2.757 1.235 2.757 2.757z" stroke="#94a2ab" stroke-linecap="round" stroke-linejoin="round" stroke-width="2.06754"/></g><g clip-path="url(#h)"><path d="m222.472 299.694h-9.056c-1.85 0-3.35 1.5-3.35 3.35 0 1.851 1.5 3.351 3.35 3.351h.096m7.389-3.063 3.638-3.638-3.638-3.637" stroke="#94a2ab" stroke-linecap="round" stroke-linejoin="round" stroke-width="2.06754"/></g></g><rect height="558.235" rx="26.878" stroke="#94a2ab" stroke-opacity=".3" stroke-width="1.37836" width="257.064" x=".900117" y="1.43137"/><g clip-path="url(#i)"><rect fill="#f3f5f8" height="559.613" rx="27.5672" width="258.442" x="201.316" y="49.3828"/><path d="m217.859 96.937c0-6.0899 4.937-11.0268 11.027-11.0268h128.877c6.09 0 11.027 4.9369 11.027 11.0268v41.351c0 6.09-4.937 11.027-11.027 11.027h-139.904z" fill="#fff"/><g fill="#dfe6ec"><rect height="8.27015" rx="4.13507" width="128.876" x="228.887" y="96.9375"/><rect height="8.27015" rx="4.13507" width="21.3646" x="228.887" y="113.477"/><rect height="8.27015" rx="4.13507" width="44.7966" x="255.766" y="113.477"/><rect height="8.27015" rx="4.13507" width="93.7284" x="228.887" y="130.02"/></g><path d="m228.886 86.5993h128.877c5.709 0 10.337 4.6284 10.337 10.3377v41.351c0 5.709-4.628 10.337-10.337 10.337h-139.214v-51.688c0-5.7093 4.628-10.3377 10.337-10.3377z" stroke="#94a2ab" stroke-opacity=".3" stroke-width="1.37836"/><path d="m317.102 24.5698c0-6.0899 4.936-11.0268 11.026-11.0268h104.066c6.09 0 11.027 4.9369 11.027 11.0268v35.8373h-115.093c-6.09 0-11.026-4.9369-11.026-11.0268z" fill="#94a2ab"/><g filter="url(#a)"><path d="m292.293 255.445c0-6.09 4.937-11.027 11.027-11.027h128.876c6.09 0 11.027 4.937 11.027 11.027v35.837h-139.903c-6.09 0-11.027-4.937-11.027-11.027z" fill="#2cc1ff"/><g fill="#99e1ff"><rect height="8.27015" rx="4.13507" width="128.876" x="303.32" y="255.445"/><rect height="8.27015" rx="4.13507" width="93.7284" x="338.469" y="271.984"/></g></g><path d="m333.641 318.851c0-6.09 4.937-11.027 11.026-11.027h87.526c6.09 0 11.027 4.937 11.027 11.027v19.297h-98.553c-6.089 0-11.026-4.937-11.026-11.027z" fill="#94a2ab"/><rect fill="#dfe6ec" height="8.27015" rx="4.13507" width="21.3646" x="360.52" y="318.852"/><rect fill="#dfe6ec" height="8.27015" rx="4.13507" width="44.7966" x="387.398" y="318.852"/><path d="m217.859 176.878c0-6.09 4.937-11.026 11.027-11.026h137.836c6.09 0 11.027 4.936 11.027 11.026v24.811c0 6.09-4.937 11.027-11.027 11.027h-148.863z" fill="#fff"/><rect fill="#dfe6ec" height="8.27015" rx="4.13507" width="128.876" x="228.887" y="176.879"/><rect fill="#dfe6ec" height="8.27015" rx="4.13507" width="93.7284" x="228.887" y="193.418"/><path d="m228.886 166.541h137.836c5.709 0 10.338 4.628 10.338 10.337v24.811c0 5.709-4.629 10.338-10.338 10.338h-148.173v-35.149c0-5.709 4.628-10.337 10.337-10.337z" stroke="#94a2ab" stroke-opacity=".3" stroke-width="1.37836"/><path d="m0 0h258.442v66.1612h-258.442z" fill="#fff" transform="translate(201.316 49.3828)"/><g clip-path="url(#j)"><path d="m227.779 85.3738-5.361 5.3606 5.361 5.3605" stroke="#94a2ab" stroke-linecap="round" stroke-linejoin="round" stroke-width="2.06754"/></g><rect fill="#94a2ab" height="8.27015" rx="4.13507" width="94.4175" x="283.328" y="86.5977"/></g><rect height="558.235" rx="26.878" stroke="#94a2ab" stroke-opacity=".3" stroke-width="1.37836" width="257.064" x="202.006" y="50.072"/></g></g></svg>