<svg fill="none" height="327" viewBox="0 0 460 327" width="460" xmlns="http://www.w3.org/2000/svg" xmlns:xlink="http://www.w3.org/1999/xlink"><filter id="a" color-interpolation-filters="sRGB" filterUnits="userSpaceOnUse" height="94.3828" width="145.29" x="194.027" y="130.258"><feFlood flood-opacity="0" result="BackgroundImageFix"/><feColorMatrix in="SourceAlpha" type="matrix" values="0 0 0 0 0 0 0 0 0 0 0 0 0 0 0 0 0 0 127 0"/><feOffset dy="19"/><feGaussianBlur stdDeviation="20.5"/><feColorMatrix type="matrix" values="0 0 0 0 0.172549 0 0 0 0 0.756863 0 0 0 0 1 0 0 0 0.5 0"/><feBlend in2="BackgroundImageFix" mode="normal" result="effect1_dropShadow"/><feBlend in="SourceGraphic" in2="effect1_dropShadow" mode="normal" result="shape"/></filter><filter id="b" color-interpolation-filters="sRGB" filterUnits="userSpaceOnUse" height="123.276" width="123.276" x="295.152" y="124.066"><feFlood flood-opacity="0" result="BackgroundImageFix"/><feColorMatrix in="SourceAlpha" type="matrix" values="0 0 0 0 0 0 0 0 0 0 0 0 0 0 0 0 0 0 127 0"/><feOffset dy="19"/><feGaussianBlur stdDeviation="20.5"/><feColorMatrix type="matrix" values="0 0 0 0 0.172549 0 0 0 0 0.756863 0 0 0 0 1 0 0 0 0.5 0"/><feBlend in2="BackgroundImageFix" mode="normal" result="effect1_dropShadow"/><feBlend in="SourceGraphic" in2="effect1_dropShadow" mode="normal" result="shape"/></filter><clipPath id="c"><path d="m0 0h460v327h-460z"/></clipPath><clipPath id="d"><rect height="558.603" rx="27.5174" width="257.975"/></clipPath><clipPath id="e"><rect height="558.603" rx="27.5174" width="257.975" x="202" y="47"/></clipPath><clipPath id="f"><path d="m347.16 157.074h19.2622v19.2622h-19.2622z"/></clipPath><clipPath id="g"><path d="m396.691 157.074h19.2622v19.2622h-19.2622z"/></clipPath><clipPath id="h"><path d="m347.16 253.387h19.2622v19.2622h-19.2622z"/></clipPath><clipPath id="i"><path d="m396.691 253.387h19.2622v19.2622h-19.2622z"/></clipPath><clipPath id="j"><path d="m399.438 80.0195h16.5104v16.5104h-16.5104z"/></clipPath><clipPath id="k"><path d="m426.953 80.0195h16.5104v16.5104h-16.5104z"/></clipPath><mask id="l" height="384" maskUnits="userSpaceOnUse" width="585" x="-63" y="-57"><rect fill="#fff" height="384" rx="24" width="585" x="-63" y="-57"/></mask><g clip-path="url(#c)"><g mask="url(#l)"><g clip-path="url(#d)"><rect fill="#fff" height="558.603" rx="27.5174" width="257.975"/><path d="m26.4173 35.9226-5.3509 5.3508 5.3509 5.3509" stroke="#94a2ab" stroke-linecap="round" stroke-linejoin="round" stroke-width="2.0638"/><rect fill="#94a2ab" height="8.25522" rx="4.12761" width="94.247" x="81.8633" y="37.1484"/><rect fill="#f3f5f8" height="133.459" rx="11.007" width="224.955" x="16.5117" y="82.5508"/><rect fill="#fff" height="37.1485" rx="18.5742" width="37.1485" x="110.414" y="107.316"/><path clip-rule="evenodd" d="m125.894 116.087c-1.425 0-2.58 1.155-2.58 2.579 0 1.425 1.155 2.58 2.58 2.58s2.58-1.155 2.58-2.58c0-1.424-1.155-2.579-2.58-2.579zm-3.612 2.579c0-1.994 1.617-3.611 3.612-3.611 1.994 0 3.611 1.617 3.611 3.611 0 1.995-1.617 3.612-3.611 3.612-1.995 0-3.612-1.617-3.612-3.612zm11.455 4.556c-.188-.293-.606-.319-.83-.052l-5.291 6.326c-.092.11-.226.177-.369.184-.144.007-.284-.045-.386-.146l-3.533-3.44c-.231-.225-.61-.185-.789.083l-4.433 6.65c-.229.343.017.802.429.802h20.947c.408 0 .655-.452.434-.795zm-1.621-.714c.67-.801 1.924-.723 2.489.156l6.179 9.612c.662 1.03-.077 2.385-1.302 2.385h-20.947c-1.236 0-1.974-1.378-1.288-2.407l4.433-6.649c.537-.806 1.674-.926 2.368-.25l3.134 3.052z" fill="#94a2ab" fill-rule="evenodd"/><rect fill="#94a2ab" height="12.3828" rx="6.19141" width="152.034" x="52.9727" y="155.473"/><rect fill="#dfe6ec" height="12.3828" rx="6.19141" width="114.885" x="71.5469" y="178.863"/><rect fill="#f3f5f8" height="133.459" rx="11.007" width="224.955" x="16.5117" y="235.273"/><rect fill="#fff" height="37.1485" rx="18.5742" width="37.1485" x="110.414" y="260.039"/><g fill="#94a2ab"><path clip-rule="evenodd" d="m125.894 268.809c-1.425 0-2.58 1.155-2.58 2.58s1.155 2.58 2.58 2.58 2.58-1.155 2.58-2.58-1.155-2.58-2.58-2.58zm-3.612 2.58c0-1.995 1.617-3.612 3.612-3.612 1.994 0 3.611 1.617 3.611 3.612s-1.617 3.612-3.611 3.612c-1.995 0-3.612-1.617-3.612-3.612zm11.455 4.555c-.188-.292-.606-.319-.83-.052l-5.291 6.326c-.092.111-.226.177-.369.185-.144.007-.284-.046-.386-.146l-3.533-3.441c-.231-.225-.61-.185-.789.084l-4.433 6.649c-.229.343.017.803.429.803h20.947c.408 0 .655-.452.434-.795zm-1.621-.714c.67-.801 1.924-.722 2.489.156l6.179 9.613c.662 1.03-.077 2.384-1.302 2.384h-20.947c-1.236 0-1.974-1.377-1.288-2.406l4.433-6.649c.537-.806 1.674-.926 2.368-.251l3.134 3.052z" fill-rule="evenodd"/><rect height="12.3828" rx="6.19141" width="152.034" x="52.9727" y="308.195"/></g></g><rect height="557.227" rx="26.8295" stroke="#94a2ab" stroke-opacity=".3" stroke-width="1.37587" width="256.6" x=".687935" y=".687935"/><g clip-path="url(#e)"><rect fill="#fff" height="558.603" rx="27.5174" width="257.975" x="202" y="47"/><rect fill="#f3f5f8" height="74.2969" rx="11.007" width="224.955" x="218.516" y="129.555"/><g filter="url(#a)"><rect fill="#2cc1ff" height="12.3828" rx="6.19141" width="63.29" x="235.027" y="152.258"/></g><path clip-rule="evenodd" d="m312.077 162.576c0 1.139-.924 2.063-2.064 2.063s-2.064-.924-2.064-2.063c0-1.14.924-2.064 2.064-2.064s2.064.924 2.064 2.064zm-6.879 0c0 1.14-.924 2.064-2.064 2.064s-2.064-.924-2.064-2.064c0-1.139.924-2.063 2.064-2.063s2.064.924 2.064 2.063zm11.694 2.063c1.14 0 2.064-.924 2.064-2.063 0-1.14-.924-2.064-2.064-2.064s-2.064.924-2.064 2.064c0 1.139.924 2.063 2.064 2.063z" fill="#dfe6ec" fill-rule="evenodd"/><rect fill="#dfe6ec" height="8.25522" rx="4.12761" width="88.0556" x="235.027" y="172.895"/><g filter="url(#b)"><rect fill="#2cc1ff" height="41.2761" rx="20.638" width="41.2761" x="336.152" y="146.066"/><g clip-path="url(#f)"><path d="m349.764 169.193 10.916-10.916 4.54 4.54-10.916 10.916-5.675 1.135z" stroke="#fff" stroke-linecap="round" stroke-linejoin="round" stroke-width="2.0638"/></g></g><rect fill="#f3f5f8" height="39.9002" rx="19.9501" width="39.9002" x="386.372" y="146.754"/><g clip-path="url(#g)"><path d="m401.515 171.531 9.648-9.648m0 9.648-9.648-9.648" stroke="#94a2ab" stroke-linecap="round" stroke-linejoin="round" stroke-width="2.0638"/></g><rect height="39.9002" rx="19.9501" stroke="#94a2ab" stroke-width="1.37587" width="39.9002" x="386.372" y="146.754"/><rect fill="#f3f5f8" height="74.2969" rx="11.007" width="224.955" x="218.516" y="225.867"/><rect fill="#94a2ab" height="12.3828" rx="6.19141" width="63.29" x="235.027" y="248.57"/><path clip-rule="evenodd" d="m312.077 258.888c0 1.14-.924 2.064-2.064 2.064s-2.064-.924-2.064-2.064.924-2.064 2.064-2.064 2.064.924 2.064 2.064zm-6.879.001c0 1.14-.924 2.064-2.064 2.064s-2.064-.924-2.064-2.064.924-2.064 2.064-2.064 2.064.924 2.064 2.064zm11.694 2.063c1.14 0 2.064-.924 2.064-2.064s-.924-2.064-2.064-2.064-2.064.924-2.064 2.064.924 2.064 2.064 2.064z" fill="#dfe6ec" fill-rule="evenodd"/><rect fill="#dfe6ec" height="8.25522" rx="4.12761" width="88.0556" x="235.027" y="269.207"/><rect fill="#94a2ab" height="41.2761" rx="20.638" width="41.2761" x="336.152" y="242.379"/><g clip-path="url(#h)"><path d="m349.764 265.505 10.916-10.915 4.54 4.54-10.916 10.915-5.675 1.135z" stroke="#fff" stroke-linecap="round" stroke-linejoin="round" stroke-width="2.0638"/></g><rect fill="#f3f5f8" height="39.9002" rx="19.9501" width="39.9002" x="386.372" y="243.067"/><g clip-path="url(#i)"><path d="m401.515 267.843 9.648-9.647m0 9.647-9.648-9.647" stroke="#94a2ab" stroke-linecap="round" stroke-linejoin="round" stroke-width="2.0638"/></g><rect height="39.9002" rx="19.9501" stroke="#94a2ab" stroke-width="1.37587" width="39.9002" x="386.372" y="243.067"/><rect fill="#f3f5f8" height="74.2969" rx="11.007" width="224.955" x="218.516" y="322.176"/><path d="m0 0h257.975v66.0417h-257.975z" fill="#fff" transform="translate(202 47)"/><path d="m221.262 83.4609h11.007m-11.007 4.8156h11.007m-11.007 4.8155h11.007" stroke="#94a2ab" stroke-linecap="round" stroke-linejoin="round" stroke-width="2.0638"/><rect fill="#94a2ab" height="8.25522" rx="4.12761" width="68.7935" x="246.027" y="84.1484"/><g clip-path="url(#j)"><circle cx="407.696" cy="88.2741" r="7.22331" stroke="#94a2ab" stroke-width="2.0638"/></g><g clip-path="url(#k)"><circle cx="435.204" cy="88.2741" r="7.22331" stroke="#94a2ab" stroke-width="2.0638"/></g></g><rect height="557.227" rx="26.8295" stroke="#94a2ab" stroke-opacity=".3" stroke-width="1.37587" width="256.6" x="202.688" y="47.6879"/></g></g></svg>