<svg fill="none" height="26" viewBox="0 0 26 26" width="26" xmlns="http://www.w3.org/2000/svg"><path d="m12.1893 1.62328c-1.3406 0-2.43748 1.09688-2.43748 2.4375v1.24313l-.10563-.33313c-.39-1.28375-1.77125-2.015-3.04687-1.625-1.28375.38188-2.015 1.76313-1.625 3.04688l2.10437 6.84934c-.15437.0569-.325.13-.4875.2275-.6825.4063-1.45437 1.2269-1.68187 2.5391-.17875.9669.00812 1.82.14625 2.2831v.0244l.63375 2.0312c.73125 2.3807 2.94125 4.0057 5.42748 4.0057h4.29c3.1281 0 5.6875-2.5594 5.6875-5.6875v-8.0519c0-.0406 0-.0731 0-.1016 0-.0162 0-.0406 0-.0568 0-.0163 0-.0163 0-.0325-.0081-.0325-.0162-.0569-.0325-.0813-.0731-.90187-.6175-1.73062-1.5031-2.08812-.6175-.25187-1.2594-.21125-1.8281.02438-.2682-.50375-.6907-.92625-1.2513-1.14563-.6419-.26-1.3244-.21937-1.9094.04875v-3.17687c0-1.34063-1.105-2.4375-2.4375-2.4375zm0 1.625c.455 0 .8125.34938.8125.8125v5.35438l-.845 2.12874c-.1219.3006-.1787.6256-.1787.9344l-3.33128.4306-2.1125-7.00781c-.13813-.43875.08937-.88562.52812-1.01562.43063-.13813.8775.11375 1.01563.5525l1.67375 5.55753.90998-.2844h.6825v-6.67876c0-.46312.3494-.8125.8125-.8125zm3.3963 5.38281c.0975-.00812.2193.00813.325.04875.4225.17063.6256.63375.455 1.06438l-.8694 2.15308v.0244l-.3331.8369c-.0163.0406-.0569.0569-.0813.0975-.4144-.325-.9344-.5281-1.4787-.5363.0081-.065 0-.1218.0243-.1787l1.2188-3.02251c.1219-.325.39-.50375.7109-.50781zm3.0712 1.11719c.1056 0 .2194.00813.325.04875.3169.12188.4956.41437.5078.73127v.0244c0 .0975-.0162.2031-.0568.3006l-.9141 2.2587c-.1788.4225-.6419.6257-1.0725.455-.4306-.1787-.6094-.6418-.4388-1.0725l.8613-2.1612c.0081-.0325.0081-.0731.0244-.1016.0812-.2194.2356-.38186.4306-.46311.0894-.04875.195-.05687.3006-.05687zm-5.2569 4.18442c.4225-.1016.8369.1543.9344.5768.0569.26.0244.39-.0569.5282-.0812.13-.2518.3006-.6093.4306l-3.94066 1.0156c-.24375.0569-.43875.2275-.54437.455-.10563.2275-.08938.4875.02437.7069l.73125 1.3406c.21121.39.70691.5363 1.09691.3169s.5362-.711.3168-1.105l-.2356-.4063 2.99-.7881c.0244-.0081.0488-.0162.0731-.0325.6257-.2194 1.1294-.6012 1.4463-1.1212.2519-.4307.3494-.9344.3047-1.4219.2356.2519.5362.4631.8856.6094.9263.3656 1.95.13 2.6081-.5363v4.1356c0 2.2507-1.8118 4.0625-4.0625 4.0625h-4.2981c-1.7875 0-3.36375-1.1618-3.89187-2.8762l-.60938-2.0313c-.07312-.2193-.20312-.9912-.10562-1.5518.14625-.8775.52812-1.2107.88562-1.4219.34938-.2194.60938-.2356.60938-.2356h.04875l5.22442-.6907c.0243-.0081.0487-.0162.0731-.0325z" fill="#2cc1ff"/></svg>