<svg fill="none" height="28" viewBox="0 0 29 28" width="29" xmlns="http://www.w3.org/2000/svg"><path d="m14.5335 0-.4189.174346-6.70262 2.789544-.69819.29057v7.79904l-6.043528 2.7198-.670262.3255v9.3682l.558552.3603 6.702618 3.8821.51387.2906.51387-.2557 6.21109-3.2428 6.2111 3.2312.5139.2441.5138-.2906 6.7026-3.8938.5586-.3719v-9.3798l-.6703-.3371-6.0435-2.7314v-7.81072l-.6982-.29058-6.7026-2.8011616zm0 2.53383 3.6641 1.48776-3.6753 1.48775-3.6752-1.49938zm-5.5855 3.19635 4.4684 1.77833v5.66629l-4.4684-2.0806zm11.171 0v5.36982l-4.4684 2.0689v-5.6662zm-12.28811 7.40392 4.04951 1.848-4.04951 2.069-4.0495-2.1154zm13.40521 0 4.0495 1.8132-4.0495 2.1038-4.0495-2.0806 1.2568-.5811zm-18.99072 3.5915 4.46841 2.3246v5.6953l-4.46841-2.6152zm24.57622 0v5.4047l-4.4684 2.6152v-5.7069zm-13.4052.0698v5.6953l-4.4684 2.3246v-5.7767zm2.2342 0 4.4684 2.2432v5.7651l-4.4684-2.3247z" fill="#161819"/></svg>