<svg fill="none" height="25" viewBox="0 0 25 25" width="25" xmlns="http://www.w3.org/2000/svg"><path d="m18.5181.0508543-4.6168 4.5972357-6.87929 1.95281c-1.35548.35598-2.41541 1.36289-2.86384 2.69528l-4.15817 12.79492 1.4574 1.4545 1.4574 1.4544 12.8312-4.1599c1.3147-.4475 2.3237-1.5053 2.6906-2.8377l1.9568-6.8653 4.6066-4.6074-6.543-6.5297zm0 2.8681857 3.6486 3.64117-2.6396 2.62409-3.6588-3.65135 2.6295-2.63425zm-4.3722 3.77339 4.2398 4.23107-1.8855 6.5501c-.1936.6814-.7032 1.2205-1.3657 1.4442l-11.22092 3.6209 5.90093-5.8992c.16307.0407.34649.0611.51979.0712v-.001c1.1211-.0101 2.0281-.9154 2.0281-2.0443-.0102-1.129-.9172-2.0342-2.0383-2.0342v-.001c-1.13128 0-2.03833.9052-2.03833 2.0342 0 .1729.02039.3458.06115.5187l-5.91113 5.8889 3.62821-11.18795c.22422-.68145.76437-1.18999 1.4574-1.37306l6.5532-1.87145z" fill="#161819"/></svg>