<svg fill="none" height="32" viewBox="0 0 26 32" width="26" xmlns="http://www.w3.org/2000/svg"><path d="m11.3149.057102c-1.86601 0-3.39276 1.541758-3.39276 3.426128v12.27697l-.8482-.217c-.18094-.2398-.26011-.3883-.70682-.7195-.73511-.5368-1.85472-1.0735-3.35886-1.0735-1.61722 0-3.00826 1.4618-3.00826 3.3119v.4568l.31666.354 7.58852 7.7431v6.384h18.09482v-19.2434c0-1.6217-1.1309-3.02641-2.686-3.3576l-8.6233-1.89579v-4.07709c0-1.88436-1.538-3.42612-3.3927-3.42612zm0 2.284078c.6333 0 1.1309.49108 1.1309 1.14205v5.91577l.8822.20557 9.5337 2.03283c.5202.1142.8821.5939.8821 1.142v11.2377h-14.24967l-7.14746-7.3205c.09048-.491.28273-.6852.63332-.6852 1.01783 0 1.65115.3084 2.04698.6053.39582.2855.4863.4911.4863.4911l.20356.3883.45237.1427 2.54459.6738 1.41361.3541v-15.252c0-.65096.4863-1.14204 1.131-1.14204zm-1.1309 23.98292h13.5711v3.4261h-13.5711z" fill="#161819"/></svg>