<svg fill="none" height="29" viewBox="0 0 28 29" width="28" xmlns="http://www.w3.org/2000/svg"><path d="m10.9804.200153-.1775.900687-.6654 3.29141c-1.06481.41143-2.01866 1.00077-2.88379 1.70131l-3.22757-1.11196-.87621-.278-.45474.7895-2.218264 3.81403-.4547434.78947.6543874.5894 2.49554 2.1794c-.09982.5671-.21073 1.1342-.21073 1.7347 0 .5893.11091 1.1675.19964 1.7346l-2.495541 2.1795-.665479.5893.443652.7895 2.218258 3.8141.44366.7894.86512-.2779 3.21648-1.112c.86512.6894 1.81897 1.2788 2.87263 1.7013l.6544 3.2914.1664.9007h6.2388l.1664-.9118.6544-3.3025c1.0537-.417 2.0075-1.0119 2.8726-1.7125l3.2165 1.112.8651.278.4437-.8006 2.2182-3.8252.4437-.8006-.6655-.6005-2.4955-2.1905c.0887-.5782.1996-1.1453.1996-1.7458s-.122-1.1787-.2107-1.7458l2.4955-2.1905.6544-.60051-.4547-.80061-2.2183-3.82516-.4547-.80061-.8762.27799-3.2276 1.11196c-.8762-.70053-1.8301-1.28987-2.8838-1.71242l-.6654-3.30253-.1775-.91181zm1.7968 2.223927h2.6286l.5546 2.87998.1386.65606.6211.20016c1.2534.38918 2.3958 1.05636 3.3607 1.94593l.4769.44479.6211-.21128 2.8061-.97296 1.3088 2.25728-2.2182 1.97926-.5213.4115.1663.656c.1331.6338.1997 1.2788.1997 1.946 0 .656-.0666 1.301-.2108 1.9459l-.1386.6561.4769.4169 2.2183 1.9793-1.3199 2.2573-2.8172-.973-.6322-.2112-.488.4448c-.9649.8784-2.1073 1.5456-3.3717 1.9459l-.6322.2001-.1387.6561-.5546 2.88h-2.6452l-.5546-2.8911-.1442-.6672-.6322-.2113c-1.2644-.4003-2.4068-1.0674-3.37174-1.9459l-.48802-.4559-.6322.2002-2.8172.9729-1.31986-2.2684 2.21826-1.9904.5102-.417-.17746-.6672c-.14419-.6449-.21074-1.2898-.21074-1.9459 0-.6672.05546-1.3121.19965-1.9459l.16637-.6672-.52129-.4226-2.21827-1.99037 1.30878-2.26841 2.8061.97297.62111.20015.47693-.4559c.95385-.88957 2.09626-1.55675 3.36068-1.94594l.6211-.21127.1331-.66718zm1.3088 6.67178c-3.0502 0-5.54569 2.50194-5.54569 5.55984s2.49549 5.5598 5.54569 5.5598c3.0501 0 5.5456-2.5019 5.5456-5.5598s-2.4955-5.55984-5.5456-5.55984zm0 2.22394c1.8411 0 3.3274 1.4789 3.3274 3.3359 0 1.8458-1.4863 3.3359-3.3274 3.3359-1.8523 0-3.3274-1.4901-3.3274-3.3359 0-1.857 1.4751-3.3359 3.3274-3.3359z" fill="#161819"/></svg>