<svg fill="none" height="28" viewBox="0 0 28 28" width="28" xmlns="http://www.w3.org/2000/svg"><path d="m21.0117.0342298c-3.8617 0-7 3.0692702-7 6.8459702 0 1.12958.4433 2.28198 1.0208 3.5656.5717 1.2779 1.295 2.6243 2.0417 3.8794 1.4816 2.4988 2.9866 4.5982 2.9866 4.5982l.945 1.3464.945-1.3578s1.4934-2.0994 2.9867-4.6096c.735-1.2551 1.4583-2.6129 2.0417-3.8908.5716-1.28935 1.0208-2.44175 1.0208-3.56563 0-3.7767-3.15-6.84597-7-6.84597zm-11.71337 2.2021202-9.29833 3.87938v21.88427l9.36833-3.9592 9.33337 3.4229 9.2866-3.8908v-9.9494c-.7466 1.392-1.575 2.7269-2.3333 3.9136v4.5183l-5.8333 2.4189v-1.8598l-1.715-2.4246c-.1867-.2624-.3967-.5705-.63-.9014v5.2714l-7-2.5672v-16.97233l1.2716.4564c.105-.77587.315-1.51752.6184-2.21353zm11.70167.06846c2.5783 0 4.6667 2.03097 4.6667 4.56398 0 .43357-.2917 1.48329-.805 2.63569-.525 1.15242-1.26 2.46452-1.9717 3.66262-.9567 1.5974-1.365 2.1679-1.8958 2.9551-.5367-.7872-.945-1.3577-1.8959-2.9665-.7233-1.2095-1.4583-2.5216-1.9716-3.67404-.525-1.16381-.805-2.20212-.805-2.6471 0-2.53301 2.0766-4.56398 4.6666-4.56398zm-12.83333 2.85248v16.93241l-5.83334 2.4189v-16.90958zm12.83333 0c-.9683 0-1.75.76447-1.75 1.7115 0 .93561.7817 1.71149 1.75 1.71149.9567 0 1.75-.77588 1.75-1.71149 0-.94703-.7933-1.7115-1.75-1.7115z" fill="#161819"/></svg>