<svg fill="none" height="33" viewBox="0 0 33 33" width="33" xmlns="http://www.w3.org/2000/svg"><path d="m18.2376 0v2.27833c6.8815 0 12.4913 5.61609 12.4913 12.53087h2.2711c0-8.16559-6.6317-14.8092-14.7624-14.8092zm-11.75319 3.4175c-.60185 0-1.19235.19366-1.68065.58097l-.05677.03418-3.57705 3.69089.06813-.07974c-1.192349 1.01386-1.510309 2.6315-1.010658 3.9871.953878 2.7568 3.395358 8.1108 8.198828 12.9409 4.81486 4.8415 10.20876 7.1768 12.87736 8.2248h.0227.0227c1.3741.4557 2.8617.1253 3.9291-.786l.0227-.0342 3.5487-3.5599c.9312-.9455.9312-2.6087 0-3.5542l-4.6559-4.682c-.9538-.9569-2.6004-.9569-3.5429 0l-2.2598 2.2556c-.8176-.3873-2.7935-1.3898-4.6786-3.2011-1.8623-1.7885-2.8162-3.8504-3.1569-4.6364l2.2712-2.2783c.9879-1.0025 1.0447-2.72263-.1022-3.63396l.1022.09113-4.71265-4.84145-.05677-.04557c-.4883-.39871-1.09015-.59237-1.68065-.59237zm11.74179 1.12777v2.27833c4.372 0 7.949 3.577 7.949 7.9742h2.2712c0-5.66169-4.5877-10.25253-10.2202-10.25253zm-11.75315 1.13917c.07949-.01139.15898.02278.23847.09113l4.61038 4.73893.0455.0342c-.0227-.0114.034.0911-.1022.2278l-3.36133 3.3605.24983.6835s1.27184 3.4859 4.0199 6.106c2.6913 2.5745 6.0072 3.9757 6.0072 3.9757l.704.2961 3.3727-3.3947c.1817-.1936.1363-.1936.318 0l4.6444 4.6706c.1931.1937.1931.1253 0 .319l-3.4635 3.463c-.5337.4443-1.0787.5582-1.726.3418-2.5778-1.0139-7.597-3.2238-12.05979-7.7008-4.49686-4.5111-6.82478-9.6259-7.68781-12.1093l-.01136-.0228-.01136-.0228c-.18169-.467-.05677-1.12774.35203-1.46949l.03407-.03418 3.46349-3.58837c.06813-.06835.15898-.09113.23847-.10252zm11.74185 3.41749v2.27837c1.8737 0 3.4067 1.5333 3.4067 3.4175h2.2711c0-3.1441-2.555-5.69587-5.6778-5.69587z" fill="#161819"/></svg>