<svg fill="none" height="24" viewBox="0 0 28 24" width="28" xmlns="http://www.w3.org/2000/svg"><path d="m14.029.0544714c-.1725 0-.345.0217884-.4959.0871536l-13.312129 6.198825c-.2802559.13073-.2802559.32682 0 .45755l13.301329 6.1988c.151.0654.3126.0872.4851.0872.1617 0 .3342-.0327.4851-.0981l13.3013-6.20969c.2803-.13073.2695-.33772 0-.46845l-13.3121-6.2097117c-.1617-.0653654-.3234-.0980483-.4959-.0980483zm0 2.2659986 9.1514 4.25965-9.1622 4.25968-9.16223-4.27058 9.15143-4.27054zm-12.04026 8.01813-1.778548.8934c-.2802559.1416-.2802559.3595 0 .5011l13.301408 6.7217c.1509.0654.3126.0981.485.0981.1617 0 .3342-.0436.4851-.109l13.3014-6.7326c.2802-.1416.2694-.3704 0-.512l-1.7786-.9042-11.5444 5.8175c-.1617.0653-.3233.098-.4958.098s-.3449-.0436-.4959-.1089l-11.54434-5.8284zm0 5.4471-1.778548.8934c-.2802559.1416-.2802559.3595 0 .5011l13.301408 6.7218c.1509.0653.3126.098.485.098.1617 0 .3342-.0436.4851-.1089l13.3014-6.7327c.2802-.1416.2694-.3704 0-.512l-1.7786-.9042-11.5444 5.8175c-.1617.0654-.3233.098-.4958.098s-.3449-.0435-.4959-.1089l-11.54434-5.8284z" fill="#161819"/></svg>