<svg id="Capa_1" enable-background="new 0 0 512 512" height="512" viewBox="0 0 512 512" width="512" xmlns="http://www.w3.org/2000/svg"><g><g><path d="m256 7.5c-66.408 0-120.242 53.834-120.242 120.242v120.242h48.097v-120.242c0-39.845 32.3-72.145 72.145-72.145s72.145 32.3 72.145 72.145l6.454 120.242h41.643v-120.242c0-66.408-53.834-120.242-120.242-120.242z" fill="#f4aa73"/><path d="m256 7.5c-66.408 0-120.242 53.834-120.242 120.242v120.242h48.097v-40.081h-8.016c-8.854 0-16.032-7.178-16.032-16.032v-72.145c0-58.739 45.869-107.792 104.475-111.807-2.749-.189-5.486-.419-8.282-.419z" fill="#e29a6c"/><g><path d="m368.226 207.903c-8.854 0-16.032-7.178-16.032-16.032v-38.664c0-30.264-12.322-58.861-33.81-78.463-21.919-19.974-41.036-20.71-55.252-19.148l-2.233.247c37.55 2.529 67.247 33.707 67.247 71.898v120.242h48.097v-40.081h-8.017z" fill="#e29a6c"/></g><path d="m280.048 504.5h-48.097c-70.835 0-128.258-57.423-128.258-128.258v-112.226c0-17.709 14.356-32.065 32.065-32.065h240.484c17.709 0 32.065 14.356 32.065 32.065v112.226c-.001 70.835-57.424 128.258-128.259 128.258z" fill="#ffc263"/><path d="m288.065 328.145c0-20.249-18.769-36.113-39.859-31.146-11.185 2.634-20.326 11.555-23.183 22.686-3.132 12.203.755 23.596 8.44 31.178 3.231 3.188 5.086 7.499 4.635 12.016l-5.265 52.647c-.472 4.719 3.234 8.814 7.976 8.814h30.381c4.743 0 8.448-4.095 7.976-8.814l-5.263-52.626c-.456-4.564 1.469-8.89 4.722-12.124 5.822-5.788 9.44-13.771 9.44-22.631z" fill="#845252"/><path d="m231.952 504.5h48.097c27.849 0 53.549-8.972 74.578-24.048h-122.675c-57.459 0-104.21-46.746-104.21-104.21v-143.157c-13.805 3.576-24.048 16.007-24.048 30.931v112.226c0 70.835 57.423 128.258 128.258 128.258z" fill="#ffaa5a"/><path d="m279.168 415.525-5.263-52.625c-.457-4.564 1.468-8.89 4.72-12.124 5.82-5.787 9.439-13.769 9.439-22.63 0-20.249-18.768-36.114-39.859-31.146-4.243 1-8.186 2.911-11.609 5.498l9.314 2.371c10.662 2.712 18.107 12.283 18.107 23.277 0 6.392-2.513 12.412-7.077 16.948-5.143 5.12-7.711 11.899-7.045 18.604l2.779 27.779c.227 2.282-.493 4.478-2.028 6.176-1.542 1.703-3.656 2.638-5.949 2.638h-10.339l-1.525 15.234c-.472 4.719 3.235 8.814 7.977 8.814h30.381c4.742 0 8.448-4.095 7.977-8.814z" fill="#7a4646"/></g><g><path d="m383.742 225.174v-97.432c0-70.437-57.305-127.742-127.742-127.742s-127.742 57.305-127.742 127.742v97.432c-18.241 3.516-32.065 19.591-32.065 38.842v112.226c0 74.857 60.901 135.758 135.759 135.758h48.097c74.857 0 135.758-60.901 135.758-135.758v-112.226c0-19.251-13.824-35.327-32.065-38.842zm-127.742-210.174c62.166 0 112.742 50.576 112.742 112.742v96.71h-177.387v-96.71c0-35.646 29-64.645 64.645-64.645s64.645 29 64.645 64.645v72.145c0 4.142 3.358 7.5 7.5 7.5s7.5-3.358 7.5-7.5v-72.145c0-43.917-35.729-79.645-79.645-79.645s-79.645 35.729-79.645 79.645v96.71h-33.097v-96.71c0-62.166 50.576-112.742 112.742-112.742zm144.807 361.242c0 66.586-54.172 120.758-120.758 120.758h-48.097c-66.586 0-120.758-54.172-120.758-120.758v-112.226c0-13.545 11.02-24.564 24.565-24.564h240.483c13.545 0 24.565 11.02 24.565 24.564z"/><path d="m295.564 328.145c0-21.816-17.749-39.565-39.564-39.565s-39.564 17.749-39.564 39.565c0 11.965 5.359 23.08 14.542 30.561l-6.488 64.886c-.211 2.108.48 4.208 1.902 5.779s3.442 2.467 5.561 2.467h48.097c2.119 0 4.139-.896 5.561-2.467s2.113-3.67 1.902-5.779l-6.488-64.886c9.18-7.481 14.539-18.596 14.539-30.561zm-26.455 20.69c-2.392 1.52-3.723 4.257-3.441 7.077l6.092 60.927h-31.521l6.092-60.927c.282-2.82-1.049-5.557-3.441-7.077-7.173-4.557-11.455-12.292-11.455-20.69 0-13.545 11.02-24.565 24.564-24.565s24.564 11.02 24.564 24.565c.001 8.398-4.281 16.133-11.454 20.69z"/></g></g></svg>