<?xml version="1.0" standalone="no"?>
<!DOCTYPE svg PUBLIC "-//W3C//DTD SVG 20010904//EN"
 "http://www.w3.org/TR/2001/REC-SVG-20010904/DTD/svg10.dtd">
<svg version="1.0" xmlns="http://www.w3.org/2000/svg"
 width="251.000000pt" height="251.000000pt" viewBox="0 0 251.000000 251.000000"
 preserveAspectRatio="xMidYMid meet">
<metadata>
Created by potrace 1.14, written by Peter Selinger 2001-2017
</metadata>
<g transform="translate(0.000000,251.000000) scale(0.100000,-0.100000)"
fill="#000000" stroke="none">
<path d="M1032 2401 c-90 -96 -93 -98 -130 -94 -23 3 -55 -2 -78 -12 -85 -35
-120 -37 -187 -10 -55 22 -155 47 -175 44 -4 -1 -9 0 -12 1 -17 6 -80 5 -110
-3 -54 -14 -83 -45 -77 -84 3 -18 15 -42 26 -55 l21 -22 -39 -41 c-134 -137
-126 -352 20 -516 21 -24 39 -47 39 -51 0 -5 -58 -56 -124 -108 -10 -8 -38
-31 -62 -52 -42 -36 -43 -37 -26 -60 9 -12 25 -37 34 -54 17 -31 17 -31 -17
-85 -19 -30 -35 -61 -35 -69 0 -13 54 -74 186 -210 l34 -35 -24 -59 c-24 -58
-27 -106 -12 -171 4 -16 11 -34 16 -40 4 -5 17 -37 28 -70 17 -51 19 -68 11
-105 -6 -25 -13 -54 -15 -65 -20 -87 1 -135 72 -166 64 -29 110 -29 172 -2 67
30 78 29 146 -6 31 -17 65 -28 76 -26 21 4 51 -35 113 -146 l18 -32 60 59 59
58 31 -31 31 -31 54 55 c42 44 57 53 67 44 24 -19 63 -16 117 9 l52 24 60 -33
c72 -40 112 -42 198 -10 l61 22 75 -18 c62 -16 79 -17 108 -7 22 8 56 10 93 6
49 -5 63 -3 83 14 l24 19 2 339 c1 283 7 481 17 624 1 16 24 47 65 86 43 43
60 66 56 78 -3 9 -9 16 -13 16 -4 0 -15 13 -24 30 l-18 29 59 58 c68 67 92
104 126 196 21 55 25 80 23 159 -2 78 -7 101 -29 144 -42 79 -98 124 -223 174
-11 5 -41 14 -68 20 -39 11 -46 16 -42 31 4 13 -3 29 -23 49 -32 32 -44 31
-128 -6 -39 -17 -66 -12 -146 30 -65 34 -84 36 -174 21 -25 -4 -34 0 -54 27
-13 18 -28 38 -32 43 -5 6 -21 27 -37 47 l-29 38 -68 -55 c-37 -30 -69 -53
-70 -52 -32 44 -74 108 -74 112 0 11 -51 85 -58 85 -4 0 -49 -44 -100 -99z"/>
</g>
</svg>
