<svg width="20" height="20" viewBox="0 0 20 20" fill="none" xmlns="http://www.w3.org/2000/svg">
<path d="M1.76175 6.9096C2.28709 6.9096 2.71296 6.48373 2.71296 5.9584V3.10478C2.71296 2.57944 3.13883 2.15357 3.66417 2.15357H6.51779C7.04312 2.15357 7.46899 1.7277 7.46899 1.20237C7.46899 0.677029 7.04312 0.25116 6.51779 0.25116H3.66417C2.08816 0.25116 0.810547 1.52877 0.810547 3.10478V5.9584C0.810547 6.48373 1.23642 6.9096 1.76175 6.9096Z" fill="#777E91"/>
<path d="M2.71296 13.568C2.71296 13.0427 2.28709 12.6168 1.76175 12.6168C1.23642 12.6168 0.810547 13.0427 0.810547 13.568V16.4217C0.810547 17.9977 2.08816 19.2753 3.66417 19.2753H6.51779C7.04312 19.2753 7.46899 18.8494 7.46899 18.3241C7.46899 17.7987 7.04312 17.3729 6.51779 17.3729H3.66417C3.13883 17.3729 2.71296 16.947 2.71296 16.4217V13.568Z" fill="#777E91"/>
<path d="M17.9323 13.568C17.9323 13.0427 18.3581 12.6168 18.8835 12.6168C19.4088 12.6168 19.8347 13.0427 19.8347 13.568V16.4217C19.8347 17.9977 18.5571 19.2753 16.9811 19.2753H14.1274C13.6021 19.2753 13.1762 18.8494 13.1762 18.3241C13.1762 17.7987 13.6021 17.3729 14.1274 17.3729H16.9811C17.5064 17.3729 17.9323 16.947 17.9323 16.4217V13.568Z" fill="#777E91"/>
<path d="M17.9323 5.9584C17.9323 6.48373 18.3581 6.9096 18.8835 6.9096C19.4088 6.9096 19.8347 6.48373 19.8347 5.9584V3.10478C19.8347 1.52877 18.5571 0.25116 16.9811 0.25116H14.1274C13.6021 0.25116 13.1762 0.677029 13.1762 1.20237C13.1762 1.7277 13.6021 2.15357 14.1274 2.15357H16.9811C17.5064 2.15357 17.9323 2.57944 17.9323 3.10478V5.9584Z" fill="#777E91"/>
</svg>
