<svg width="14" height="13" viewBox="0 0 14 13" fill="none" xmlns="http://www.w3.org/2000/svg">
<path fill-rule="evenodd" clip-rule="evenodd" d="M5.4025 4.2391C5.34032 4.38803 5.20011 4.48972 5.03923 4.50256L2.11617 4.736C1.7337 4.76654 1.57894 5.24415 1.87081 5.4932L4.09541 7.39141C4.21864 7.49656 4.27247 7.66194 4.23474 7.81948L3.55466 10.6595C3.46546 11.032 3.87035 11.327 4.19759 11.1279L6.70344 9.60325C6.841 9.51955 7.01375 9.51955 7.15132 9.60325L9.65717 11.1279C9.98441 11.327 10.3893 11.032 10.3001 10.6595L9.62001 7.81948C9.58229 7.66194 9.63612 7.49656 9.75935 7.39141L11.9839 5.4932C12.2758 5.24415 12.1211 4.76654 11.7386 4.736L8.81552 4.50256C8.65464 4.48972 8.51444 4.38803 8.45225 4.2391L7.32495 1.53924C7.17751 1.18613 6.67725 1.18613 6.52981 1.53924L5.4025 4.2391ZM9.40009 3.31438L8.46086 1.06495C7.89216 -0.297047 5.96259 -0.297034 5.3939 1.06495L4.45467 3.31438L2.01818 3.50895C0.542929 3.62676 -0.0539896 5.46897 1.0718 6.42959L2.92347 8.00958L2.35755 10.3728C2.01348 11.8097 3.5752 12.9474 4.83741 12.1795L6.92738 10.9079L9.01734 12.1795C10.2796 12.9474 11.8413 11.8097 11.4972 10.3728L10.9313 8.00958L12.783 6.42959C13.9088 5.46896 13.3118 3.62676 11.8366 3.50895L9.40009 3.31438Z" fill="#777E91"/>
</svg>
