<svg width="14" height="13" viewBox="0 0 14 13" fill="none" xmlns="http://www.w3.org/2000/svg">
<path d="M6.36147 0.903234C6.57529 0.407744 7.27786 0.407744 7.49168 0.903234L8.83344 4.01255C8.92397 4.22235 9.1233 4.36473 9.35112 4.38234L12.792 4.64822C13.3441 4.69088 13.5635 5.38394 13.1365 5.73648L10.5488 7.87297C10.3663 8.02366 10.2863 8.26568 10.3432 8.49544L11.1396 11.7134C11.2705 12.2425 10.6997 12.6682 10.2299 12.3916L7.23882 10.6307C7.04612 10.5173 6.80704 10.5173 6.61433 10.6307L3.62328 12.3916C3.15349 12.6682 2.58262 12.2425 2.71358 11.7134L3.50997 8.49544C3.56683 8.26568 3.4869 8.02366 3.30438 7.87297L0.716678 5.73648C0.289686 5.38394 0.509044 4.69088 1.06112 4.64822L4.50203 4.38234C4.72986 4.36473 4.92918 4.22235 5.01972 4.01255L6.36147 0.903234Z" fill="#FFD166"/>
</svg>
