<svg width="17" height="17" viewBox="0 0 17 17" fill="none" xmlns="http://www.w3.org/2000/svg">
<path d="M1.5 0.625H15.5C15.7321 0.625 15.9546 0.717187 16.1187 0.881282C16.2828 1.04538 16.375 1.26794 16.375 1.5V15.5C16.375 15.7321 16.2828 15.9546 16.1187 16.1187C15.9546 16.2828 15.7321 16.375 15.5 16.375H1.5C1.26794 16.375 1.04538 16.2828 0.881282 16.1187C0.717187 15.9546 0.625 15.7321 0.625 15.5V1.5C0.625 1.26794 0.717187 1.04538 0.881282 0.881282C1.04538 0.717187 1.26794 0.625 1.5 0.625ZM13.1375 11.9475C13.05 11.9037 13.0062 11.7725 13.0062 11.6841V5.00525C13.0062 4.91775 13.05 4.7865 13.1375 4.69813L13.9731 3.73125V3.6875H10.985L8.745 9.35575L6.19525 3.6875H3.1205V3.73125L3.91062 4.83025C4.0865 5.00525 4.13025 5.2695 4.13025 5.48913V10.3217C4.174 10.586 4.13025 10.8931 3.999 11.1565L2.8125 12.7822V12.826H5.9765V12.7822L4.79 11.2011C4.65875 10.9369 4.61413 10.6735 4.65875 10.3664V5.97125C4.7025 6.05875 4.74625 6.05875 4.79 6.23463L7.77725 12.9135H7.821L10.7225 5.665C10.6788 5.9275 10.6788 6.2355 10.6788 6.456V11.6404C10.6788 11.7716 10.635 11.8591 10.5475 11.9475L9.66813 12.7822V12.826H13.974V12.7822L13.1392 11.9475H13.1375Z" fill="#777E90"/>
</svg>
