<svg width="18" height="20" viewBox="0 0 18 20" fill="none" xmlns="http://www.w3.org/2000/svg">
<path d="M18 18.5C18 18.7652 17.8946 19.0196 17.7071 19.2071C17.5196 19.3946 17.2652 19.5 17 19.5H1C0.734784 19.5 0.48043 19.3946 0.292893 19.2071C0.105357 19.0196 2.4071e-07 18.7652 2.4071e-07 18.5V7.99C-0.000105484 7.83761 0.0346172 7.68721 0.101516 7.5503C0.168415 7.41338 0.26572 7.29356 0.386 7.2L8.386 0.977997C8.56154 0.841443 8.7776 0.767303 9 0.767303C9.2224 0.767303 9.43846 0.841443 9.614 0.977997L17.614 7.2C17.7343 7.29356 17.8316 7.41338 17.8985 7.5503C17.9654 7.68721 18.0001 7.83761 18 7.99V18.5Z" fill="#35C4FF"/>
</svg>
