<svg width="18" height="18" viewBox="0 0 18 18" fill="none" xmlns="http://www.w3.org/2000/svg">
<path d="M2.33003 0.770986C2.99706 0.53297 3.72061 0.502915 4.40509 0.684791C5.08957 0.866667 5.70277 1.25192 6.16368 1.78964C6.62459 2.32737 6.91152 2.99228 6.98657 3.69652C7.06162 4.40076 6.92126 5.1112 6.58403 5.73399L17.293 16.444L15.879 17.858L5.16903 7.14799C4.5461 7.48389 3.83602 7.62318 3.13236 7.54749C2.4287 7.4718 1.76448 7.18469 1.22724 6.724C0.689997 6.2633 0.304944 5.65064 0.122823 4.96676C-0.0592985 4.28287 -0.0299406 3.55986 0.207027 2.89299L2.44403 5.12999C2.5824 5.27325 2.74791 5.38753 2.93092 5.46614C3.11393 5.54475 3.31076 5.58613 3.50993 5.58786C3.70909 5.58959 3.90661 5.55164 4.09096 5.47622C4.2753 5.4008 4.44278 5.28942 4.58362 5.14858C4.72446 5.00774 4.83584 4.84026 4.91126 4.65592C4.98668 4.47157 5.02463 4.27405 5.0229 4.07488C5.02117 3.87572 4.97979 3.67889 4.90118 3.49588C4.82257 3.31287 4.70829 3.14736 4.56503 3.00899L2.32903 0.769986L2.33003 0.770986ZM12.697 2.65499L15.879 0.886987L17.293 2.30099L15.525 5.48299L13.757 5.83699L11.637 7.95799L10.222 6.54399L12.343 4.42299L12.697 2.65499ZM5.97903 10.787L7.39303 12.201L2.09003 17.504C1.90973 17.6848 1.66709 17.7898 1.41186 17.7974C1.15663 17.8051 0.908141 17.7148 0.717343 17.5451C0.526545 17.3754 0.407891 17.1391 0.385706 16.8848C0.363521 16.6304 0.439486 16.3772 0.598027 16.177L0.676028 16.09L5.97903 10.787Z" fill="#777E90"/>
</svg>
