<svg width="20" height="21" viewBox="0 0 20 21" fill="none" xmlns="http://www.w3.org/2000/svg">
<path d="M9 0.550011V2.56201C5.054 3.05401 2 6.42001 2 10.5C2 14.918 5.582 18.5 10 18.5C11.849 18.5 13.55 17.873 14.906 16.82L16.329 18.243C14.605 19.653 12.4 20.5 10 20.5C4.477 20.5 0 16.023 0 10.5C0 5.31501 3.947 1.05101 9 0.550011ZM19.95 11.5C19.75 13.511 18.956 15.347 17.743 16.828L16.32 15.406C17.18 14.299 17.756 12.961 17.938 11.5H19.951H19.95ZM11.002 0.550011C15.726 1.01901 19.482 4.77601 19.952 9.50001H17.939C17.488 5.88201 14.62 3.01401 11.002 2.56201V0.549011V0.550011Z" fill="#777E90"/>
</svg>
