<svg width="24" height="20" viewBox="0 0 24 20" fill="none" xmlns="http://www.w3.org/2000/svg">
<path d="M23.643 2.92975C22.808 3.29975 21.911 3.54975 20.968 3.66275C21.941 3.08055 22.669 2.16422 23.016 1.08475C22.1019 1.62774 21.1014 2.00995 20.058 2.21475C19.3564 1.46562 18.4271 0.969079 17.4143 0.802227C16.4016 0.635375 15.3621 0.807544 14.4572 1.29201C13.5524 1.77647 12.8328 2.54611 12.4102 3.48146C11.9875 4.4168 11.8855 5.4655 12.12 6.46475C10.2677 6.37175 8.45564 5.8903 6.80144 5.05166C5.14723 4.21301 3.68785 3.03591 2.51801 1.59675C2.11801 2.28675 1.88801 3.08675 1.88801 3.93875C1.88757 4.70575 2.07644 5.461 2.43789 6.13749C2.79934 6.81397 3.32217 7.39079 3.96001 7.81675C3.22029 7.79322 2.49688 7.59334 1.85001 7.23375V7.29375C1.84994 8.36949 2.22204 9.41213 2.90319 10.2447C3.58434 11.0774 4.53258 11.6487 5.58701 11.8618C4.9008 12.0475 4.18135 12.0748 3.48301 11.9418C3.78051 12.8674 4.36001 13.6768 5.14038 14.2567C5.92075 14.8366 6.86293 15.1579 7.83501 15.1758C6.18484 16.4712 4.1469 17.1738 2.04901 17.1708C1.67739 17.1709 1.30609 17.1492 0.937012 17.1058C3.06649 18.4749 5.54535 19.2016 8.07701 19.1988C16.647 19.1988 21.332 12.1008 21.332 5.94475C21.332 5.74475 21.327 5.54275 21.318 5.34275C22.2293 4.68373 23.0159 3.86765 23.641 2.93275L23.643 2.92975Z" fill="white"/>
</svg>
