<svg width="20" height="17" viewBox="0 0 20 17" fill="none" xmlns="http://www.w3.org/2000/svg">
<path d="M2.372 4.25668C2.38425 4.13494 2.36784 4.01203 2.32408 3.89777C2.28033 3.78351 2.21043 3.68108 2.12 3.59868L0.252 1.33168V0.992676H6.05L10.532 10.8977L14.472 0.992676H20V1.33168L18.403 2.87268C18.3353 2.92492 18.2831 2.99457 18.2519 3.07418C18.2208 3.15379 18.2118 3.24037 18.226 3.32468V14.6587C18.2118 14.743 18.2208 14.8296 18.2519 14.9092C18.2831 14.9888 18.3353 15.0584 18.403 15.1107L19.963 16.6527V16.9927H12.119V16.6537L13.735 15.0737C13.894 14.9137 13.894 14.8667 13.894 14.6227V5.46068L9.402 16.9547H8.796L3.566 5.46068V13.1647C3.523 13.4877 3.63 13.8147 3.856 14.0487L5.957 16.6167V16.9547H0V16.6167L2.1 14.0487C2.21111 13.9327 2.29358 13.7924 2.3408 13.6389C2.38803 13.4854 2.39871 13.323 2.372 13.1647V4.25668Z" fill="white"/>
</svg>
