<svg width="26" height="26" viewBox="0 0 26 26" fill="none" xmlns="http://www.w3.org/2000/svg">
<path d="M6.02238 0.510742C6.76654 0.510742 7.50341 0.657315 8.19092 0.942092C8.87843 1.22687 9.50312 1.64427 10.0293 2.17047C10.5555 2.69667 10.9729 3.32136 11.2577 4.00887C11.5425 4.69638 11.689 5.43325 11.689 6.17741V11.8441H6.02238C4.51949 11.8441 3.07815 11.2471 2.01544 10.1843C0.952738 9.12164 0.355715 7.6803 0.355715 6.17741C0.355715 4.67452 0.952738 3.23318 2.01544 2.17047C3.07815 1.10776 4.51949 0.510742 6.02238 0.510742V0.510742ZM6.02238 14.5107H11.689V20.1774C11.689 21.2982 11.3567 22.3938 10.734 23.3256C10.1114 24.2575 9.22637 24.9838 8.19092 25.4127C7.15547 25.8416 6.0161 25.9538 4.91687 25.7352C3.81764 25.5165 2.80794 24.9768 2.01544 24.1843C1.22295 23.3918 0.683248 22.3821 0.464599 21.2829C0.245949 20.1837 0.358168 19.0443 0.787065 18.0089C1.21596 16.9734 1.94227 16.0884 2.87415 15.4657C3.80603 14.8431 4.90162 14.5107 6.02238 14.5107V14.5107ZM20.0224 0.510742C21.5253 0.510742 22.9666 1.10776 24.0293 2.17047C25.092 3.23318 25.689 4.67452 25.689 6.17741C25.689 7.6803 25.092 9.12164 24.0293 10.1843C22.9666 11.2471 21.5253 11.8441 20.0224 11.8441H14.3557V6.17741C14.3557 4.67452 14.9527 3.23318 16.0154 2.17047C17.0781 1.10776 18.5195 0.510742 20.0224 0.510742V0.510742ZM14.3557 14.5107H20.0224C21.1431 14.5107 22.2387 14.8431 23.1706 15.4657C24.1025 16.0884 24.8288 16.9734 25.2577 18.0089C25.6866 19.0443 25.7988 20.1837 25.5802 21.2829C25.3615 22.3821 24.8218 23.3918 24.0293 24.1843C23.2368 24.9768 22.2271 25.5165 21.1279 25.7352C20.0287 25.9538 18.8893 25.8416 17.8538 25.4127C16.8184 24.9838 15.9334 24.2575 15.3107 23.3256C14.6881 22.3938 14.3557 21.2982 14.3557 20.1774V14.5107Z" fill="#FF5757"/>
</svg>
