<svg width="26" height="25" viewBox="0 0 26 25" fill="none" xmlns="http://www.w3.org/2000/svg">
<path d="M20.388 24.188C19.1411 24.188 17.9453 23.6963 17.0636 22.8212C16.1819 21.946 15.6865 20.759 15.6865 19.5213C15.6865 18.2836 16.1819 17.0967 17.0636 16.2215C17.9453 15.3463 19.1411 14.8547 20.388 14.8547C21.6349 14.8547 22.8308 15.3463 23.7125 16.2215C24.5942 17.0967 25.0895 18.2836 25.0895 19.5213C25.0895 20.759 24.5942 21.946 23.7125 22.8212C22.8308 23.6963 21.6349 24.188 20.388 24.188V24.188ZM5.61189 9.52132C4.99448 9.52132 4.38312 9.40062 3.81271 9.16609C3.2423 8.93157 2.72401 8.58783 2.28744 8.15449C1.85086 7.72115 1.50455 7.2067 1.26828 6.64051C1.03201 6.07433 0.9104 5.46749 0.9104 4.85466C0.9104 4.24182 1.03201 3.63498 1.26828 3.0688C1.50455 2.50261 1.85086 1.98816 2.28744 1.55482C2.72401 1.12148 3.2423 0.777739 3.81271 0.543217C4.38312 0.308695 4.99448 0.187988 5.61189 0.187988C6.85881 0.187988 8.05465 0.679654 8.93635 1.55482C9.81805 2.42999 10.3134 3.61698 10.3134 4.85466C10.3134 6.09233 9.81805 7.27932 8.93635 8.15449C8.05465 9.02966 6.85881 9.52132 5.61189 9.52132V9.52132ZM22.4983 0.874655L24.3977 2.75999L3.50294 23.5013L1.60353 21.616L22.497 0.874655H22.4983Z" fill="#FF5757"/>
</svg>
