<svg width="25" height="24" viewBox="0 0 25 24" fill="none" xmlns="http://www.w3.org/2000/svg">
<path d="M3.60672 0.538896C4.43879 0.242062 5.33802 0.187503 6.19987 0.381565C7.06171 0.575626 7.85078 1.01034 8.47531 1.63515C9.09985 2.25997 9.53421 3.04922 9.72788 3.91116C9.92156 4.77309 9.8666 5.6723 9.56939 6.50423L24.0294 20.9642L21.2001 23.7922L6.74006 9.33356C5.90799 9.6304 5.00876 9.68496 4.14692 9.49089C3.28507 9.29683 2.49601 8.86212 1.87147 8.23731C1.24693 7.61249 0.812576 6.82324 0.6189 5.9613C0.425224 5.09937 0.480184 4.20016 0.777391 3.36823L3.75872 6.3509C3.94322 6.54192 4.16391 6.69428 4.40792 6.7991C4.65192 6.90392 4.91436 6.95909 5.17992 6.9614C5.44548 6.9637 5.70884 6.9131 5.95463 6.81254C6.20042 6.71198 6.42373 6.56347 6.61151 6.37569C6.7993 6.1879 6.94781 5.9646 7.04837 5.7188C7.14893 5.47301 7.19953 5.20965 7.19723 4.94409C7.19492 4.67854 7.13974 4.4161 7.03493 4.17209C6.93011 3.92808 6.77774 3.70739 6.58672 3.5229L3.60539 0.537563L3.60672 0.538896ZM17.4294 3.0509L21.6721 0.693563L23.5574 2.5789L21.2001 6.82156L18.8427 7.29356L16.0161 10.1216L14.1294 8.23623L16.9574 5.40823L17.4294 3.0509V3.0509ZM8.00139 13.4216L10.8294 16.2509L4.22939 22.8509C3.86544 23.2114 3.37701 23.4186 2.86483 23.4296C2.35265 23.4406 1.85577 23.2546 1.47666 22.9101C1.09755 22.5655 0.86512 22.0886 0.827299 21.5777C0.789478 21.0668 0.949151 20.5609 1.27339 20.1642L1.40272 20.0216L8.00272 13.4216H8.00139Z" fill="#FF5757"/>
</svg>
