<svg width="26" height="29" viewBox="0 0 26 29" fill="none" xmlns="http://www.w3.org/2000/svg">
<path d="M23.7772 13.1775L25.3799 14.1388C25.4788 14.198 25.5606 14.2818 25.6174 14.3821C25.6743 14.4823 25.7041 14.5956 25.7041 14.7108C25.7041 14.8261 25.6743 14.9393 25.6174 15.0396C25.5606 15.1398 25.4788 15.2236 25.3799 15.2828L12.9999 22.7108L0.619888 15.2828C0.521016 15.2236 0.439175 15.1398 0.38235 15.0396C0.325524 14.9393 0.295654 14.8261 0.295654 14.7108C0.295654 14.5956 0.325524 14.4823 0.38235 14.3821C0.439175 14.2818 0.521016 14.198 0.619888 14.1388L2.22255 13.1775L12.9999 19.6442L23.7772 13.1775ZM23.7772 19.4442L25.3799 20.4055C25.4788 20.4647 25.5606 20.5485 25.6174 20.6487C25.6743 20.749 25.7041 20.8623 25.7041 20.9775C25.7041 21.0927 25.6743 21.206 25.6174 21.3063C25.5606 21.4065 25.4788 21.4903 25.3799 21.5495L13.6866 28.5655C13.4792 28.6901 13.2418 28.7559 12.9999 28.7559C12.758 28.7559 12.5206 28.6901 12.3132 28.5655L0.619888 21.5495C0.521016 21.4903 0.439175 21.4065 0.38235 21.3063C0.325524 21.206 0.295654 21.0927 0.295654 20.9775C0.295654 20.8623 0.325524 20.749 0.38235 20.6487C0.439175 20.5485 0.521016 20.4647 0.619888 20.4055L2.22255 19.4442L12.9999 25.9108L23.7772 19.4442V19.4442ZM13.6852 0.922835L25.3799 7.93884C25.4788 7.99803 25.5606 8.08183 25.6174 8.18208C25.6743 8.28233 25.7041 8.3956 25.7041 8.51084C25.7041 8.62607 25.6743 8.73934 25.6174 8.83959C25.5606 8.93984 25.4788 9.02364 25.3799 9.08284L12.9999 16.5108L0.619888 9.08284C0.521016 9.02364 0.439175 8.93984 0.38235 8.83959C0.325524 8.73934 0.295654 8.62607 0.295654 8.51084C0.295654 8.3956 0.325524 8.28233 0.38235 8.18208C0.439175 8.08183 0.521016 7.99803 0.619888 7.93884L12.3132 0.922835C12.5206 0.798244 12.758 0.732422 12.9999 0.732422C13.2418 0.732422 13.4792 0.798244 13.6866 0.922835H13.6852Z" fill="#FF5757"/>
</svg>
