<svg width="30" height="26" viewBox="0 0 30 26" fill="none" xmlns="http://www.w3.org/2000/svg">
<path d="M18.1763 11.0156C17.9244 10.7657 17.5828 10.6253 17.2266 10.6253C16.8704 10.6253 16.5288 10.7657 16.2769 11.0156L15.3272 11.957C15.0794 12.2117 14.783 12.4148 14.4552 12.5546C14.1274 12.6943 13.7749 12.7679 13.4182 12.771C13.0614 12.774 12.7077 12.7066 12.3775 12.5725C12.0473 12.4384 11.7474 12.2404 11.4951 11.99C11.2429 11.7396 11.0434 11.4419 10.9083 11.1142C10.7732 10.7865 10.7052 10.4353 10.7083 10.0812C10.7114 9.72715 10.7856 9.37723 10.9264 9.05189C11.0672 8.72655 11.2718 8.43229 11.5284 8.1863L19.0911 0.676969C20.8816 0.272738 22.7549 0.4391 24.4447 1.1524C26.1345 1.8657 27.5546 3.08963 28.5033 4.65016C29.452 6.21068 29.8809 8.02836 29.729 9.84474C29.5771 11.6611 28.8522 13.3837 27.6572 14.7676L24.8256 17.6143L18.1763 11.0143V11.0156ZM3.45394 2.99964C4.84392 1.62014 6.662 0.746274 8.61425 0.519324C10.5665 0.292374 12.5388 0.725603 14.2123 1.74897L9.62767 6.30097C8.63472 7.28461 8.0687 8.6147 8.05057 10.007C8.03245 11.3994 8.56364 12.7436 9.53066 13.7523C10.4977 14.7611 11.8238 15.3545 13.2257 15.4057C14.6276 15.4569 15.9941 14.9618 17.0332 14.0263L17.2266 13.8436L22.9262 19.4996L17.2266 25.157C16.7228 25.6569 16.0396 25.9377 15.3272 25.9377C14.6148 25.9377 13.9316 25.6569 13.4278 25.157L3.4526 15.2556C1.81531 13.6303 0.895508 11.4261 0.895508 9.12764C0.895508 6.82922 1.81531 4.62493 3.4526 2.99964H3.45394Z" fill="#FF5757"/>
</svg>
