<svg width="28" height="27" viewBox="0 0 28 27" fill="none" xmlns="http://www.w3.org/2000/svg">
<path d="M14 26.7936C6.58102 26.7936 0.567139 20.8243 0.567139 13.4603C0.567139 6.09629 6.58102 0.126953 14 0.126953C21.4189 0.126953 27.4328 6.09629 27.4328 13.4603C27.4328 20.8243 21.4189 26.7936 14 26.7936ZM20.4746 20.2283C22.0961 18.7028 23.1174 16.654 23.3555 14.4491C23.5936 12.2442 23.033 10.0271 21.7741 8.1951C20.5152 6.3631 18.6403 5.03588 16.4853 4.4512C14.3302 3.86652 12.0358 4.06259 10.0131 5.00429L11.3228 7.34429C12.345 6.90334 13.4616 6.72179 14.572 6.81601C15.6825 6.91023 16.7519 7.27726 17.6838 7.88401C18.6157 8.49076 19.3808 9.31816 19.9102 10.2916C20.4397 11.2651 20.7167 12.354 20.7164 13.4603H16.6865L20.4746 20.2283ZM17.9868 21.9163L16.6771 19.5763C15.655 20.0172 14.5384 20.1988 13.4279 20.1046C12.3175 20.0103 11.2481 19.6433 10.3162 19.0366C9.38427 18.4298 8.61912 17.6024 8.08971 16.6289C7.56029 15.6555 7.28325 14.5665 7.28356 13.4603H11.3134L7.52535 6.69229C5.90386 8.2178 4.88257 10.2665 4.64444 12.4715C4.40631 14.6764 4.96691 16.8935 6.22581 18.7255C7.4847 20.5575 9.35963 21.8847 11.5147 22.4694C13.6698 23.054 15.9642 22.858 17.9868 21.9163V21.9163Z" fill="#FF5757"/>
</svg>
