<svg width="20" height="19" viewBox="0 0 20 19" fill="none" xmlns="http://www.w3.org/2000/svg">
<path d="M1 0.5H19C19.2652 0.5 19.5196 0.605357 19.7071 0.792893C19.8946 0.98043 20 1.23478 20 1.5V17.5C20 17.7652 19.8946 18.0196 19.7071 18.2071C19.5196 18.3946 19.2652 18.5 19 18.5H1C0.734784 18.5 0.48043 18.3946 0.292893 18.2071C0.105357 18.0196 0 17.7652 0 17.5V1.5C0 1.23478 0.105357 0.98043 0.292893 0.792893C0.48043 0.605357 0.734784 0.5 1 0.5ZM2 2.5V16.5H18V2.5H2ZM5 10.5H7V14.5H5V10.5ZM9 4.5H11V14.5H9V4.5ZM13 7.5H15V14.5H13V7.5Z" fill="#777E90"/>
</svg>
